<svg width="820" height="818" viewBox="0 0 820 818" fill="none" xmlns="http://www.w3.org/2000/svg">
<g clip-path="url(#clip0_184_2115)">
<path d="M1127.38 261.454C1083.67 145.685 968.527 3.5458 763.955 -29.5991C664.351 -45.7048 599.208 -37.5578 547.84 -14.4383C516.572 -0.370138 418.119 70.5347 367.091 208.558C329.832 309.496 319.404 466.184 369.891 599.895C419.02 729.641 458.602 830.723 528.11 873.048C617.516 927.512 734.387 902.328 751.773 901.037C782.664 898.703 968.427 868.885 1081.32 681.496C1180.95 516.047 1166.1 363.928 1127.38 261.454Z" fill="#1E1E20"/>
<path d="M202.293 488.115C216.155 611.076 289.643 781.47 479.765 863.978C572.312 904.145 637.543 912.181 692.958 902.455C726.726 896.551 841.466 853.247 922.981 730.759C1005.13 607.287 1030.85 492.974 1016.58 350.713C987.519 61.5309 751.132 -29.7809 720.646 -35.0646C690.161 -40.3483 502.723 -57.1871 347.162 96.6611C209.935 232.454 189.936 379.271 202.293 488.115Z" fill="#1A1A1C"/>
<path d="M377.13 335.892C319.849 430.682 344.182 565.263 432.745 626.209C521.239 687.118 624.623 668.872 689.258 586.818C753.825 504.726 757.075 370.072 654.115 285.338C548.062 197.993 431.852 245.381 377.13 335.892Z" fill="#1E1E20"/>
<path d="M553.846 395.076C553.846 395.076 561.964 369.109 530.234 345.395C499.01 322.052 460.903 322.778 428.821 356.092C393.961 392.317 401.289 434.098 421.696 455.256C450.071 484.679 474.897 478.347 474.897 478.347C474.897 478.347 461.728 525.57 509.016 556.245C553.627 585.164 596.148 567.373 621.455 539.827C652.766 505.817 666.777 455.318 622.739 416.557C586.528 384.557 553.846 395.076 553.846 395.076Z" fill="#303030"/>
<path d="M454.932 425.792C466.939 437.375 484.718 437.461 496.641 424.841C509.48 411.216 512.267 393.87 498.225 380.978C485.757 369.585 469.31 369.348 455.91 383.82C444.858 395.676 441.821 413.15 454.932 425.792Z" fill="#1A1A1C"/>
<path d="M531.639 452.779C516.204 467.545 509.976 494.921 531.853 511.994C553.73 529.067 573.972 521.521 587.826 504.628C601.681 487.735 601.695 464.479 584.432 450.329C567.198 436.285 546.967 438.043 531.639 452.779Z" fill="#1A1A1C"/>
</g>
<defs>
<clipPath id="clip0_184_2115">
<rect width="997" height="997" fill="white" transform="translate(0.024231 628.991) rotate(-60.9112)"/>
</clipPath>
</defs>
</svg>
