<svg width="1270" height="747" viewBox="0 0 1270 747" fill="none" xmlns="http://www.w3.org/2000/svg">
<g clip-path="url(#clip0_184_2122)">
<path d="M460.183 -634.649C315.754 -638.293 111.389 -576.282 -14.4323 -369.618C-75.6585 -268.981 -95.4991 -194.946 -93.0883 -129.224C-91.6265 -89.2199 -58.2457 48.4416 68.5816 164.333C161.358 249.024 326.228 329.216 493.04 333.424C654.967 337.358 781.695 339.008 858.04 282.451C956.265 209.714 980.431 72.2436 986.682 52.873C997.744 18.4381 1047.2 -195.578 894.195 -400.092C759.08 -580.6 588.037 -631.453 460.183 -634.649Z" fill="#1E1E20"/>
<path d="M298.437 465.516C437.515 504.606 654.116 500.073 826.968 330.747C911.112 248.326 948.493 181.312 962.346 117.104C970.814 77.9878 974.446 -65.1484 877.828 -207.179C780.427 -350.329 668.109 -428.417 507.981 -475.558C182.452 -571.318 -20.2694 -355.829 -39.3919 -325.183C-58.5144 -294.538 -159.165 -99.2316 -61.1993 136.672C25.3037 344.806 175.289 431.009 298.437 465.516Z" fill="#1A1A1C"/>
<path d="M210.707 209.48C288.028 313.12 444.278 345.996 549.142 277.023C653.937 208.107 679.674 88.2719 619.362 -17.719C558.979 -123.653 414.78 -186.392 277.858 -112.31C136.751 -36.0316 136.889 110.491 210.707 209.48Z" fill="#1E1E20"/>
<path d="M352.437 44.3947C352.437 44.3947 327.924 24.1941 288.322 48.0802C249.344 71.5816 233.369 113.114 255.288 162.462C279.132 216.096 327.541 226.546 359.398 213.782C403.699 196.036 407.77 166.402 407.77 166.402C407.77 166.402 453.049 201.414 507.022 163.764C557.919 128.237 557.379 74.4265 538.72 34.9413C515.709 -13.8795 467.258 -51.2426 405.97 -20.6642C355.435 4.42369 352.437 44.3947 352.437 44.3947Z" fill="#303030"/>
<path d="M342.152 164.879C359.959 156.988 367.871 137.799 359.467 119.354C350.379 99.4757 332.845 88.8326 312.727 98.3478C294.921 106.821 287.431 124.505 297.189 145.361C305.15 162.529 322.713 173.498 342.152 164.879Z" fill="#1A1A1C"/>
<path d="M405.075 93.7912C414.256 116.978 441.123 135.753 469.209 119.603C497.296 103.453 498.038 78.2429 485.862 55.8293C473.686 33.4156 448.541 23.1721 425.645 35.6187C402.877 48.0793 395.881 70.7321 405.075 93.7912Z" fill="#1A1A1C"/>
</g>
<defs>
<clipPath id="clip0_184_2122">
<rect width="1164" height="1164" fill="white" transform="translate(361.83 746.229) rotate(-128.78)"/>
</clipPath>
</defs>
</svg>
