<svg width="909" height="579" viewBox="0 0 909 579" fill="none" xmlns="http://www.w3.org/2000/svg">
<path d="M780.759 806.479C860.675 711.998 928.907 542.274 858.416 347.392C824.066 252.521 785.277 199.556 740.1 165.907C712.605 145.422 602.779 93.8581 457.357 116.368C351.037 132.881 209.042 199.945 116.742 309.07C27.2454 415.079 -41.8435 498.811 -45.0371 580.129C-49.1653 684.736 29.66 774.622 39.2406 789.188C56.2986 815.047 172.667 962.884 391.306 970.439C584.319 977.06 710.035 890.134 780.759 806.479Z" fill="#1E1E20"/>
<path d="M132.943 108.268C32.2305 180.161 -80.9446 327.218 -60.6151 533.473C-50.723 633.874 -26.0317 694.784 9.40852 738.481C30.9842 765.119 124.609 844.334 271.277 856.018C419.113 867.779 531.509 834.676 648.891 753.046C887.469 587.061 852.341 336.098 842.137 306.889C831.933 277.68 755.523 105.697 545.452 44.5532C360.072 -9.34717 222.05 44.5532 132.943 108.268Z" fill="#1A1A1C"/>
<path d="M350.966 187.046C240.283 183.074 134.508 269.766 124.304 376.788C114.1 483.732 180.307 565.205 283.435 581.796C386.562 598.309 505.812 535.685 529.803 404.517C554.572 269.377 456.663 190.863 350.966 187.046Z" fill="#1E1E20"/>
<path d="M385.16 370.246C385.16 370.246 411.798 364.716 417.095 325.459C422.314 286.825 403.153 253.877 358.443 242.038C309.84 229.186 276.892 255.902 268.324 284.021C256.407 323.122 274.01 341.738 274.01 341.738C274.01 341.738 226.341 353.188 222.524 409.425C218.941 462.468 255.16 490.976 291.535 499.7C336.478 510.527 387.419 498.22 399.881 440.893C410.241 393.691 385.16 370.246 385.16 370.246Z" fill="#303030"/>
<path d="M310.229 298.741C305.945 314.865 314.513 330.443 331.337 334.727C349.486 339.322 365.999 333.325 370.438 314.787C374.333 298.352 366.544 283.864 347.383 279.191C331.649 275.296 314.902 281.138 310.229 298.741Z" fill="#1A1A1C"/>
<path d="M323.938 378.893C303.53 372.584 276.58 380.451 272.296 407.868C268.012 435.286 284.447 449.306 305.945 453.201C327.443 457.095 347.772 445.801 351.745 423.836C355.639 401.949 344.267 385.124 323.938 378.893Z" fill="#1A1A1C"/>
</svg>
