<svg width="367" height="541" viewBox="0 0 367 541" fill="none" xmlns="http://www.w3.org/2000/svg">
<g clip-path="url(#clip0_287_2550)">
<path d="M530.49 139.29C509.925 84.8257 455.755 17.9555 359.514 2.36223C312.654 -5.21475 282.007 -1.38196 257.841 9.49473C243.131 16.1132 196.813 49.4707 172.807 114.404C155.278 161.891 150.372 235.606 174.124 298.511C197.237 359.551 215.859 407.105 248.559 427.017C290.621 452.64 345.603 440.792 353.782 440.185C368.315 439.086 455.708 425.058 508.821 336.901C555.689 259.064 548.706 187.499 530.49 139.29Z" fill="#1E1E20"/>
<path d="M95.2764 245.923C101.798 303.771 136.37 383.934 225.814 422.75C269.353 441.647 300.042 445.427 326.112 440.851C341.998 438.074 395.979 417.701 434.328 360.076C472.976 301.988 485.073 248.209 478.362 181.282C464.69 45.2345 353.48 2.27645 339.138 -0.209276C324.796 -2.69504 236.615 -10.617 163.431 61.7617C98.8717 125.646 89.4628 194.717 95.2764 245.923Z" fill="#1A1A1C"/>
<path d="M177.53 174.309C150.581 218.904 162.029 282.218 203.694 310.891C245.326 339.546 293.964 330.962 324.372 292.359C354.747 253.739 356.276 190.39 307.838 150.526C257.945 109.434 203.274 131.729 177.53 174.309Z" fill="#1E1E20"/>
<path d="M260.667 202.152C260.667 202.152 264.486 189.936 249.558 178.78C234.869 167.798 216.941 168.14 201.848 183.812C185.447 200.855 188.895 220.511 198.496 230.464C211.845 244.307 223.524 241.328 223.524 241.328C223.524 241.328 217.329 263.544 239.576 277.975C260.563 291.58 280.567 283.21 292.473 270.251C307.204 254.251 313.795 230.494 293.078 212.258C276.042 197.204 260.667 202.152 260.667 202.152Z" fill="#303030"/>
<path d="M214.132 216.603C219.781 222.052 228.145 222.093 233.754 216.156C239.794 209.746 241.105 201.585 234.499 195.52C228.633 190.16 220.896 190.049 214.592 196.857C209.392 202.435 207.964 210.656 214.132 216.603Z" fill="#1A1A1C"/>
<path d="M250.219 229.299C242.957 236.246 240.028 249.125 250.32 257.157C260.612 265.189 270.135 261.639 276.653 253.692C283.171 245.745 283.177 234.804 275.055 228.147C266.948 221.54 257.43 222.367 250.219 229.299Z" fill="#1A1A1C"/>
</g>
<defs>
<clipPath id="clip0_287_2550">
<rect width="469.044" height="469.044" fill="white" transform="translate(0.118164 312.199) rotate(-60.9112)"/>
</clipPath>
</defs>
</svg>
