<svg width="393" height="579" viewBox="0 0 393 579" fill="none" xmlns="http://www.w3.org/2000/svg">
<path d="M377.328 556.666C432.489 491.451 479.586 374.301 430.93 239.785C407.22 174.301 380.446 137.742 349.263 114.516C330.285 100.376 254.479 64.7851 154.103 80.3227C80.7156 91.7206 -17.295 138.011 -81.0046 213.333C-142.779 286.505 -190.467 344.301 -192.671 400.43C-195.52 472.634 -141.112 534.677 -134.499 544.731C-122.725 562.58 -42.4025 664.623 108.511 669.838C241.737 674.408 328.511 614.408 377.328 556.666Z" fill="#1E1E20"/>
<path d="M-69.8217 74.7312C-139.338 124.355 -217.456 225.86 -203.424 368.225C-196.596 437.526 -179.553 479.569 -155.09 509.731C-140.198 528.118 -75.5744 582.795 25.662 590.859C127.705 598.978 205.285 576.128 286.307 519.784C450.984 405.215 426.737 231.989 419.694 211.828C412.651 191.666 359.909 72.957 214.909 30.7527C86.9522 -6.45151 -8.31648 30.7527 -69.8217 74.7312Z" fill="#1A1A1C"/>
<path d="M80.6665 129.107C4.26881 126.365 -68.7418 186.204 -75.7848 260.075C-82.8278 333.892 -37.129 390.128 34.0537 401.58C105.236 412.978 187.548 369.752 204.107 279.214C221.204 185.935 153.623 131.742 80.6665 129.107Z" fill="#1E1E20"/>
<path d="M104.269 255.559C104.269 255.559 122.656 251.742 126.312 224.646C129.914 197.979 116.688 175.237 85.8279 167.065C52.2796 158.194 29.5377 176.635 23.6237 196.043C15.3979 223.033 27.5484 235.882 27.5484 235.882C27.5484 235.882 -5.35473 243.785 -7.98914 282.602C-10.4623 319.215 14.5377 338.893 39.6452 344.914C70.6666 352.387 105.828 343.893 114.43 304.323C121.581 271.742 104.269 255.559 104.269 255.559Z" fill="#303030"/>
<path d="M52.5486 206.203C49.5916 217.332 55.5056 228.085 67.1185 231.042C79.6453 234.214 91.0431 230.074 94.1077 217.279C96.7958 205.934 91.4195 195.934 78.1937 192.709C67.3335 190.021 55.7744 194.053 52.5486 206.203Z" fill="#1A1A1C"/>
<path d="M62.0109 261.527C47.9249 257.173 29.3228 262.603 26.3658 281.527C23.4088 300.452 34.7529 310.129 49.5916 312.818C64.4302 315.506 78.4625 307.71 81.2044 292.549C83.8926 277.441 76.0431 265.828 62.0109 261.527Z" fill="#1A1A1C"/>
</svg>
