<svg width="393" height="403" viewBox="0 0 393 403" fill="none" xmlns="http://www.w3.org/2000/svg">
<g clip-path="url(#clip0_287_2557)">
<path d="M84.1862 -248.588C16.0651 -250.307 -80.3255 -221.059 -139.67 -123.584C-168.548 -76.1177 -177.906 -41.1987 -176.769 -10.2002C-176.08 8.66812 -160.335 73.5974 -100.516 128.259C-56.7574 168.204 21.0052 206.027 99.6837 208.012C176.058 209.867 235.83 210.646 271.839 183.97C318.168 149.663 329.566 84.8238 332.514 75.6875C337.732 59.4459 361.058 -41.4965 288.892 -137.958C225.164 -223.096 144.49 -247.081 84.1862 -248.588Z" fill="#1E1E20"/>
<path d="M7.8972 270.315C73.4946 288.752 175.656 286.614 257.183 206.75C296.871 167.875 314.502 136.267 321.036 105.983C325.03 87.5335 326.743 20.022 281.172 -46.9679C235.232 -114.486 182.256 -151.317 106.73 -173.551C-46.8082 -218.718 -142.423 -117.08 -151.443 -102.626C-160.462 -88.1715 -207.935 3.94635 -161.728 115.212C-120.928 213.38 -50.1866 254.039 7.8972 270.315Z" fill="#1A1A1C"/>
<path d="M-33.4813 149.554C2.98799 198.436 76.6845 213.942 126.145 181.411C175.572 148.906 187.711 92.3845 159.264 42.393C130.784 -7.57173 62.7719 -37.1633 -1.80879 -2.22167C-68.3634 33.7557 -68.2982 102.864 -33.4813 149.554Z" fill="#1E1E20"/>
<path d="M33.3668 71.6884C33.3668 71.6884 21.8051 62.1607 3.12655 73.4268C-15.2577 84.5114 -22.7925 104.1 -12.4545 127.376C-1.20797 152.673 21.6243 157.602 36.6499 151.582C57.5451 143.211 59.4649 129.234 59.4649 129.234C59.4649 129.234 80.8212 145.748 106.278 127.99C130.284 111.233 130.03 85.8532 121.229 67.2297C110.376 44.2029 87.5233 26.5803 58.6159 41.0028C34.7807 52.8358 33.3668 71.6884 33.3668 71.6884Z" fill="#303030"/>
<path d="M28.5156 128.516C36.9144 124.794 40.6465 115.743 36.6827 107.043C32.396 97.6679 24.1261 92.648 14.6371 97.1359C6.23881 101.132 2.70617 109.473 7.30869 119.31C11.0635 127.407 19.3471 132.581 28.5156 128.516Z" fill="#1A1A1C"/>
<path d="M58.194 94.9869C62.5242 105.923 75.1964 114.779 88.4434 107.161C101.69 99.5441 102.041 87.6535 96.2977 77.0819C90.5549 66.5103 78.695 61.6788 67.896 67.5494C57.1572 73.4265 53.8572 84.111 58.194 94.9869Z" fill="#1A1A1C"/>
</g>
<defs>
<clipPath id="clip0_287_2557">
<rect width="549.011" height="549.011" fill="white" transform="translate(37.7971 402.715) rotate(-128.78)"/>
</clipPath>
</defs>
</svg>
