<svg width="24" height="25" viewBox="0 0 24 25" fill="none" xmlns="http://www.w3.org/2000/svg">
<path d="M20.925 19.9137C22.8487 17.6394 24.4912 13.5537 22.7944 8.86248C21.9675 6.57873 21.0337 5.30373 19.9462 4.49373C19.2844 4.00061 16.6406 2.75936 13.14 3.30123C10.5806 3.69873 7.1625 5.31311 4.94062 7.93998C2.78625 10.4919 1.12312 12.5075 1.04625 14.465C0.946873 16.9831 2.84437 19.1469 3.075 19.4975C3.48562 20.12 6.28687 23.6787 11.55 23.8606C16.1962 24.02 19.2225 21.9275 20.925 19.9137Z" fill="#A53434"/>
<path d="M5.33063 3.10631C2.90625 4.83694 0.18188 8.37694 0.671255 13.3419C0.90938 15.7588 1.50375 17.2251 2.35688 18.2769C2.87625 18.9182 5.13 20.8251 8.66063 21.1063C12.2194 21.3894 14.925 20.5926 17.7506 18.6276C23.4938 14.6319 22.6481 8.59069 22.4025 7.88756C22.1569 7.18444 20.3175 3.04444 15.2606 1.57256C10.7981 0.275061 7.47563 1.57256 5.33063 3.10631Z" fill="#800000"/>
<path d="M9.59062 3.44188C6.92625 3.34626 4.38 5.43313 4.13437 8.00938C3.88875 10.5838 5.4825 12.545 7.965 12.9444C10.4475 13.3419 13.3181 11.8344 13.8956 8.67688C14.4919 5.42376 12.135 3.53376 9.59062 3.44188Z" fill="white"/>
<path d="M10.4138 7.85189C10.4138 7.85189 11.055 7.71877 11.1825 6.77377C11.3081 5.84377 10.8469 5.05064 9.77063 4.76564C8.60063 4.45627 7.80751 5.09939 7.60126 5.77627C7.31438 6.71752 7.73813 7.16564 7.73813 7.16564C7.73813 7.16564 6.59063 7.44127 6.49876 8.79502C6.41251 10.0719 7.28438 10.7581 8.16001 10.9681C9.24188 11.2288 10.4681 10.9325 10.7681 9.55252C11.0175 8.41627 10.4138 7.85189 10.4138 7.85189Z" fill="#303030"/>
<path d="M8.61 6.13057C8.50687 6.5187 8.71312 6.8937 9.11812 6.99682C9.555 7.10745 9.9525 6.96307 10.0594 6.51682C10.1531 6.1212 9.96562 5.77245 9.50437 5.65995C9.12562 5.5662 8.7225 5.70682 8.61 6.13057Z" fill="white"/>
<path d="M8.94 8.05997C8.44875 7.9081 7.8 8.09747 7.69687 8.75747C7.59375 9.41747 7.98937 9.75497 8.50687 9.84872C9.02437 9.94247 9.51375 9.6706 9.60937 9.14185C9.70312 8.61497 9.42937 8.20997 8.94 8.05997Z" fill="white"/>
</svg>
