<svg width="161" height="41" viewBox="0 0 161 41" fill="none" xmlns="http://www.w3.org/2000/svg">
<path fill-rule="evenodd" clip-rule="evenodd" d="M61.3129 12.2111C61.4141 12.2268 61.5797 12.2268 61.681 12.2111C61.7823 12.1958 61.6995 12.1834 61.4969 12.1834C61.2944 12.1834 61.2116 12.1958 61.3129 12.2111ZM60.6259 12.2963C60.5576 12.3401 60.6111 12.3474 60.7935 12.3192C61.1247 12.2686 61.181 12.23 60.9218 12.2312C60.8144 12.232 60.6814 12.261 60.6259 12.2963ZM61.9045 12.2549C61.9198 12.2686 62.0528 12.2995 62.2003 12.3245C62.3925 12.3566 62.4399 12.3498 62.3679 12.3007C62.2775 12.2392 61.8374 12.1954 61.9045 12.2549ZM60.0118 12.5335C59.6267 12.734 58.9603 13.3442 58.7959 13.6468L58.6737 13.8715L58.8244 13.6706C59.1444 13.2437 59.6778 12.7819 60.0869 12.5777C60.3213 12.4603 60.4712 12.3655 60.4189 12.3675C60.3671 12.3691 60.1838 12.4438 60.0118 12.5335ZM62.9098 12.5781C63.4415 12.8426 64.0251 13.4137 64.3049 13.9423C64.4206 14.1613 64.495 14.265 64.4705 14.173C64.3017 13.5399 63.0601 12.3643 62.5605 12.3643C62.5163 12.3643 62.6734 12.4603 62.9098 12.5781ZM52.3042 12.6026C52.1462 12.761 50.7555 12.9093 49.1039 12.9451C48.0766 12.9668 47.2932 13.0114 47.245 13.0504C47.0484 13.2083 47.1634 19.9959 47.3969 22.0108C47.7936 25.4357 49.0557 28.5765 51.2845 31.6851C52.0678 32.7776 54.5546 35.2833 54.7411 35.1683C54.8103 35.1253 54.8071 24.6182 54.7375 24.0619C54.7038 23.7898 54.6487 23.6391 54.5591 23.5739C54.4879 23.5221 54.1668 23.2223 53.8452 22.9075C53.5241 22.5928 53.2298 22.3545 53.1921 22.3782C53.1458 22.4067 53.1233 23.8625 53.1233 26.7742C53.1233 31.5951 53.1482 31.3519 52.7142 30.7437C50.6811 27.8964 49.7394 25.7645 49.1972 22.7813C49.03 21.8617 48.7804 14.8233 48.909 14.6678C48.9665 14.599 49.1787 14.5749 49.7318 14.5745C50.1703 14.5741 50.7941 14.5191 51.2475 14.4411C51.6711 14.3679 52.02 14.3076 52.0228 14.3072C52.0554 14.3044 52.5787 13.1424 52.692 12.8205L52.7825 12.5652H52.5618C52.4408 12.5652 52.3247 12.5821 52.3042 12.6026ZM67.4191 12.6717C67.446 12.7421 67.4854 12.89 67.5063 13.0005C67.5272 13.1111 67.5815 13.2469 67.6273 13.302C67.6727 13.3574 67.7704 13.5681 67.8448 13.7706C67.9191 13.9732 68.051 14.1899 68.1382 14.2526C68.3219 14.3848 69.6816 14.5749 70.4417 14.5749C70.7126 14.5749 71.0141 14.6055 71.1121 14.6428L71.291 14.7108L71.2472 15.8989C71.2231 16.5525 71.1748 18.1269 71.1403 19.3982C71.08 21.6036 71.041 22.0514 70.7834 23.4847C70.5848 24.5884 70.0767 26.0925 69.5004 27.2822C69.2986 27.6983 69.1338 28.0552 69.1338 28.0753C69.1338 28.3209 67.2471 31.0545 67.0775 31.0545C67.0067 31.0545 66.9902 30.2409 66.9902 26.7336C66.9902 21.846 67.0361 22.1776 66.438 22.7492C65.1743 23.9562 65.3166 23.0607 65.3158 29.7984C65.3154 35.9424 65.2406 35.4195 66.0196 34.7222C67.1808 33.6823 69.1338 31.5094 69.1338 31.2566C69.1338 31.2221 69.1872 31.1397 69.252 31.0737C69.4228 30.9013 69.7998 30.3177 70.2387 29.5472C70.4485 29.1786 70.6475 28.8486 70.6809 28.8136C70.7142 28.7787 70.7415 28.7136 70.7415 28.6689C70.7415 28.6243 70.8436 28.3667 70.9686 28.0962C71.3895 27.185 71.4867 26.9378 71.8208 25.9297C72.2794 24.5454 72.2802 24.5418 72.3497 24.1419C72.3839 23.9461 72.4723 23.4996 72.5467 23.1495C72.8549 21.6913 72.9132 20.6776 72.916 16.7185L72.9189 13.0005L71.1101 12.9563C69.6812 12.9209 69.1462 12.8815 68.5642 12.7694C67.2692 12.5194 67.3632 12.5274 67.4191 12.6717ZM60.9676 13.3076C60.7357 13.4487 60.4985 13.6923 60.4945 13.7927C60.4929 13.8233 60.5737 13.7513 60.6734 13.6328C60.7734 13.5142 60.9768 13.3619 61.1255 13.2939C61.2747 13.2264 61.351 13.1705 61.296 13.1697C61.2405 13.1693 61.093 13.2312 60.9676 13.3076ZM62.4061 13.3337C63.0934 13.6766 63.2474 14.6376 62.675 15.013C62.5058 15.1236 62.4375 15.3117 62.5665 15.3117C62.6023 15.3117 62.7413 15.4218 62.8756 15.5561C63.0114 15.6923 63.087 15.7389 63.0456 15.6614C63.0046 15.5846 62.8796 15.4568 62.7675 15.3772L62.5645 15.2325L62.794 14.9781C63.366 14.3454 62.9512 13.1681 62.1565 13.1681C62.1107 13.1681 62.2232 13.2429 62.4061 13.3337ZM61.4543 13.8494C60.9286 14.1038 61.1585 14.9097 61.757 14.9097C62.2896 14.9097 62.5339 14.1308 62.0753 13.8948C61.9375 13.8241 61.9375 13.8265 62.083 13.9664C62.4158 14.2859 62.2112 14.843 61.761 14.843C61.0866 14.843 61.0343 13.9961 61.6995 13.8394C61.8788 13.7972 61.8941 13.7843 61.765 13.7823C61.673 13.7811 61.5331 13.8112 61.4543 13.8494ZM58.5459 14.0817C58.5089 14.179 58.4912 14.2711 58.5061 14.2863C58.5214 14.3012 58.566 14.222 58.605 14.1095C58.6922 13.8595 58.6395 13.835 58.5459 14.0817ZM60.3627 14.2457C60.3655 14.3346 60.3948 14.4676 60.4282 14.5416C60.4704 14.6348 60.4764 14.5942 60.4483 14.4073C60.4008 14.0962 60.3558 14.0114 60.3627 14.2457ZM58.3903 14.4768C58.367 14.5367 58.351 14.636 58.3542 14.6975C58.3574 14.759 58.3863 14.7204 58.4189 14.6119C58.482 14.4005 58.4599 14.2956 58.3903 14.4768ZM64.5473 14.509C64.5682 14.6014 64.6128 14.8277 64.6465 15.0114L64.7076 15.3454L64.6751 14.9511C64.657 14.7345 64.6124 14.5086 64.5758 14.4487C64.5247 14.3651 64.5183 14.3784 64.5473 14.509ZM60.4921 14.7703C60.4921 14.8028 60.5902 14.915 60.7099 15.0195L60.9274 15.2092L60.6802 15.4323C60.4595 15.6312 60.2296 16.0766 60.3072 16.1541C60.3233 16.1702 60.3723 16.0645 60.4157 15.919C60.4644 15.7574 60.5962 15.5681 60.7542 15.4327L61.0134 15.2108L60.7529 14.9612C60.6095 14.8237 60.4921 14.7377 60.4921 14.7703ZM58.2971 15.044C58.2971 15.1726 58.3108 15.2257 58.3276 15.1609C58.3445 15.0966 58.3445 14.9909 58.3276 14.9266C58.3108 14.8623 58.2971 14.915 58.2971 15.044ZM64.6236 15.8366C64.6011 16.0512 64.5645 16.2852 64.542 16.3555C64.5063 16.4689 64.5099 16.4709 64.5738 16.372C64.6489 16.2558 64.7575 15.4459 64.698 15.4459C64.6795 15.4459 64.6461 15.6216 64.6236 15.8366ZM58.2983 15.7474C58.2991 15.8945 58.3128 15.9471 58.3288 15.8635C58.3449 15.7803 58.3441 15.6598 58.3276 15.5958C58.3108 15.5315 58.2975 15.5999 58.2983 15.7474ZM61.3 15.743C61.1943 15.8555 61.1392 16.007 61.1239 16.2289C61.1018 16.5432 61.1026 16.5444 61.1521 16.2832C61.2192 15.9279 61.3394 15.7192 61.5182 15.6473C61.6139 15.6087 61.628 15.5866 61.5588 15.5842C61.501 15.5818 61.3844 15.6533 61.3 15.743ZM62.044 15.6823C62.2574 15.798 62.3941 16.1618 62.3394 16.4677C62.3048 16.6598 62.3093 16.6682 62.376 16.5388C62.5299 16.2398 62.2349 15.5737 61.9523 15.5826C61.9045 15.5838 61.9459 15.6288 62.044 15.6823ZM63.1381 16.3543C63.1381 16.6256 63.1586 16.796 63.1839 16.7329C63.2458 16.5766 63.2482 16.0332 63.1875 15.9383C63.1602 15.8957 63.1381 16.083 63.1381 16.3543ZM58.3493 16.1549C58.3502 16.2253 58.3811 16.3282 58.4185 16.3837C58.4679 16.4572 58.4743 16.4299 58.4414 16.2832C58.3863 16.0368 58.3481 15.9833 58.3493 16.1549ZM60.2988 16.5846C60.2955 16.6767 60.3225 16.7972 60.3582 16.8527C60.4406 16.9805 60.4406 16.8427 60.3582 16.5846L60.3044 16.417L60.2988 16.5846ZM58.5206 16.6517C58.5447 16.7438 58.5913 16.8479 58.6239 16.8829C58.7195 16.985 58.6902 16.8382 58.5776 16.6517L58.4768 16.4841L58.5206 16.6517ZM64.3053 16.8652C64.1489 17.2 63.585 17.8435 63.2385 18.0827C63.0938 18.1823 63.1019 18.1819 63.2968 18.0782C63.7116 17.8568 64.6317 16.6827 64.4962 16.5468C64.4801 16.5312 64.3941 16.6743 64.3053 16.8652ZM61.1621 16.6276C61.1621 16.702 61.4125 16.9866 61.4776 16.9866C61.501 16.9866 61.4471 16.9038 61.3579 16.8025C61.2686 16.7012 61.1878 16.6055 61.1786 16.5902C61.1694 16.575 61.1621 16.5919 61.1621 16.6276ZM62.1091 16.8547C62.0223 16.9271 61.8563 16.9906 61.7409 16.9958C61.5725 17.003 61.562 17.0107 61.6875 17.0348C61.8784 17.071 62.2108 16.9423 62.2602 16.8129C62.306 16.6939 62.3004 16.6956 62.1091 16.8547ZM58.7589 17.1188C58.951 17.5207 59.9816 18.3933 60.2642 18.3933C60.2959 18.3933 60.1315 18.2808 59.8992 18.1433C59.5049 17.9102 59.0769 17.5123 58.7983 17.1204L58.6793 16.9532L58.7589 17.1188ZM60.5078 17.1204C60.6123 17.2985 60.9981 17.5911 61.1215 17.5867C61.1621 17.5855 61.105 17.5372 60.9945 17.4797C60.884 17.4223 60.7071 17.2804 60.601 17.1642C60.4487 16.9966 60.4294 16.9878 60.5078 17.1204ZM6.46456 17.2221C6.16994 17.2703 5.76317 17.3571 5.56019 17.4146C5.35762 17.4721 5.11645 17.5404 5.02441 17.5662C4.6076 17.6839 3.37646 18.3656 2.93352 18.7241C2.43672 19.1261 1.60792 19.9505 1.60792 20.0425C1.60792 20.0702 1.54964 20.1551 1.47809 20.2314C1.29843 20.4223 0.693911 21.4839 0.610307 21.7548C0.572525 21.8774 0.482892 22.143 0.410945 22.3456C-0.351937 24.4984 0.158929 27.9571 1.44473 29.3446C1.52673 29.433 1.60471 29.5343 1.61757 29.5693C1.6863 29.7534 2.75787 30.7598 3.24944 31.1011C5.61486 32.745 9.85894 32.8005 11.9703 31.2144C12.0873 31.1264 12.2111 31.0545 12.2453 31.0545C12.4004 31.0545 14.0705 29.312 14.0656 29.1553C14.0632 29.0781 12.5395 27.9125 11.8546 27.4639C11.6536 27.3321 11.4265 27.1669 11.3505 27.0961C11.1427 26.9036 11.0342 26.9366 10.6998 27.2943C8.39829 29.7546 4.97015 28.8514 4.31338 25.6114C3.52075 21.6981 7.56427 19.3375 10.4715 22.0164L10.992 22.4959L11.3489 22.2367C11.9338 21.8118 12.6882 21.2371 12.7955 21.135C12.8506 21.0823 13.0162 20.9517 13.1637 20.844C14.1464 20.1277 14.1372 20.2057 13.3393 19.3793C13.0982 19.1293 12.8847 18.9026 12.8646 18.8753C12.7485 18.7157 11.8771 18.1482 11.3582 17.8945C9.96586 17.2133 8.08679 16.9552 6.46456 17.2221ZM109.194 17.1606C105.405 17.862 103.082 19.9963 102.433 23.3706C101.904 26.1222 103.206 29.5681 105.241 30.8044C105.37 30.8828 105.491 30.9652 105.509 30.9881C105.587 31.0838 106.383 31.5235 106.816 31.71C109.602 32.9106 113.009 32.497 115.294 30.681C116.231 29.9363 117.367 28.4881 117.367 28.0367C117.367 27.9684 117.406 27.8884 117.453 27.859C117.53 27.8112 117.904 26.734 117.995 26.2983C118.501 23.8633 117.715 21.1929 115.97 19.4171C115.457 18.8954 114.517 18.1924 114.333 18.1924C114.278 18.1924 114.199 18.1494 114.155 18.0967C113.686 17.532 110.468 16.9247 109.194 17.1606ZM78.546 17.321C76.0455 17.8905 74.6685 19.4135 74.5769 21.7114C74.4736 24.3063 75.7582 25.4442 79.9862 26.5033C82.3202 27.0877 82.8982 27.5387 82.4428 28.4197C81.8664 29.5343 78.3559 28.9853 76.5042 27.4909C76.1581 27.2119 76.095 27.2425 75.4868 27.984C75.1798 28.3586 74.7099 28.9185 74.4426 29.228C73.8731 29.888 73.851 30.0026 74.2388 30.2839C74.6408 30.5761 75.2477 30.9761 75.3639 31.0259C75.4189 31.0496 75.6601 31.169 75.8996 31.2908C78.6602 32.696 82.6751 32.6992 84.7761 31.2976C85.4011 30.8804 86.2834 29.8498 86.2834 29.5367C86.2834 29.4873 86.3079 29.4467 86.338 29.4467C86.5362 29.4467 86.7379 27.6058 86.6262 26.8172C86.5157 26.0394 85.7042 24.6234 85.3685 24.6234C85.3227 24.6234 85.2608 24.584 85.2315 24.5362C85.0944 24.3123 83.9851 23.7617 83.0678 23.4622C81.9802 23.1073 81.9299 23.0928 81.5939 23.0438C80.3375 22.8593 78.9652 22.2841 78.7627 21.8569C77.9837 20.2113 81.4958 20.1301 83.8717 21.7391C84.0373 21.8512 84.1913 21.9433 84.2134 21.9437C84.2528 21.9437 85.1141 20.8199 85.2447 20.5976C85.2817 20.5349 85.5152 20.1908 85.764 19.8335C86.0128 19.4758 86.2162 19.1478 86.2162 19.1044C86.2162 18.9207 84.5084 17.9375 83.8717 17.7551C83.7797 17.7285 83.674 17.6851 83.637 17.6578C83.0988 17.2631 79.7675 17.0428 78.546 17.321ZM152.536 17.3306C149.735 17.9753 148.157 20.184 148.643 22.7789C148.949 24.404 150.716 25.816 152.972 26.2352C153.403 26.3156 154.8 26.6886 155.407 26.8855C156.229 27.1524 156.724 27.6536 156.585 28.0801C156.456 28.4756 156.385 28.5821 156.151 28.7373C155.127 29.4149 152.267 28.8064 150.621 27.5612C150.433 27.4193 150.235 27.3031 150.181 27.3031C150.095 27.3031 149.522 27.8723 149.522 27.9571C149.522 27.9828 148.898 28.7332 148.785 28.8438C148.766 28.8623 148.666 28.9905 148.563 29.1284C148.46 29.2666 148.272 29.4925 148.145 29.6308C147.856 29.9455 147.853 29.9198 148.232 30.2329C148.864 30.7546 149.761 31.2675 150.611 31.5935C150.804 31.6674 151.022 31.755 151.096 31.788C151.17 31.8214 151.306 31.8619 151.398 31.8784C151.49 31.8949 151.866 31.9922 152.235 32.0943C153.61 32.4757 156.296 32.3744 157.628 31.8909C159.825 31.093 161.057 29.0813 160.676 26.9141C160.395 25.3103 159.61 24.4759 157.561 23.5981C157.269 23.4735 155.671 23.0157 155.527 23.0157C155.331 23.0157 153.65 22.5365 153.402 22.4103C152.558 21.9799 152.447 21.1933 153.169 20.77C153.886 20.35 155.879 20.5976 157.003 21.2463C157.157 21.3351 157.313 21.4079 157.35 21.4079C157.386 21.4079 157.602 21.5361 157.829 21.6925L158.242 21.9774L158.387 21.8062C158.554 21.6085 158.604 21.5397 159.233 20.6374C159.49 20.2692 159.821 19.8017 159.969 19.5992C160.33 19.104 160.322 19.0775 159.69 18.6578C157.778 17.3909 154.731 16.8254 152.536 17.3306ZM62.5757 17.4279C62.4503 17.5167 62.3716 17.5895 62.4001 17.5895C62.4644 17.5895 62.9037 17.3214 62.9037 17.2824C62.9037 17.2237 62.7952 17.2719 62.5757 17.4279ZM15.7216 17.4323C15.599 17.5545 15.6794 26.4502 15.8093 27.1689C16.1352 28.9688 16.5247 29.7875 17.5135 30.7506C19.8214 32.9986 25.293 32.9279 27.6416 30.62C29.2011 29.087 29.423 27.9366 29.394 21.5417L29.3751 17.4219H27.3321H25.289L25.2516 21.9437C25.2118 26.7786 25.2158 26.7187 24.8549 27.4338C24.0092 29.1091 21.1036 29.1637 20.2732 27.5198C19.8427 26.6673 19.8664 26.9679 19.8295 21.9774L19.7957 17.4219L17.7816 17.4042C16.6734 17.3945 15.7466 17.407 15.7216 17.4323ZM31.8627 17.5392C31.7562 17.9359 31.8181 32.044 31.9262 32.0858C31.9845 32.1079 34.6534 32.1264 37.8564 32.1264H43.681L43.7521 31.9419C43.8337 31.7297 43.808 28.8603 43.7232 28.7264C43.6814 28.6613 42.8272 28.6436 39.8115 28.6468C36.7037 28.6496 35.942 28.6336 35.8962 28.5628C35.8279 28.4579 35.8311 26.488 35.8994 26.3771C35.9348 26.32 36.8785 26.2947 39.4272 26.2822L42.9072 26.2645V24.6905V23.1161L39.4272 23.0989C36.7455 23.0856 35.9352 23.0623 35.8946 22.9984C35.8319 22.8999 35.823 21.4839 35.8829 21.1233L35.9243 20.8721H39.6949C41.7689 20.8721 43.5134 20.8536 43.5716 20.8315C43.681 20.7893 43.7364 17.9162 43.6355 17.5392L43.5949 17.3885H37.7491H31.9029L31.8627 17.5392ZM88.6769 17.4287C88.564 17.5416 88.6202 32.042 88.734 32.0858C88.8911 32.1461 92.5331 32.1329 92.6296 32.0718C92.6915 32.0324 92.7168 31.5086 92.7301 29.9793L92.7477 27.9394L94.4632 27.8932C97.8263 27.802 99.5948 26.9382 100.588 24.9008C101.03 23.9928 101.22 22.211 100.963 21.3721C100.93 21.2628 100.864 21.0377 100.816 20.8721C100.508 19.8025 99.2962 18.399 98.4754 18.1602C98.3833 18.1333 98.2443 18.0714 98.1667 18.0228C97.975 17.9018 97.2692 17.6707 96.7 17.5416C96.1972 17.4279 88.7822 17.3234 88.6769 17.4287ZM120.33 24.7408L120.348 32.0927L122.308 32.1107L124.269 32.1284L124.335 31.9556C124.372 31.8563 124.4 30.917 124.4 29.751C124.4 27.9603 124.413 27.7143 124.507 27.6786C125.213 27.4072 126.275 27.689 126.546 28.22C126.684 28.4909 128.348 30.9881 128.496 31.1473C128.565 31.2205 128.621 31.3101 128.621 31.3459C128.621 31.3816 128.742 31.5717 128.891 31.7687L129.161 32.1264H131.436C133.56 32.1264 133.712 32.1184 133.71 32.0091C133.708 31.8865 132.299 29.8137 132.005 29.5014C131.912 29.4021 131.836 29.2859 131.836 29.2429C131.836 29.1999 131.738 29.0411 131.619 28.8904C131.499 28.7393 131.295 28.4443 131.166 28.2344C131.037 28.0246 130.815 27.685 130.673 27.4796C130.373 27.0471 130.385 26.9607 130.775 26.7617C131.802 26.238 132.771 25.1644 133.039 24.2548C133.965 21.1149 132.665 18.524 129.76 17.7189C128.694 17.4239 128.134 17.3909 124.116 17.3897L120.314 17.3885L120.33 24.7408ZM134.624 17.4942C134.523 17.7575 134.58 20.7925 134.688 20.9006C134.779 20.9919 135.074 21.006 136.899 21.006H139.004V26.5314V32.0569L139.155 32.0935C139.238 32.114 140.15 32.122 141.181 32.1116L143.057 32.0927L143.074 26.5495L143.091 21.006H145.227C146.955 21.006 147.376 20.9883 147.438 20.9139C147.492 20.8492 147.509 20.3198 147.496 19.1221L147.479 17.4219L141.071 17.405C135.273 17.3893 134.661 17.3977 134.624 17.4942ZM61.5805 17.7044C61.6818 17.7197 61.8478 17.7197 61.9491 17.7044C62.0504 17.6892 61.9676 17.6767 61.765 17.6767C61.5621 17.6767 61.4792 17.6892 61.5805 17.7044ZM60.4314 18.4601C60.4905 18.4942 60.6714 18.5384 60.8333 18.5581C61.1127 18.5923 61.1087 18.5887 60.7602 18.4966C60.3245 18.3813 60.2903 18.3773 60.4314 18.4601ZM62.2003 18.5011L61.8655 18.5927L62.1605 18.5577C62.3225 18.538 62.5034 18.4942 62.5625 18.4601C62.702 18.3785 62.6103 18.3885 62.2003 18.5011ZM95.126 20.8705C96.6389 21.0815 97.3865 22.2918 96.8025 23.5852C96.4106 24.453 95.9335 24.6451 94.1545 24.652L92.7477 24.6568L92.7289 22.8818C92.7184 21.9051 92.726 21.0417 92.7453 20.9621C92.7867 20.7921 94.1799 20.7383 95.126 20.8705ZM111.249 20.932C114.569 21.9417 114.937 26.8602 111.807 28.3888C108.514 29.9961 105.237 26.1797 106.966 22.7508C107.145 22.3959 108.007 21.4079 108.137 21.4079C108.173 21.4079 108.295 21.3412 108.409 21.26C109.02 20.8251 110.38 20.6679 111.249 20.932ZM128.176 21.1285C129.61 21.7765 129.626 23.6708 128.202 24.2408C127.798 24.4028 127.714 24.4104 126.108 24.4309L124.434 24.4522L124.4 22.8798C124.382 22.0148 124.378 21.2214 124.392 21.1169L124.418 20.926L126.134 20.9537C127.725 20.9794 127.874 20.9919 128.176 21.1285ZM111.362 35.2137C109.8 35.4163 108.965 37.1776 109.763 38.5908C110.57 40.0213 112.896 40.0627 113.717 38.6612C114.749 36.9011 113.414 34.9476 111.362 35.2137ZM75.1569 35.6563C75.0463 35.903 74.9145 36.1973 74.8642 36.3094C74.814 36.422 74.6645 36.7503 74.5322 37.0393C74.4 37.3279 74.2919 37.5759 74.2919 37.59C74.2919 37.6173 74.0262 38.2178 73.8172 38.6624C73.7468 38.8119 73.689 38.9678 73.689 39.0084C73.689 39.049 73.6616 39.092 73.6279 39.1045C73.5941 39.1166 73.5451 39.2416 73.519 39.3818L73.4719 39.6367L73.8317 39.6162L74.1914 39.5957L74.4414 39.0748L74.6914 38.5538L75.7123 38.5723L76.7333 38.5908L76.9925 39.1101L77.2518 39.629H77.5765C78.0657 39.629 78.0621 39.6041 77.374 38.1218C77.1629 37.6676 77.0733 37.4666 76.6573 36.5164C76.4953 36.1466 76.3004 35.7009 76.2236 35.526L76.0841 35.2077H75.7212H75.3582L75.1569 35.6563ZM79.3499 35.3307C78.5573 35.7077 78.3358 36.8142 78.9548 37.3026C79.2201 37.5116 79.5392 37.6451 80.1047 37.7833C80.7076 37.9308 81.0167 38.1266 81.0461 38.3794C81.122 39.0334 80.0738 39.211 79.2434 38.6849C78.8684 38.4473 78.8784 38.4477 78.6786 38.6744C78.4692 38.9124 78.4721 39.0084 78.6935 39.1841C79.5685 39.8786 81.1474 39.8308 81.6341 39.0953C82.2197 38.2098 81.8033 37.477 80.5063 37.1125C79.3816 36.7966 79.134 36.5188 79.579 36.0735C79.8395 35.8134 80.3001 35.803 80.8298 36.0453C81.2981 36.2596 81.3528 36.2564 81.5332 36.0027C81.9283 35.4481 80.2125 34.9199 79.3499 35.3307ZM83.3488 35.3504C82.7804 35.6338 82.4862 36.3006 82.692 36.8396C82.8809 37.3336 83.2431 37.5711 84.1394 37.7877C84.9698 37.9883 85.2886 38.2942 85.0486 38.66C84.7564 39.1065 84.0498 39.1137 83.272 38.6784L82.9071 38.4743L82.7194 38.6845C82.4697 38.9638 82.481 39.0305 82.8166 39.248C83.8995 39.951 85.428 39.7802 85.789 38.916C86.0016 38.4071 85.8083 37.635 85.4264 37.4674C85.3267 37.4236 85.2295 37.3669 85.211 37.3416C85.1921 37.3163 84.8617 37.2017 84.4762 37.0872C83.4288 36.7761 83.2451 36.5839 83.5397 36.1072C83.7431 35.778 84.354 35.77 84.9521 36.0887C85.1696 36.2045 85.3565 36.2877 85.3677 36.2728C85.3786 36.2584 85.4533 36.1591 85.5337 36.053C85.764 35.7495 85.7243 35.647 85.295 35.436C84.7612 35.1731 83.7897 35.1305 83.3488 35.3504ZM88.0712 35.3363C87.1186 35.7194 86.494 36.7994 86.6865 37.7307C86.7231 37.9091 86.7717 38.1455 86.7946 38.256C86.988 39.199 88.5716 39.9606 89.6395 39.6246C91.6199 39.0012 91.8727 36.3247 90.0387 35.3998C89.6066 35.182 88.5406 35.1474 88.0712 35.3363ZM93.5183 35.2957C93.3892 35.3363 93.2534 35.3938 93.2168 35.4235C93.1798 35.4533 93.0291 35.5698 92.8816 35.6828C91.2027 36.9698 92.1923 39.6877 94.343 39.695C94.923 39.697 96.0638 39.2195 96.0638 38.9747C96.0638 38.5755 95.6313 38.4594 95.1811 38.7375C93.9616 39.4904 92.5319 38.3826 92.9266 36.9907C93.2072 36.0015 94.2828 35.5714 95.1288 36.1105C95.5726 36.393 95.5911 36.3942 95.8166 36.1587C96.3925 35.5578 94.6996 34.9223 93.5183 35.2957ZM97.1522 35.2768L97.0015 35.3375V37.3774C97.0015 39.7488 96.9802 39.629 97.4066 39.629H97.7302L97.7756 39.3272C97.8673 38.7162 97.7796 35.3419 97.6703 35.2728C97.5481 35.1952 97.3512 35.1968 97.1522 35.2768ZM100.484 35.3781C100.449 35.4722 100.401 35.6229 100.378 35.7133C100.355 35.8038 100.31 35.8777 100.277 35.8777C100.244 35.8777 100.217 35.9071 100.217 35.9428C100.217 36.014 99.9389 36.67 99.7805 36.9718C99.7258 37.0759 99.6812 37.2134 99.6812 37.2765C99.6812 37.34 99.6479 37.4252 99.6068 37.4662C99.5257 37.547 98.8331 39.0784 98.7419 39.3778C98.6776 39.5892 98.811 39.6564 99.2198 39.6174C99.4336 39.5969 99.4577 39.5675 99.6358 39.1178C99.8593 38.5538 99.8456 38.5591 101.102 38.5583C101.988 38.5571 101.93 38.5269 102.245 39.1604L102.461 39.5957L102.813 39.6158C103.221 39.6395 103.246 39.5856 103.038 39.1342C102.902 38.838 102.662 38.2918 102.061 36.9159C101.852 36.4372 101.593 35.8568 101.486 35.6265L101.292 35.2077H100.92C100.584 35.2077 100.543 35.2238 100.484 35.3781ZM103.223 35.2909C103.114 35.3315 103.094 35.391 103.111 35.6257L103.131 35.9111L103.817 35.9304L104.502 35.9493L104.52 37.7725L104.538 39.5957H104.906H105.275L105.293 37.7725L105.31 35.9493L105.996 35.9304L106.682 35.9111L106.702 35.5932C106.719 35.3243 106.704 35.2744 106.601 35.2724C105.129 35.2431 103.326 35.2527 103.223 35.2909ZM107.836 35.2563L107.651 35.2841L107.669 37.4397L107.687 39.5957H108.021H108.356L108.374 37.4352C108.389 35.5968 108.378 35.2748 108.296 35.2748C108.243 35.2748 108.16 35.2644 108.111 35.2515C108.062 35.239 107.938 35.2411 107.836 35.2563ZM115.205 35.2563L115.02 35.2841L115.038 37.4397L115.055 39.5957L115.407 39.6158L115.759 39.6363V38.1274C115.759 36.3335 115.679 36.3729 116.697 37.6648C117.12 38.2029 117.644 38.8666 117.861 39.1395L118.254 39.6359L118.564 39.6158L118.874 39.5957L118.892 37.4429L118.909 35.2901L118.671 35.2455C118.178 35.153 118.171 35.1687 118.168 36.2338C118.164 38.1547 118.142 38.2584 117.825 37.8874C117.714 37.7584 117.566 37.5884 117.495 37.5096C117.424 37.4308 117.367 37.3464 117.367 37.3219C117.367 37.2737 116.666 36.3729 116.106 35.7017C115.911 35.4669 115.709 35.2748 115.66 35.2748C115.61 35.2748 115.528 35.2644 115.479 35.2515C115.43 35.239 115.307 35.2411 115.205 35.2563ZM123.185 35.3323C122.826 35.4766 122.292 35.9014 122.16 36.1458C122.111 36.2379 122.007 36.4324 121.929 36.5787C121.76 36.8958 121.737 37.7608 121.886 38.1796C122.742 40.582 126.378 39.9651 126.372 37.4184C126.369 35.8118 124.702 34.7205 123.185 35.3323ZM127.439 35.309C127.425 35.346 127.421 36.3259 127.431 37.4863L127.448 39.5957L127.738 39.6166C128.191 39.6491 128.219 39.5945 128.219 38.6833C128.219 38.0948 128.241 37.8858 128.303 37.881C128.349 37.8774 128.447 37.8677 128.52 37.8597C128.594 37.8517 129.055 37.8396 129.546 37.8328L130.437 37.8203L130.416 37.5024L130.396 37.184L129.324 37.1507L128.252 37.1169L128.233 36.5309L128.214 35.9449L129.305 35.9436C130.698 35.9424 130.698 35.9428 130.698 35.5686C130.698 35.3793 130.668 35.274 130.614 35.2724C129.32 35.2342 127.459 35.2555 127.439 35.309ZM133.521 35.2684C133.463 35.305 133.447 35.8693 133.46 37.4565L133.477 39.5957H133.846H134.215L134.233 38.1386C134.242 37.3372 134.275 36.6816 134.304 36.6816C134.386 36.6816 134.635 36.9742 135.387 37.9546C136.598 39.533 136.693 39.629 137.031 39.629H137.321L137.363 39.3445C137.419 38.9694 137.377 35.3665 137.316 35.3058C137.234 35.2246 136.709 35.2628 136.648 35.3544C136.616 35.4026 136.594 35.9396 136.598 36.5478C136.608 37.9903 136.604 38.0884 136.531 38.0884C136.463 38.0884 136.118 37.674 135.186 36.4718C134.271 35.2917 134.265 35.2861 133.908 35.2503C133.738 35.2334 133.565 35.2419 133.521 35.2684ZM138.719 35.2511C138.609 35.2829 138.602 35.43 138.618 37.4405L138.636 39.5957L138.988 39.6158C139.332 39.6359 139.339 39.6322 139.343 39.4486C139.355 38.8071 139.328 35.3086 139.31 35.2909C139.267 35.2475 138.834 35.2185 138.719 35.2511ZM141.841 35.3038C139.857 35.9244 139.886 39.0032 141.88 39.5892C142.592 39.7987 143.545 39.6604 144.184 39.2556L144.493 39.0599L144.495 38.1427L144.497 37.2258L144.213 37.1844C144.056 37.1615 143.642 37.1519 143.292 37.1635L142.655 37.184L142.635 37.4963C142.612 37.8484 142.706 37.9031 143.258 37.8573C143.666 37.8235 143.761 37.9035 143.761 38.2813C143.761 39.2986 141.803 39.2275 141.335 38.1933C140.976 37.3975 141.206 36.5341 141.894 36.1004C142.384 35.7917 142.884 35.7869 143.45 36.0847L143.842 36.2917L144.069 36.0715C144.35 35.7998 144.351 35.7479 144.078 35.5626C143.567 35.2145 142.516 35.0927 141.841 35.3038ZM145.562 35.2792C145.526 35.3017 145.508 36.2089 145.518 37.4565L145.536 39.5957H147.177H148.818L148.839 39.2789L148.859 38.9622L147.599 38.9441L146.34 38.9256V38.3565V37.7869L147.422 37.7685C148.604 37.7484 148.584 37.7564 148.533 37.3348L148.502 37.0835H147.404H146.306V36.514C146.306 35.9702 146.313 35.9444 146.457 35.9388C146.54 35.9356 146.949 35.9376 147.367 35.9428C148.765 35.9609 149.085 35.8271 148.789 35.3484C148.738 35.2656 145.69 35.2001 145.562 35.2792ZM149.922 35.2756C149.879 35.3026 149.861 36.067 149.873 37.4565L149.89 39.5957L150.24 39.6158C150.655 39.6399 150.652 39.6455 150.677 38.7247L150.694 38.1218L151.124 38.1017C151.617 38.0783 151.587 38.055 152.21 38.9594C152.65 39.5989 152.691 39.629 153.115 39.629C153.587 39.629 153.592 39.5912 153.187 39.0293C152.995 38.762 152.808 38.4952 152.771 38.4361C152.734 38.377 152.666 38.2874 152.62 38.2371C152.487 38.0924 152.521 37.9059 152.687 37.8625C153.734 37.588 153.701 35.7604 152.641 35.3797C152.359 35.2784 150.06 35.1904 149.922 35.2756ZM154.714 35.2567C154.488 35.313 154.481 35.3805 154.48 37.3637C154.479 39.59 154.486 39.629 154.906 39.629C155.3 39.629 155.283 39.7327 155.283 37.3532C155.283 35.0216 155.306 35.1088 154.714 35.2567ZM157.804 35.69C157.42 36.5148 157.091 37.2548 157.091 37.2966C157.091 37.3183 156.956 37.6246 156.79 37.9771C156.624 38.3296 156.489 38.6334 156.489 38.6527C156.489 38.6716 156.413 38.8521 156.321 39.0535C156.073 39.5973 156.086 39.6399 156.504 39.6158L156.855 39.5957L157.041 39.1937C157.144 38.9727 157.253 38.7468 157.284 38.6913C157.331 38.6089 157.525 38.5908 158.372 38.5908H159.403L159.652 39.1101L159.901 39.629H160.238C160.608 39.629 160.7 39.4385 160.483 39.125C160.433 39.0522 160.369 38.9176 160.34 38.8252C160.312 38.7331 160.185 38.4317 160.059 38.1555C159.932 37.879 159.79 37.5627 159.743 37.4521C159.475 36.8267 159.126 36.0578 158.937 35.6768L158.722 35.2415L158.377 35.221L158.033 35.2009L157.804 35.69ZM89.7995 36.1482C90.7589 36.8372 90.6364 38.416 89.5889 38.8605C88.5222 39.3131 87.4253 38.5072 87.5008 37.3259C87.578 36.1109 88.8445 35.4621 89.7995 36.1482ZM112.305 35.9722C113.298 36.387 113.568 37.7906 112.803 38.5559C112.076 39.2822 110.851 39.0535 110.42 38.1113C109.839 36.8428 111.064 35.4537 112.305 35.9722ZM124.703 36.0184C125.788 36.5904 125.906 38.0775 124.918 38.7375C123.244 39.8565 121.646 37.3448 123.262 36.1342C123.657 35.8375 124.267 35.7885 124.703 36.0184ZM152.222 36.02C152.544 36.186 152.67 36.3617 152.67 36.645C152.67 37.2182 152.322 37.4184 151.322 37.4184H150.66V36.6816V35.9449H151.368C151.761 35.9449 152.141 35.9782 152.222 36.02ZM75.8197 36.4304C76.5279 37.8283 76.523 37.8874 75.6987 37.8874C74.9225 37.8874 74.9414 37.9132 75.2228 37.2435C75.6806 36.1531 75.6798 36.1547 75.8197 36.4304ZM101.153 36.6314C101.234 36.8247 101.376 37.1442 101.467 37.3408C101.707 37.8573 101.678 37.8874 100.926 37.8874C100.182 37.8874 100.16 37.8673 100.377 37.4035C100.468 37.209 100.618 36.8765 100.711 36.6647C100.918 36.1912 100.966 36.1876 101.153 36.6314ZM158.775 37.0421C158.954 37.4401 159.101 37.793 159.101 37.8263C159.101 37.891 157.743 37.914 157.68 37.8504C157.659 37.8299 157.747 37.5663 157.875 37.2644C158.003 36.9622 158.15 36.6145 158.202 36.4915C158.338 36.1667 158.412 36.2375 158.775 37.0421Z" fill="white"/>
<path fill-rule="evenodd" clip-rule="evenodd" d="M59.8381 0.706787C59.6869 0.89811 59.6861 0.909767 59.7038 2.89696L59.7215 4.895L59.9832 4.9163C60.127 4.92796 60.3156 4.91992 60.402 4.89821L60.5591 4.85882V2.90459C60.5591 0.988547 60.5559 0.946343 60.4084 0.729296C60.2227 0.456781 60.0406 0.449546 59.8381 0.706787ZM59.9747 5.6832C59.8453 6.02686 59.836 6.0349 59.4976 6.09599C59.1254 6.16352 59.0539 6.27848 59.3031 6.40991C59.5278 6.52808 59.5543 6.60284 59.5097 6.9883C59.463 7.38984 59.4679 7.39305 59.8256 7.18927L60.0901 7.03854L60.3545 7.18927C60.7693 7.42561 60.8542 7.30262 60.648 6.76482C60.6263 6.70775 60.7095 6.57832 60.8534 6.44649C61.1287 6.19407 61.1106 6.13418 60.7569 6.13418C60.4667 6.13418 60.398 6.06705 60.2959 5.68481C60.1889 5.28448 60.1254 5.28448 59.9747 5.6832ZM56.3528 6.28089C56.3082 6.3255 56.2716 6.44568 56.2716 6.54818C56.2716 6.7395 56.2769 6.73669 55.7523 6.8432C55.5558 6.88299 55.5618 6.98991 55.7744 7.21138C55.932 7.37577 55.9408 7.41436 55.8761 7.64869C55.7817 7.99114 55.8713 8.08318 56.1458 7.92562C56.3922 7.78454 56.596 7.77972 56.7701 7.91156C56.9787 8.06912 57.1668 8.04058 57.1153 7.8593C56.9871 7.40913 56.9915 7.35366 57.1688 7.19972C57.3983 7.00036 57.3931 6.87093 57.1555 6.87093C56.9039 6.87093 56.7363 6.73789 56.6467 6.46779C56.5643 6.21818 56.4734 6.1603 56.3528 6.28089ZM63.6091 6.553L63.4298 6.93806H63.066C62.6408 6.93806 62.6147 6.99594 62.9418 7.21419C63.1802 7.37296 63.181 7.37456 63.1396 7.75882C63.0922 8.19774 63.1287 8.22266 63.4889 7.99998L63.722 7.85609L64.0327 8.01526C64.2039 8.10288 64.3667 8.18487 64.394 8.19814C64.4704 8.23431 64.4543 7.95697 64.3776 7.90955C64.2188 7.81147 64.3044 7.36974 64.5114 7.2166C64.7895 7.01081 64.763 6.93806 64.4097 6.93806C64.0857 6.93806 64.103 6.95695 63.8554 6.33515C63.7911 6.17397 63.7815 6.18241 63.6091 6.553ZM59.7327 8.05465C59.6499 8.13745 59.6821 9.7858 59.7685 9.87222C59.8573 9.96105 60.3453 9.97994 60.4723 9.89915C60.5893 9.82479 60.6078 8.24999 60.4936 8.11212C60.4076 8.00842 59.8232 7.96421 59.7327 8.05465ZM52.6526 9.05266C52.6164 9.14712 52.5871 9.26167 52.5871 9.30709C52.5871 9.46626 52.4239 9.55067 52.116 9.55067C51.6871 9.55067 51.6682 9.60613 51.9986 9.89071C52.28 10.1331 52.2836 10.1415 52.2016 10.3678C52.124 10.5824 52.0911 10.8236 52.1393 10.8236C52.1506 10.8236 52.2848 10.7633 52.4375 10.6894C52.7683 10.5294 52.8552 10.5242 53.0264 10.654C53.3624 10.908 53.5517 10.7304 53.3536 10.3469C53.2507 10.1475 53.2523 10.1423 53.5039 9.91201C53.7953 9.64512 53.745 9.55348 53.3073 9.55187C53.1325 9.55107 53.0561 9.52092 53.0561 9.45299C53.0561 9.32357 52.8359 8.88465 52.7699 8.88224C52.7414 8.88144 52.6884 8.95821 52.6526 9.05266ZM67.2816 8.99237C67.0866 9.54383 67.0806 9.55067 66.7631 9.55067C66.3688 9.55067 66.3113 9.65999 66.587 9.88468C66.8025 10.0607 66.8061 10.0728 66.7599 10.4442C66.708 10.8602 66.745 10.8968 67.0083 10.6894C67.2261 10.5181 67.3917 10.5205 67.694 10.6986C68.0035 10.8811 68.1204 10.7959 67.9673 10.4996C67.815 10.205 67.8322 10.1258 68.0987 9.89151C68.3853 9.6399 68.3507 9.55067 67.9657 9.55067C67.6329 9.55067 67.5456 9.4739 67.5147 9.15355C67.4902 8.89912 67.3491 8.80185 67.2816 8.99237ZM50.9914 17.9395C50.948 17.9826 50.9126 18.0533 50.9126 18.0963C50.9126 18.3045 50.6332 18.5272 50.3716 18.5272C50.054 18.5272 50.0444 18.5867 50.3165 18.8592C50.5299 19.0722 50.5472 19.2189 50.4094 19.6494C50.3446 19.8504 50.4612 19.8447 50.7389 19.6325C51.0231 19.4159 51.2964 19.4472 51.4685 19.7165C51.6493 19.9991 51.749 19.7885 51.6397 19.3548C51.5669 19.065 51.5718 19.0433 51.7438 18.8837C51.9661 18.6779 51.9395 18.5674 51.6618 18.54C51.4431 18.5183 51.2474 18.3194 51.2474 18.1188C51.2474 17.9528 51.0886 17.8419 50.9914 17.9395ZM68.8491 18.0754C68.7929 18.1614 68.7358 18.2904 68.7225 18.3628C68.7036 18.4629 68.6144 18.5087 68.3463 18.5561C67.9315 18.6301 67.9267 18.6446 68.2213 18.9126C68.4428 19.1144 68.4464 19.1257 68.3777 19.4259C68.2884 19.8158 68.3363 19.8588 68.6578 19.6779C68.9745 19.4999 69.0533 19.4987 69.2676 19.6663C69.5787 19.9095 69.743 19.8363 69.569 19.532C69.4179 19.2672 69.448 19.0827 69.6695 18.9187C69.9255 18.7294 69.9292 18.5943 69.6787 18.5943C69.4275 18.5943 69.1478 18.3692 69.1213 18.1457C69.0935 17.9118 68.9762 17.8817 68.8491 18.0754ZM56.2881 30.6252L56.305 36.3745L56.7069 36.6635C57.2142 37.0277 57.7311 37.3014 57.8151 37.2495C57.8553 37.2246 57.8794 35.0228 57.8794 31.3241V25.4385L57.5611 25.3276C57.3862 25.2665 57.0924 25.1552 56.9079 25.0804C56.7238 25.0052 56.5052 24.9285 56.422 24.9096L56.2708 24.8754L56.2881 30.6252ZM63.1484 25.1298C62.8594 25.2565 62.5817 25.3602 62.531 25.3602C62.3104 25.3602 62.3007 25.611 62.3007 31.4206C62.3007 38.0261 62.2396 37.4742 62.9221 37.0265C63.7931 36.4553 63.7546 36.5015 63.7996 35.979C63.8912 34.9127 63.8599 24.9257 63.7646 24.912C63.7148 24.9048 63.4374 25.0028 63.1484 25.1298ZM59.281 25.6013C59.1347 25.7774 59.2372 39.9104 59.3863 40.1061C59.6986 40.5173 59.9361 40.5663 60.324 40.2995C60.7814 39.9847 60.7605 40.3702 60.7424 32.6622L60.7263 25.6616L60.0354 25.5933C59.5253 25.5426 59.3276 25.5446 59.281 25.6013Z" fill="white"/>
<path fill-rule="evenodd" clip-rule="evenodd" d="M60.8267 12.304C59.4404 12.5745 58.3335 13.9391 58.3327 15.3788C58.3307 18.2157 61.7263 19.6446 63.7255 17.6482C65.9402 15.4375 63.9136 11.7011 60.8267 12.304ZM62.5547 13.3269C63.1471 13.6372 63.2673 14.4544 62.797 14.9749L62.5643 15.2325L62.7689 15.3784C63.7211 16.0565 63.1528 17.5879 61.9043 17.7077C60.5329 17.8395 59.7122 16.2739 60.7001 15.411L60.928 15.212L60.719 15.0283C59.6257 14.0685 61.1949 12.6143 62.5547 13.3269ZM61.3931 14.0026C61.0466 14.3491 61.2624 14.843 61.7608 14.843C62.0727 14.843 62.2335 14.6674 62.2335 14.3282C62.2335 13.8808 61.7154 13.6802 61.3931 14.0026ZM61.5169 15.6477C61.1543 15.7936 61.0502 16.442 61.3352 16.7804C61.6547 17.1598 62.2359 16.985 62.3304 16.4813C62.4409 15.8913 62.0096 15.4492 61.5169 15.6477Z" fill="white"/>
<path fill-rule="evenodd" clip-rule="evenodd" d="M59.7125 0.691134C59.5987 0.859145 59.5855 1.05529 59.5666 2.9018L59.5457 4.92838L59.7338 5.00073C59.995 5.10041 60.6024 5.01922 60.6566 4.87734C60.7085 4.74228 60.7025 2.08265 60.6486 1.33826C60.6108 0.820157 60.4428 0.399728 60.3214 0.521114C60.2961 0.546436 60.3395 0.648126 60.4171 0.747004C60.5541 0.921044 60.559 0.992991 60.559 2.89296V4.85885L60.4018 4.89824C60.3154 4.91994 60.1269 4.92798 59.983 4.91632L59.7213 4.89502L59.7036 2.8797C59.6868 0.933102 59.6908 0.860351 59.821 0.742582C59.9625 0.614364 59.9971 0.507046 59.8966 0.507046C59.864 0.507046 59.7812 0.589845 59.7125 0.691134ZM60.0364 5.26682C59.9922 5.33756 59.9561 5.44246 59.9561 5.50034C59.9561 5.81144 59.7599 6.00036 59.4351 6.00116C58.8785 6.00317 58.7985 6.21017 59.251 6.47706C59.4002 6.56508 59.487 6.66757 59.487 6.7548C59.487 6.83116 59.5059 6.87457 59.5284 6.85207C59.6148 6.76565 59.4834 6.48911 59.321 6.41516C59.0473 6.29015 59.1164 6.16515 59.4974 6.09602C59.8359 6.03492 59.8451 6.02688 59.9745 5.68323C60.1253 5.2845 60.1888 5.2845 60.2957 5.68483C60.3978 6.06708 60.4665 6.1342 60.7567 6.1342C61.1104 6.1342 61.1285 6.19409 60.8532 6.44651C60.7093 6.57834 60.6261 6.70777 60.6478 6.76484C60.854 7.30264 60.7692 7.42563 60.3544 7.18929L60.0899 7.03857L59.8254 7.18929C59.493 7.37861 59.4882 7.3782 59.4814 7.15593C59.4761 6.97225 59.4757 6.97265 59.3769 7.19854C59.2281 7.54019 59.3463 7.5852 59.7466 7.33881L60.0911 7.12699L60.4669 7.33922C60.9243 7.59726 61.0304 7.54541 60.8693 7.14227C60.7097 6.74314 60.7302 6.64949 61.0292 6.40913C61.3568 6.14546 61.3347 6.09602 60.8632 6.03693L60.4959 5.99111L60.35 5.59158C60.1811 5.12895 60.1458 5.09197 60.0364 5.26682ZM56.3756 6.08195C56.2401 6.27568 56.2421 6.37617 56.3792 6.26202C56.5022 6.16033 56.6734 6.32512 56.6734 6.54498C56.6734 6.70094 56.9258 6.87096 57.1573 6.87096C57.3929 6.87096 57.3973 7.00118 57.1686 7.19974C56.9913 7.35369 56.9869 7.40915 57.1151 7.85933C57.1666 8.0406 56.9785 8.06914 56.7699 7.91158C56.5958 7.77974 56.3921 7.78457 56.1457 7.92565C55.8711 8.08321 55.7815 7.99116 55.876 7.64871C55.9407 7.41438 55.9318 7.37579 55.7743 7.2114C55.5532 6.98069 55.556 6.88342 55.7859 6.83478C55.8872 6.81308 56.0379 6.78213 56.1207 6.76525C56.2035 6.74836 56.2715 6.68526 56.2715 6.62497C56.2715 6.52408 56.2618 6.52408 56.1489 6.62618C56.0685 6.69893 55.9085 6.73711 55.6838 6.73711C55.2562 6.73711 55.1983 6.82232 55.4708 7.05143C55.8305 7.35409 55.8792 7.4196 55.8309 7.53295C55.5508 8.19053 55.6304 8.34165 56.1151 8.07276L56.5058 7.85651L56.8643 8.07718C57.3061 8.34889 57.3929 8.27614 57.2084 7.7906C57.0593 7.3975 57.0729 7.34967 57.4118 7.09926C57.7868 6.82192 57.7498 6.78374 57.0432 6.72144C56.886 6.70737 56.8306 6.66074 56.7827 6.50278C56.5962 5.88218 56.5496 5.83395 56.3756 6.08195ZM63.5956 6.31829C63.5377 6.45656 63.4662 6.63341 63.4365 6.71139C63.3906 6.83237 63.3263 6.85408 63.0011 6.85689C62.483 6.86131 62.4388 6.93728 62.8018 7.19814C63.1414 7.44171 63.1398 7.43608 63.0056 7.93971C62.8814 8.40717 62.9035 8.42124 63.3689 8.16761L63.7556 7.9566L64.1105 8.15073C64.5478 8.38989 64.5788 8.39069 64.5768 8.16078C64.5751 7.95459 64.3143 7.55546 64.3119 7.75482C64.3111 7.81712 64.3404 7.88666 64.3774 7.90957C64.4542 7.957 64.4702 8.23434 64.3939 8.19816C64.3665 8.1849 64.2038 8.1029 64.0325 8.01528L63.7218 7.85611L63.4887 8.00001C63.1286 8.22268 63.092 8.19776 63.1394 7.75884C63.1808 7.37459 63.18 7.37298 62.9417 7.21421C62.6145 6.99596 62.6406 6.93808 63.0659 6.93808H63.4296L63.6089 6.55302C63.7813 6.18243 63.791 6.17399 63.8553 6.33517C64.1029 6.95697 64.0856 6.93808 64.4095 6.93808C64.7628 6.93808 64.7894 7.01083 64.5112 7.21663C64.4007 7.29822 64.3103 7.39227 64.3103 7.42523C64.3103 7.45819 64.4385 7.38665 64.5948 7.26566C64.7516 7.14508 64.8939 7.03535 64.9112 7.02209C64.992 6.96019 64.715 6.87297 64.4353 6.87216L64.125 6.87096L64 6.46982C63.8553 6.00598 63.7435 5.96418 63.5956 6.31829ZM59.6345 8.02332C59.5798 8.07758 59.5541 8.38788 59.5541 8.98114C59.5541 9.5744 59.5798 9.8847 59.6345 9.93936C59.7442 10.0491 60.5216 10.0447 60.6136 9.93374C60.7 9.82963 60.7061 8.32156 60.6209 8.09808C60.5537 7.92082 59.7941 7.86375 59.6345 8.02332ZM60.4934 8.11215C60.6076 8.25001 60.5891 9.82481 60.4721 9.89917C60.3451 9.97996 59.8572 9.96107 59.7683 9.87224C59.6819 9.78582 59.6498 8.13747 59.7326 8.05467C59.823 7.96423 60.4074 8.00845 60.4934 8.11215ZM52.6295 8.90357C52.578 9.02616 52.5145 9.19417 52.4888 9.27616C52.4627 9.35816 52.3763 9.45181 52.2963 9.48397L52.1516 9.54225L52.2983 9.54627C52.4655 9.55109 52.5254 9.47834 52.6211 9.15397C52.7107 8.85131 52.8011 8.83323 52.9177 9.0961C53.0467 9.3883 53.0889 9.22351 52.9623 8.92045C52.8373 8.621 52.7493 8.61618 52.6295 8.90357ZM67.1439 9.0756C66.9699 9.47955 66.9651 9.48357 66.6942 9.48477C66.0587 9.48678 65.9892 9.58887 66.4204 9.8855C66.7484 10.111 66.7762 10.2079 66.6214 10.5789C66.566 10.7111 66.5209 10.8502 66.5209 10.8883C66.5209 10.9908 66.8272 10.9723 66.9168 10.8642C67.121 10.6182 67.3594 10.6022 67.697 10.812C68.1866 11.117 68.2967 11.0194 68.0584 10.4936L67.9237 10.1974L68.1399 9.97474C68.2589 9.85214 68.3952 9.75166 68.4434 9.75166C68.4912 9.75166 68.5306 9.70624 68.5306 9.65117C68.5306 9.5945 68.4707 9.55069 68.3928 9.55069C68.3168 9.55069 68.273 9.58043 68.2955 9.61661C68.318 9.65318 68.2296 9.77698 68.0985 9.89153C67.8321 10.1259 67.8148 10.205 67.9671 10.4997C68.1203 10.7959 68.0033 10.8811 67.6938 10.6986C67.3915 10.5206 67.2259 10.5182 67.0081 10.6894C66.7464 10.8956 66.711 10.859 66.7597 10.4313C66.8031 10.0475 66.7995 10.0362 66.5921 9.88872C66.3119 9.68896 66.3602 9.59128 66.7589 9.55069C67.0772 9.51813 67.0909 9.50808 67.1998 9.21587C67.2746 9.01531 67.3493 8.91763 67.4225 8.92406C67.5519 8.93572 67.5378 8.73957 67.4064 8.69576C67.353 8.67808 67.2533 8.82237 67.1439 9.0756ZM67.5302 9.21909C67.5242 9.44699 67.6432 9.5527 67.8907 9.54064C68.0781 9.5314 68.0809 9.52818 67.9217 9.50366C67.8075 9.48598 67.7111 9.40278 67.6411 9.2625C67.537 9.05389 67.5342 9.05269 67.5302 9.21909ZM51.6279 9.54104C51.5242 9.58204 51.5559 9.63108 51.8421 9.87264L52.1785 10.156L52.0812 10.4309C51.8831 10.9924 51.9856 11.0801 52.492 10.7834L52.7891 10.609L53.1223 10.7834C53.6146 11.0407 53.7364 10.935 53.4909 10.4643C53.3421 10.1789 53.3646 10.1062 53.6589 9.91123C53.9732 9.70343 54.0085 9.55029 53.7425 9.5519C53.601 9.5527 53.5817 9.56757 53.6585 9.6158C53.7405 9.66765 53.7127 9.72071 53.5037 9.91203C53.2521 10.1423 53.2505 10.1476 53.3534 10.3469C53.5515 10.7304 53.3622 10.908 53.0262 10.654C52.855 10.5242 52.7682 10.5294 52.4374 10.6894C52.2846 10.7633 52.1504 10.8236 52.1391 10.8236C52.0909 10.8236 52.1239 10.5825 52.2014 10.3678C52.2838 10.1407 52.2806 10.1335 51.9868 9.88068C51.779 9.70142 51.7183 9.6146 51.7862 9.59249C51.8397 9.57521 51.9289 9.54627 51.984 9.52778C52.0394 9.50929 52.0093 9.49402 51.9173 9.49361C51.8252 9.49321 51.695 9.51451 51.6279 9.54104ZM67.363 12.5576C67.3232 12.6219 67.4566 13.0588 67.5021 13.0134C67.5169 12.9981 67.4972 12.9013 67.4583 12.798C67.4036 12.6545 67.4072 12.597 67.4731 12.5552C67.5342 12.5162 67.5362 12.5001 67.4796 12.4993C67.4357 12.4985 67.3831 12.525 67.363 12.5576ZM59.1823 13.1179L58.9174 13.4025L59.2024 13.138C59.4669 12.8916 59.5179 12.8333 59.4669 12.8333C59.456 12.8333 59.3282 12.9611 59.1823 13.1179ZM63.7407 13.101C63.8846 13.2485 64.0177 13.3691 64.0361 13.3691C64.0542 13.3691 63.9517 13.2485 63.8078 13.101C63.6639 12.9539 63.5313 12.8333 63.5128 12.8333C63.4943 12.8333 63.5968 12.9539 63.7407 13.101ZM61.5481 13.2168C61.6687 13.2317 61.8496 13.2313 61.9501 13.216C62.0506 13.2007 61.9521 13.1886 61.731 13.189C61.5099 13.1894 61.4276 13.2019 61.5481 13.2168ZM60.4404 14.2401C60.4404 14.3687 60.4541 14.4218 60.4709 14.3571C60.4878 14.2928 60.4878 14.1871 60.4709 14.1228C60.4541 14.0584 60.4404 14.1111 60.4404 14.2401ZM62.9859 14.3068C62.9859 14.4359 62.9999 14.4885 63.0168 14.4242C63.0333 14.3599 63.0333 14.2542 63.0168 14.1899C62.9999 14.1252 62.9859 14.1778 62.9859 14.3068ZM58.2357 15.3788C58.2357 15.6184 58.2478 15.7164 58.2627 15.5967C58.2775 15.4769 58.2775 15.2807 58.2627 15.161C58.2478 15.0412 58.2357 15.1393 58.2357 15.3788ZM71.2321 15.4122C71.2325 15.6702 71.2445 15.7675 71.259 15.6284C71.2735 15.4893 71.2735 15.2783 71.2586 15.1598C71.2437 15.0408 71.2321 15.1545 71.2321 15.4122ZM64.7315 15.4793C64.7319 15.6634 64.7448 15.7309 64.7604 15.6292C64.7757 15.5271 64.7753 15.3764 64.7592 15.294C64.7436 15.2116 64.7307 15.2952 64.7315 15.4793ZM48.8525 15.5464C48.8533 15.6935 48.8669 15.7462 48.883 15.6626C48.8991 15.5794 48.8983 15.4588 48.8818 15.3949C48.8649 15.3306 48.8517 15.3989 48.8525 15.5464ZM60.655 15.5295L60.4585 15.7474L60.6759 15.5504C60.7957 15.4423 60.8938 15.3442 60.8938 15.3326C60.8938 15.2811 60.8383 15.3266 60.655 15.5295ZM61.6474 15.5589C61.7117 15.5758 61.8174 15.5758 61.8817 15.5589C61.9465 15.542 61.8934 15.5283 61.7648 15.5283C61.6358 15.5283 61.5831 15.542 61.6474 15.5589ZM48.924 17.7905C48.924 18.03 48.9361 18.1281 48.9509 18.0083C48.9658 17.8885 48.9658 17.6924 48.9509 17.5726C48.9361 17.4528 48.924 17.5509 48.924 17.7905ZM50.9988 17.6731C50.9639 17.7193 50.8823 17.9002 50.818 18.075C50.7299 18.3134 50.6636 18.3958 50.5551 18.4026C50.4751 18.4078 50.2962 18.4187 50.1572 18.4267C49.7793 18.4484 49.7765 18.5087 50.1391 18.823L50.4695 19.1096L50.3557 19.4071C50.2171 19.7708 50.2118 19.934 50.3388 19.934C50.4663 19.934 50.5342 19.8194 50.4277 19.7837C50.3614 19.7616 50.3614 19.719 50.4273 19.5739C50.5615 19.28 50.527 19.0694 50.3095 18.852C50.0454 18.5879 50.0559 18.5272 50.3662 18.5272C50.6423 18.5272 50.7621 18.4336 50.9209 18.0919C51.0242 17.8704 51.1073 17.8379 51.1789 17.9914C51.3996 18.4665 51.4241 18.4946 51.6464 18.5272C51.939 18.5706 51.9683 18.6755 51.7448 18.8825C51.5708 19.0441 51.5676 19.059 51.6468 19.3878C51.6914 19.5743 51.7083 19.7588 51.6841 19.7973C51.6411 19.8673 51.8268 19.9794 51.8867 19.9199C51.9036 19.903 51.8558 19.7109 51.7802 19.4931L51.6427 19.0968L51.951 18.8271C52.3043 18.5184 52.2878 18.4605 51.8465 18.4605C51.49 18.4605 51.3907 18.3636 51.2428 17.8692C51.1548 17.5754 51.1041 17.5348 50.9988 17.6731ZM120.263 24.8035C120.254 28.7899 120.27 32.0653 120.297 32.0826C120.343 32.1108 120.342 27.0443 120.296 20.1687C120.287 18.7318 120.272 20.8175 120.263 24.8035ZM68.804 17.9412C68.7372 18.0979 68.6645 18.2788 68.6424 18.3431C68.6098 18.4372 68.5226 18.4605 68.1978 18.4605C67.705 18.4605 67.6761 18.5501 68.0616 18.8801C68.3614 19.1365 68.3703 19.1755 68.2252 19.5928C68.0817 20.0047 68.1733 20.0546 68.5961 19.7945C68.9366 19.5851 68.9523 19.5819 69.1343 19.6896C69.3904 19.8407 69.4724 19.8263 69.2674 19.6663C69.0532 19.4987 68.9744 19.4999 68.6576 19.678C68.3361 19.8588 68.2883 19.8158 68.3775 19.4259C68.4462 19.1257 68.4426 19.1144 68.2211 18.9127C67.9253 18.6434 67.9329 18.6197 68.3329 18.5666C68.5668 18.5356 68.6818 18.4866 68.7063 18.4074C68.7814 18.1626 68.9322 17.9585 69.0306 17.9673C69.1416 17.9774 69.1565 17.9283 69.0929 17.7623C69.0246 17.5847 68.931 17.6425 68.804 17.9412ZM69.1339 18.1707C69.1335 18.3604 69.4342 18.5943 69.6786 18.5943C69.929 18.5943 69.9254 18.7294 69.6693 18.9187C69.4479 19.0827 69.4177 19.2672 69.5688 19.5321C69.6942 19.7515 69.6922 19.7857 69.5524 19.815C69.4523 19.8359 69.4579 19.852 69.5914 19.9256C69.8237 20.0538 69.8434 19.9746 69.6902 19.5309L69.552 19.1305L69.8558 18.8737C70.2204 18.5658 70.1886 18.4605 69.7316 18.4605C69.429 18.4605 69.388 18.4412 69.267 18.2426C69.1524 18.0549 69.1339 18.0449 69.1339 18.1707ZM13.1301 19.1639C13.2551 19.2925 13.3724 19.3982 13.3905 19.3982C13.409 19.3982 13.3218 19.2925 13.1968 19.1639C13.0718 19.0349 12.9544 18.9291 12.9363 18.9291C12.9179 18.9291 13.0051 19.0349 13.1301 19.1639ZM50.7448 19.6305C50.6343 19.7214 50.5796 19.7965 50.6234 19.7977C50.6676 19.7989 50.7235 19.768 50.7476 19.7286C50.8461 19.5694 51.0776 19.5437 51.2934 19.6679C51.414 19.7374 51.494 19.7563 51.4767 19.7117C51.4446 19.6289 51.1375 19.4649 51.0161 19.4653C50.9775 19.4657 50.8553 19.5401 50.7448 19.6305ZM35.8658 22.0779C35.8658 22.5751 35.8762 22.7785 35.8891 22.5301C35.902 22.2813 35.902 21.8742 35.8891 21.6258C35.8762 21.377 35.8658 21.5803 35.8658 22.0779ZM133.333 22.5132C133.333 22.8079 133.345 22.9204 133.359 22.7628C133.373 22.6053 133.373 22.3641 133.359 22.2267C133.344 22.0896 133.333 22.2186 133.333 22.5132ZM66.7577 22.4103C66.6411 22.539 66.6423 22.5402 66.8135 22.4606C66.91 22.416 66.9892 22.3565 66.9892 22.3292C66.9904 22.2375 66.8783 22.2769 66.7577 22.4103ZM54.7296 24.0406L54.7618 24.3891L54.7839 24.0953C54.7964 23.9337 54.7819 23.7769 54.7517 23.7468C54.7216 23.7167 54.7115 23.8489 54.7296 24.0406ZM65.3308 24.0205C65.3308 24.1495 65.3445 24.2022 65.3613 24.1379C65.3782 24.0732 65.3782 23.9679 65.3613 23.9032C65.3445 23.8388 65.3308 23.8915 65.3308 24.0205ZM124.551 24.4687C124.615 24.4856 124.721 24.4856 124.785 24.4687C124.85 24.4518 124.797 24.4381 124.668 24.4381C124.539 24.4381 124.487 24.4518 124.551 24.4687ZM56.2715 24.8079C56.2715 24.8357 56.3695 24.8935 56.4893 24.9361C56.6091 24.9791 56.9624 25.1049 57.2751 25.2163C57.5874 25.3276 57.8563 25.4056 57.8724 25.3895C57.9271 25.3349 57.8326 25.2915 57.4371 25.189C57.2196 25.1331 56.8993 25.0129 56.7249 24.9221C56.3977 24.752 56.2715 24.7203 56.2715 24.8079ZM63.35 24.9655C63.0984 25.0776 62.7817 25.1865 62.6466 25.2074C62.5116 25.2279 62.3633 25.2746 62.3175 25.3107C62.1945 25.4072 62.1949 37.303 62.3175 37.4047C62.3974 37.471 62.7029 37.2978 63.6571 36.6438L63.9083 36.4718L63.9164 31.335C63.9208 28.5094 63.9284 26.0423 63.9332 25.8526C63.9381 25.6624 63.9208 25.5415 63.8947 25.5833C63.8689 25.6251 63.8456 27.8908 63.8432 30.618C63.8376 37.096 63.9437 36.3564 62.922 37.0265C62.2395 37.4742 62.3006 38.0261 62.3006 31.4206C62.3006 25.6086 62.3102 25.3602 62.5313 25.3602C62.5823 25.3602 62.8721 25.2541 63.176 25.1238C63.8259 24.8457 63.8778 24.8513 63.8597 25.1982C63.8464 25.4562 63.8472 25.4575 63.9115 25.2597C64.0751 24.7577 63.9562 24.6954 63.35 24.9655ZM59.116 25.5837C59.0308 25.9317 59.1172 39.8614 59.206 40.0322C59.3021 40.2179 59.7342 40.5435 59.7985 40.4787C59.821 40.4562 59.7675 40.4048 59.6799 40.3642C59.2205 40.1504 59.2547 40.7275 59.235 32.8041C59.2241 28.3888 59.2414 25.6488 59.2808 25.6013C59.3274 25.5447 59.5252 25.5427 60.0352 25.5933L60.7262 25.6616L60.7422 32.6622C60.7599 40.3369 60.778 39.9956 60.3439 40.283C60.1956 40.3811 60.1088 40.4727 60.151 40.4868C60.2659 40.5254 60.6916 40.1769 60.7648 39.9852C60.8407 39.785 60.8532 25.6255 60.7772 25.5567C60.6193 25.4144 59.1518 25.4378 59.116 25.5837ZM25.2051 25.9969C25.206 26.144 25.2196 26.1966 25.2357 26.113C25.2514 26.0298 25.251 25.9092 25.2341 25.8453C25.2172 25.781 25.2043 25.8493 25.2051 25.9969ZM37.6649 26.3486C38.6139 26.359 40.1661 26.359 41.1151 26.3486C42.0637 26.3377 41.2876 26.3293 39.39 26.3293C37.4924 26.3293 36.7163 26.3377 37.6649 26.3486ZM35.8662 27.5709C35.8662 28.105 35.8766 28.3237 35.8891 28.0568C35.902 27.7895 35.902 27.3526 35.8891 27.0853C35.8766 26.818 35.8662 27.0367 35.8662 27.5709ZM20.359 27.6938C20.3951 27.7614 20.4771 27.859 20.5414 27.9113C20.6138 27.9704 20.5977 27.9234 20.4992 27.7887C20.3232 27.5483 20.2573 27.5037 20.359 27.6938ZM95.3432 27.8852C95.4079 27.9021 95.5133 27.9021 95.578 27.8852C95.6423 27.8683 95.5896 27.8546 95.4606 27.8546C95.3316 27.8546 95.2789 27.8683 95.3432 27.8852ZM109.88 28.7562C109.944 28.7726 110.05 28.7726 110.115 28.7562C110.179 28.7393 110.126 28.7252 109.998 28.7252C109.869 28.7252 109.816 28.7393 109.88 28.7562ZM154.696 29.0259C154.798 29.0411 154.964 29.0411 155.065 29.0259C155.166 29.0106 155.083 28.9977 154.881 28.9977C154.678 28.9977 154.595 29.0106 154.696 29.0259ZM80.5707 32.3756C80.6893 32.3905 80.9003 32.3905 81.0394 32.376C81.1785 32.3616 81.0812 32.3495 80.8232 32.3491C80.5655 32.3491 80.4518 32.3608 80.5707 32.3756ZM154.598 32.3764C154.755 32.3905 154.996 32.3905 155.134 32.376C155.271 32.3616 155.142 32.3499 154.847 32.3503C154.553 32.3503 154.44 32.3624 154.598 32.3764ZM53.3241 34.0356C53.4491 34.1643 53.5664 34.27 53.5845 34.27C53.603 34.27 53.5158 34.1643 53.3908 34.0356C53.2658 33.9066 53.1484 33.8009 53.1303 33.8009C53.1118 33.8009 53.199 33.9066 53.3241 34.0356ZM79.9698 35.1884C80.0534 35.2041 80.174 35.2037 80.2379 35.1868C80.3018 35.1699 80.2339 35.1571 80.0864 35.1579C79.9389 35.1587 79.8866 35.1723 79.9698 35.1884ZM84.0564 35.1884C84.1396 35.2041 84.2601 35.2037 84.3245 35.1868C84.3884 35.1699 84.32 35.1571 84.1729 35.1579C84.0254 35.1587 83.9732 35.1723 84.0564 35.1884ZM88.7792 35.1888C88.8812 35.2045 89.032 35.2041 89.1144 35.188C89.1968 35.1719 89.1132 35.1595 88.9291 35.1599C88.745 35.1607 88.6775 35.1735 88.7792 35.1888ZM94.2053 35.1888C94.3074 35.2045 94.4582 35.2041 94.5406 35.188C94.623 35.1719 94.5394 35.1595 94.3553 35.1599C94.1712 35.1607 94.1036 35.1735 94.2053 35.1888ZM123.949 35.1888C124.051 35.2045 124.202 35.2041 124.284 35.188C124.366 35.1719 124.283 35.1595 124.099 35.1599C123.915 35.1607 123.847 35.1735 123.949 35.1888ZM142.472 35.1892C142.592 35.2045 142.773 35.2041 142.874 35.1888C142.975 35.1735 142.876 35.1611 142.655 35.1615C142.434 35.1619 142.352 35.1743 142.472 35.1892ZM97.65 35.2539C97.6934 35.2853 97.742 35.4457 97.7577 35.6109L97.7862 35.9111L97.779 35.5815C97.7738 35.3496 97.742 35.2439 97.6713 35.2246C97.6017 35.2061 97.5953 35.2149 97.65 35.2539ZM104.354 35.2579C104.694 35.27 105.252 35.27 105.593 35.2579C105.934 35.2455 105.655 35.2358 104.973 35.2358C104.292 35.2358 104.013 35.2455 104.354 35.2579ZM128.433 35.2575C128.754 35.27 129.296 35.27 129.639 35.2579C129.982 35.2455 129.719 35.2354 129.056 35.2354C128.393 35.2354 128.113 35.2455 128.433 35.2575ZM137.174 35.2511C137.255 35.2688 137.335 35.342 137.351 35.4139C137.374 35.5156 137.378 35.5112 137.372 35.393C137.365 35.2817 137.319 35.2383 137.195 35.2302C137.056 35.2214 137.053 35.2246 137.174 35.2511ZM146.795 35.2575C147.082 35.2704 147.534 35.27 147.8 35.2575C148.065 35.2447 147.83 35.2346 147.277 35.2346C146.725 35.2346 146.507 35.2451 146.795 35.2575ZM148.617 35.2535C148.691 35.2736 148.776 35.3247 148.806 35.3665C148.843 35.4167 148.853 35.4083 148.835 35.342C148.82 35.2865 148.734 35.2358 148.645 35.229C148.517 35.2194 148.511 35.2246 148.617 35.2535ZM150.78 35.2575C151.012 35.2708 151.374 35.2704 151.584 35.2571C151.794 35.2439 151.605 35.2334 151.163 35.2334C150.72 35.2334 150.548 35.2443 150.78 35.2575ZM107.6 37.4312C107.592 38.5989 107.608 39.5683 107.636 39.5852C107.663 39.6025 107.679 38.9787 107.669 38.1993C107.637 35.5562 107.614 35.3018 107.6 37.4312ZM118.13 36.2797C118.13 36.8139 118.14 37.0325 118.153 36.7652C118.166 36.4983 118.166 36.061 118.153 35.7941C118.14 35.5268 118.13 35.7455 118.13 36.2797ZM139.368 37.2174C139.368 38.2677 139.378 38.6973 139.389 38.172C139.4 37.6471 139.4 36.7881 139.389 36.2628C139.378 35.7379 139.368 36.1675 139.368 37.2174ZM130.697 35.7612C130.697 35.8199 130.644 35.8818 130.58 35.8986C130.47 35.9272 130.47 35.9296 130.582 35.9368C130.703 35.9449 130.816 35.7728 130.739 35.6961C130.716 35.6731 130.697 35.7025 130.697 35.7612ZM56.2715 36.4115C56.2715 36.4742 57.6489 37.4168 57.7747 37.4401C57.8093 37.4469 57.8499 37.3959 57.8648 37.3267C57.8816 37.2508 57.8644 37.219 57.8209 37.2455C57.7261 37.3042 57.3016 37.082 56.7345 36.6776C56.4797 36.4955 56.2715 36.3761 56.2715 36.4115ZM115.787 38.1889C115.787 38.9626 115.797 39.2701 115.808 38.8718C115.82 38.4739 115.82 37.8408 115.808 37.465C115.797 37.0896 115.787 37.4152 115.787 38.1889ZM113.228 37.4184C113.228 37.5474 113.242 37.6001 113.259 37.5357C113.276 37.4714 113.276 37.3657 113.259 37.3014C113.242 37.2367 113.228 37.2898 113.228 37.4184ZM129.106 37.8702C129.355 37.883 129.762 37.883 130.011 37.8702C130.259 37.8573 130.056 37.8468 129.558 37.8468C129.061 37.8468 128.858 37.8573 129.106 37.8702ZM75.1152 38.6069C75.3652 38.6202 75.7571 38.6198 75.9862 38.6069C76.2149 38.5936 76.0099 38.5832 75.5312 38.5832C75.0521 38.5836 74.8648 38.594 75.1152 38.6069ZM100.47 38.6069C100.665 38.6206 100.966 38.6202 101.14 38.6065C101.314 38.5928 101.155 38.5816 100.786 38.582C100.418 38.582 100.276 38.5932 100.47 38.6069ZM157.542 38.6057C157.661 38.6206 157.872 38.6206 158.011 38.6061C158.15 38.5916 158.053 38.5796 157.795 38.5792C157.537 38.5792 157.423 38.5908 157.542 38.6057ZM158.681 38.6057C158.8 38.6206 159.011 38.6206 159.15 38.6061C159.289 38.5916 159.191 38.5796 158.934 38.5792C158.676 38.5792 158.562 38.5908 158.681 38.6057ZM84.2573 39.0068C84.3405 39.0225 84.4611 39.0221 84.5254 39.0052C84.5893 38.9883 84.521 38.9755 84.3739 38.9763C84.2264 38.9771 84.1741 38.9908 84.2573 39.0068ZM94.2717 39.0056C94.336 39.0221 94.4417 39.0221 94.506 39.0056C94.5703 38.9888 94.5176 38.9747 94.3886 38.9747C94.2596 38.9747 94.2069 38.9888 94.2717 39.0056ZM123.915 39.0064C123.998 39.0225 124.133 39.0225 124.216 39.0064C124.299 38.9908 124.231 38.9775 124.065 38.9775C123.899 38.9775 123.831 38.9908 123.915 39.0064ZM142.471 39.0064C142.554 39.0225 142.689 39.0225 142.772 39.0064C142.855 38.9908 142.787 38.9775 142.621 38.9775C142.456 38.9775 142.388 38.9908 142.471 39.0064Z" fill="white"/>
</svg>
