<svg width="162" height="41" viewBox="0 0 162 41" fill="none" xmlns="http://www.w3.org/2000/svg">
<path fill-rule="evenodd" clip-rule="evenodd" d="M62.2093 12.2111C62.3106 12.2268 62.4762 12.2268 62.5774 12.2111C62.6787 12.1958 62.5959 12.1834 62.3934 12.1834C62.1908 12.1834 62.108 12.1958 62.2093 12.2111ZM61.5224 12.2963C61.454 12.3401 61.5075 12.3474 61.69 12.3192C62.0212 12.2686 62.0774 12.23 61.8182 12.2312C61.7109 12.232 61.5778 12.261 61.5224 12.2963ZM62.8009 12.2549C62.8162 12.2686 62.9492 12.2995 63.0968 12.3245C63.2889 12.3566 63.3363 12.3498 63.2644 12.3007C63.1739 12.2392 62.7338 12.1954 62.8009 12.2549ZM60.9082 12.5335C60.5231 12.734 59.8567 13.3442 59.6923 13.6468L59.5701 13.8715L59.7209 13.6706C60.0408 13.2437 60.5742 12.7819 60.9834 12.5777C61.2177 12.4603 61.3676 12.3655 61.3154 12.3675C61.2635 12.3691 61.0802 12.4438 60.9082 12.5335ZM63.8062 12.5781C64.3379 12.8426 64.9216 13.4137 65.2013 13.9423C65.3171 14.1613 65.3914 14.265 65.3669 14.173C65.1981 13.5399 63.9565 12.3643 63.4569 12.3643C63.4127 12.3643 63.5698 12.4603 63.8062 12.5781ZM53.2006 12.6026C53.0426 12.761 51.6519 12.9093 50.0004 12.9451C48.973 12.9668 48.1896 13.0114 48.1414 13.0504C47.9448 13.2083 48.0598 19.9959 48.2933 22.0108C48.69 25.4357 49.9521 28.5765 52.1809 31.6851C52.9643 32.7776 55.4511 35.2833 55.6376 35.1683C55.7067 35.1253 55.7035 24.6182 55.6339 24.0619C55.6002 23.7898 55.5451 23.6391 55.4555 23.5739C55.3843 23.5221 55.0632 23.2223 54.7416 22.9075C54.4205 22.5928 54.1263 22.3545 54.0885 22.3782C54.0423 22.4067 54.0198 23.8625 54.0198 26.7742C54.0198 31.5951 54.0447 31.3519 53.6106 30.7437C51.5776 27.8964 50.6358 25.7645 50.0936 22.7813C49.9264 21.8617 49.6768 14.8233 49.8054 14.6678C49.8629 14.599 50.0751 14.5749 50.6282 14.5745C51.0667 14.5741 51.6905 14.5191 52.1439 14.4411C52.5675 14.3679 52.9164 14.3076 52.9192 14.3072C52.9518 14.3044 53.4751 13.1424 53.5885 12.8205L53.6789 12.5652H53.4582C53.3373 12.5652 53.2211 12.5821 53.2006 12.6026ZM68.3155 12.6717C68.3425 12.7421 68.3819 12.89 68.4028 13.0005C68.4237 13.1111 68.4779 13.2469 68.5237 13.302C68.5692 13.3574 68.6668 13.5681 68.7412 13.7706C68.8156 13.9732 68.9474 14.1899 69.0346 14.2526C69.2183 14.3848 70.5781 14.5749 71.3381 14.5749C71.609 14.5749 71.9105 14.6055 72.0086 14.6428L72.1874 14.7108L72.1436 15.8989C72.1195 16.5525 72.0713 18.1269 72.0367 19.3982C71.9764 21.6036 71.9374 22.0514 71.6798 23.4847C71.4812 24.5884 70.9732 26.0925 70.3968 27.2822C70.195 27.6983 70.0302 28.0552 70.0302 28.0753C70.0302 28.3209 68.1435 31.0545 67.9739 31.0545C67.9032 31.0545 67.8867 30.2409 67.8867 26.7336C67.8867 21.846 67.9325 22.1776 67.3344 22.7492C66.0707 23.9562 66.213 23.0607 66.2122 29.7984C66.2118 35.9424 66.137 35.4195 66.916 34.7222C68.0772 33.6823 70.0302 31.5094 70.0302 31.2566C70.0302 31.2221 70.0837 31.1397 70.1484 31.0737C70.3192 30.9013 70.6962 30.3177 71.1351 29.5472C71.345 29.1786 71.5439 28.8486 71.5773 28.8136C71.6106 28.7787 71.638 28.7136 71.638 28.6689C71.638 28.6243 71.7401 28.3667 71.8651 28.0962C72.2859 27.185 72.3832 26.9378 72.7172 25.9297C73.1758 24.5454 73.1766 24.5418 73.2461 24.1419C73.2803 23.9461 73.3687 23.4996 73.4431 23.1495C73.7514 21.6913 73.8097 20.6776 73.8125 16.7185L73.8153 13.0005L72.0066 12.9563C70.5777 12.9209 70.0427 12.8815 69.4607 12.7694C68.1656 12.5194 68.2597 12.5274 68.3155 12.6717ZM61.864 13.3076C61.6321 13.4487 61.3949 13.6923 61.3909 13.7927C61.3893 13.8233 61.4701 13.7513 61.5698 13.6328C61.6699 13.5142 61.8733 13.3619 62.022 13.2939C62.1711 13.2264 62.2475 13.1705 62.1924 13.1697C62.1369 13.1693 61.9894 13.2312 61.864 13.3076ZM63.3025 13.3337C63.9899 13.6766 64.1438 14.6376 63.5714 15.013C63.4022 15.1236 63.3339 15.3117 63.4629 15.3117C63.4987 15.3117 63.6378 15.4218 63.772 15.5561C63.9079 15.6923 63.9834 15.7389 63.942 15.6614C63.901 15.5846 63.776 15.4568 63.6639 15.3772L63.4609 15.2325L63.6904 14.9781C64.2624 14.3454 63.8476 13.1681 63.0529 13.1681C63.0071 13.1681 63.1197 13.2429 63.3025 13.3337ZM62.3508 13.8494C61.825 14.1038 62.0549 14.9097 62.6534 14.9097C63.186 14.9097 63.4304 14.1308 62.9717 13.8948C62.8339 13.8241 62.8339 13.8265 62.9794 13.9664C63.3122 14.2859 63.1076 14.843 62.6574 14.843C61.983 14.843 61.9307 13.9961 62.5959 13.8394C62.7752 13.7972 62.7905 13.7843 62.6615 13.7823C62.5694 13.7811 62.4295 13.8112 62.3508 13.8494ZM59.4423 14.0817C59.4053 14.179 59.3877 14.2711 59.4025 14.2863C59.4178 14.3012 59.4624 14.222 59.5014 14.1095C59.5886 13.8595 59.536 13.835 59.4423 14.0817ZM61.2591 14.2457C61.2619 14.3346 61.2912 14.4676 61.3246 14.5416C61.3668 14.6348 61.3728 14.5942 61.3447 14.4073C61.2973 14.0962 61.2523 14.0114 61.2591 14.2457ZM59.2868 14.4768C59.2635 14.5367 59.2474 14.636 59.2506 14.6975C59.2538 14.759 59.2827 14.7204 59.3153 14.6119C59.3784 14.4005 59.3563 14.2956 59.2868 14.4768ZM65.4437 14.509C65.4646 14.6014 65.5092 14.8277 65.543 15.0114L65.6041 15.3454L65.5715 14.9511C65.5534 14.7345 65.5088 14.5086 65.4722 14.4487C65.4212 14.3651 65.4147 14.3784 65.4437 14.509ZM61.3885 14.7703C61.3885 14.8028 61.4866 14.915 61.6064 15.0195L61.8238 15.2092L61.5766 15.4323C61.356 15.6312 61.126 16.0766 61.2036 16.1541C61.2197 16.1702 61.2687 16.0645 61.3121 15.919C61.3608 15.7574 61.4926 15.5681 61.6506 15.4327L61.9098 15.2108L61.6494 14.9612C61.5059 14.8237 61.3885 14.7377 61.3885 14.7703ZM59.1935 15.044C59.1935 15.1726 59.2072 15.2257 59.2241 15.1609C59.2409 15.0966 59.2409 14.9909 59.2241 14.9266C59.2072 14.8623 59.1935 14.915 59.1935 15.044ZM65.5201 15.8366C65.4975 16.0512 65.461 16.2852 65.4385 16.3555C65.4027 16.4689 65.4063 16.4709 65.4702 16.372C65.5454 16.2558 65.6539 15.4459 65.5944 15.4459C65.5759 15.4459 65.5426 15.6216 65.5201 15.8366ZM59.1947 15.7474C59.1955 15.8945 59.2092 15.9471 59.2253 15.8635C59.2413 15.7803 59.2405 15.6598 59.2241 15.5958C59.2072 15.5315 59.1939 15.5999 59.1947 15.7474ZM62.1964 15.743C62.0907 15.8555 62.0356 16.007 62.0204 16.2289C61.9983 16.5432 61.9991 16.5444 62.0485 16.2832C62.1156 15.9279 62.2358 15.7192 62.4147 15.6473C62.5103 15.6087 62.5244 15.5866 62.4553 15.5842C62.3974 15.5818 62.2808 15.6533 62.1964 15.743ZM62.9404 15.6823C63.1538 15.798 63.2905 16.1618 63.2358 16.4677C63.2013 16.6598 63.2057 16.6682 63.2724 16.5388C63.4263 16.2398 63.1313 15.5737 62.8488 15.5826C62.8009 15.5838 62.8423 15.6288 62.9404 15.6823ZM64.0345 16.3543C64.0345 16.6256 64.055 16.796 64.0803 16.7329C64.1422 16.5766 64.1446 16.0332 64.0839 15.9383C64.0566 15.8957 64.0345 16.083 64.0345 16.3543ZM59.2458 16.1549C59.2466 16.2253 59.2775 16.3282 59.3149 16.3837C59.3643 16.4572 59.3708 16.4299 59.3378 16.2832C59.2827 16.0368 59.2446 15.9833 59.2458 16.1549ZM61.1952 16.5846C61.192 16.6767 61.2189 16.7972 61.2547 16.8527C61.3371 16.9805 61.3371 16.8427 61.2547 16.5846L61.2008 16.417L61.1952 16.5846ZM59.417 16.6517C59.4411 16.7438 59.4877 16.8479 59.5203 16.8829C59.616 16.985 59.5866 16.8382 59.4741 16.6517L59.3732 16.4841L59.417 16.6517ZM65.2017 16.8652C65.0454 17.2 64.4814 17.8435 64.135 18.0827C63.9903 18.1823 63.9983 18.1819 64.1932 18.0782C64.608 17.8568 65.5281 16.6827 65.3926 16.5468C65.3766 16.5312 65.2905 16.6743 65.2017 16.8652ZM62.0585 16.6276C62.0585 16.702 62.309 16.9866 62.3741 16.9866C62.3974 16.9866 62.3435 16.9038 62.2543 16.8025C62.1651 16.7012 62.0843 16.6055 62.075 16.5902C62.0658 16.575 62.0585 16.5919 62.0585 16.6276ZM63.0055 16.8547C62.9187 16.9271 62.7527 16.9906 62.6373 16.9958C62.4689 17.003 62.4585 17.0107 62.5839 17.0348C62.7748 17.071 63.1072 16.9423 63.1566 16.8129C63.2025 16.6939 63.1968 16.6956 63.0055 16.8547ZM59.6553 17.1188C59.8475 17.5207 60.878 18.3933 61.1606 18.3933C61.1924 18.3933 61.028 18.2808 60.7956 18.1433C60.4013 17.9102 59.9733 17.5123 59.6947 17.1204L59.5758 16.9532L59.6553 17.1188ZM61.4042 17.1204C61.5087 17.2985 61.8946 17.5911 62.0179 17.5867C62.0585 17.5855 62.0015 17.5372 61.8909 17.4797C61.7804 17.4223 61.6035 17.2804 61.4974 17.1642C61.3451 16.9966 61.3258 16.9878 61.4042 17.1204ZM7.36098 17.2221C7.06636 17.2703 6.6596 17.3571 6.45662 17.4146C6.25404 17.4721 6.01288 17.5404 5.92083 17.5662C5.50402 17.6839 4.27288 18.3656 3.82994 18.7241C3.33314 19.1261 2.50434 19.9505 2.50434 20.0425C2.50434 20.0702 2.44606 20.1551 2.37452 20.2314C2.19485 20.4223 1.59033 21.4839 1.50673 21.7548C1.46895 21.8774 1.37932 22.143 1.30737 22.3456C0.544487 24.4984 1.05535 27.9571 2.34116 29.3446C2.42315 29.433 2.50113 29.5343 2.51399 29.5693C2.58272 29.7534 3.65429 30.7598 4.14587 31.1011C6.51128 32.745 10.7554 32.8005 12.8668 31.2144C12.9837 31.1264 13.1075 31.0545 13.1417 31.0545C13.2968 31.0545 14.9669 29.312 14.9621 29.1553C14.9597 29.0781 13.4359 27.9125 12.751 27.4639C12.55 27.3321 12.3229 27.1669 12.247 27.0961C12.0392 26.9036 11.9306 26.9366 11.5962 27.2943C9.29471 29.7546 5.86657 28.8514 5.2098 25.6114C4.41718 21.6981 8.46069 19.3375 11.3679 22.0164L11.8884 22.4959L12.2454 22.2367C12.8302 21.8118 13.5846 21.2371 13.6919 21.135C13.747 21.0823 13.9126 20.9517 14.0601 20.844C15.0429 20.1277 15.0336 20.2057 14.2358 19.3793C13.9946 19.1293 13.7812 18.9026 13.7611 18.8753C13.6449 18.7157 12.7735 18.1482 12.2546 17.8945C10.8623 17.2133 8.98321 16.9552 7.36098 17.2221ZM110.09 17.1606C106.302 17.862 103.978 19.9963 103.329 23.3706C102.8 26.1222 104.102 29.5681 106.138 30.8044C106.267 30.8828 106.387 30.9652 106.406 30.9881C106.484 31.0838 107.279 31.5235 107.712 31.71C110.499 32.9106 113.906 32.497 116.191 30.681C117.128 29.9363 118.263 28.4881 118.263 28.0367C118.263 27.9684 118.302 27.8884 118.349 27.859C118.427 27.8112 118.8 26.734 118.891 26.2983C119.398 23.8633 118.612 21.1929 116.866 19.4171C116.353 18.8954 115.414 18.1924 115.229 18.1924C115.175 18.1924 115.095 18.1494 115.051 18.0967C114.583 17.532 111.364 16.9247 110.09 17.1606ZM79.4424 17.321C76.942 17.8905 75.5649 19.4135 75.4733 21.7114C75.37 24.3063 76.6546 25.4442 80.8826 26.5033C83.2167 27.0877 83.7946 27.5387 83.3392 28.4197C82.7629 29.5343 79.2523 28.9853 77.4006 27.4909C77.0545 27.2119 76.9914 27.2425 76.3833 27.984C76.0762 28.3586 75.6063 28.9185 75.339 29.228C74.7695 29.888 74.7474 30.0026 75.1353 30.2839C75.5372 30.5761 76.1441 30.9761 76.2603 31.0259C76.3153 31.0496 76.5565 31.169 76.7961 31.2908C79.5566 32.696 83.5716 32.6992 85.6725 31.2976C86.2975 30.8804 87.1798 29.8498 87.1798 29.5367C87.1798 29.4873 87.2043 29.4467 87.2344 29.4467C87.4326 29.4467 87.6344 27.6058 87.5226 26.8172C87.4121 26.0394 86.6006 24.6234 86.265 24.6234C86.2191 24.6234 86.1572 24.584 86.1279 24.5362C85.9908 24.3123 84.8815 23.7617 83.9643 23.4622C82.8766 23.1073 82.8264 23.0928 82.4903 23.0438C81.2339 22.8593 79.8617 22.2841 79.6591 21.8569C78.8801 20.2113 82.3923 20.1301 84.7681 21.7391C84.9337 21.8512 85.0877 21.9433 85.1098 21.9437C85.1492 21.9437 86.0105 20.8199 86.1412 20.5976C86.1781 20.5349 86.4117 20.1908 86.6605 19.8335C86.9093 19.4758 87.1126 19.1478 87.1126 19.1044C87.1126 18.9207 85.4048 17.9375 84.7681 17.7551C84.6761 17.7285 84.5704 17.6851 84.5334 17.6578C83.9952 17.2631 80.6639 17.0428 79.4424 17.321ZM153.433 17.3306C150.631 17.9753 149.054 20.184 149.54 22.7789C149.845 24.404 151.613 25.816 153.868 26.2352C154.299 26.3156 155.697 26.6886 156.303 26.8855C157.126 27.1524 157.62 27.6536 157.481 28.0801C157.352 28.4756 157.282 28.5821 157.047 28.7373C156.024 29.4149 153.163 28.8064 151.517 27.5612C151.33 27.4193 151.132 27.3031 151.077 27.3031C150.991 27.3031 150.418 27.8723 150.418 27.9571C150.418 27.9828 149.794 28.7332 149.681 28.8438C149.662 28.8623 149.563 28.9905 149.46 29.1284C149.357 29.2666 149.169 29.4925 149.042 29.6308C148.753 29.9455 148.749 29.9198 149.129 30.2329C149.761 30.7546 150.658 31.2675 151.507 31.5935C151.7 31.6674 151.919 31.755 151.993 31.788C152.066 31.8214 152.202 31.8619 152.294 31.8784C152.386 31.8949 152.763 31.9922 153.131 32.0943C154.507 32.4757 157.192 32.3744 158.524 31.8909C160.721 31.093 161.954 29.0813 161.573 26.9141C161.291 25.3103 160.507 24.4759 158.457 23.5981C158.165 23.4735 156.567 23.0157 156.423 23.0157C156.227 23.0157 154.546 22.5365 154.298 22.4103C153.455 21.9799 153.343 21.1933 154.065 20.77C154.782 20.35 156.776 20.5976 157.899 21.2463C158.053 21.3351 158.209 21.4079 158.246 21.4079C158.283 21.4079 158.499 21.5361 158.726 21.6925L159.138 21.9774L159.283 21.8062C159.451 21.6085 159.5 21.5397 160.13 20.6374C160.387 20.2692 160.718 19.8017 160.866 19.5992C161.226 19.104 161.219 19.0775 160.586 18.6578C158.675 17.3909 155.628 16.8254 153.433 17.3306ZM63.4722 17.4279C63.3468 17.5167 63.268 17.5895 63.2965 17.5895C63.3608 17.5895 63.8001 17.3214 63.8001 17.2824C63.8001 17.2237 63.6916 17.2719 63.4722 17.4279ZM16.6181 17.4323C16.4955 17.5545 16.5759 26.4502 16.7057 27.1689C17.0317 28.9688 17.4211 29.7875 18.4099 30.7506C20.7178 32.9986 26.1894 32.9279 28.538 30.62C30.0975 29.087 30.3194 27.9366 30.2904 21.5417L30.2715 17.4219H28.2285H26.1854L26.148 21.9437C26.1083 26.7786 26.1123 26.7187 25.7513 27.4338C24.9056 29.1091 22 29.1637 21.1696 27.5198C20.7391 26.6673 20.7629 26.9679 20.7259 21.9774L20.6921 17.4219L18.678 17.4042C17.5698 17.3945 16.643 17.407 16.6181 17.4323ZM32.7592 17.5392C32.6526 17.9359 32.7145 32.044 32.8227 32.0858C32.8809 32.1079 35.5498 32.1264 38.7529 32.1264H44.5774L44.6485 31.9419C44.7301 31.7297 44.7044 28.8603 44.6196 28.7264C44.5778 28.6613 43.7237 28.6436 40.7079 28.6468C37.6001 28.6496 36.8384 28.6336 36.7926 28.5628C36.7243 28.4579 36.7275 26.488 36.7958 26.3771C36.8312 26.32 37.775 26.2947 40.3237 26.2822L43.8036 26.2645V24.6905V23.1161L40.3237 23.0989C37.6419 23.0856 36.8316 23.0623 36.791 22.9984C36.7283 22.8999 36.7195 21.4839 36.7794 21.1233L36.8208 20.8721H40.5913C42.6654 20.8721 44.4098 20.8536 44.4681 20.8315C44.5774 20.7893 44.6329 17.9162 44.532 17.5392L44.4914 17.3885H38.6456H32.7993L32.7592 17.5392ZM89.5733 17.4287C89.4604 17.5416 89.5167 32.042 89.6304 32.0858C89.7876 32.1461 93.4295 32.1329 93.526 32.0718C93.5879 32.0324 93.6132 31.5086 93.6265 29.9793L93.6442 27.9394L95.3596 27.8932C98.7227 27.802 100.491 26.9382 101.484 24.9008C101.927 23.9928 102.116 22.211 101.86 21.3721C101.826 21.2628 101.76 21.0377 101.712 20.8721C101.404 19.8025 100.193 18.399 99.3718 18.1602C99.2798 18.1333 99.1407 18.0714 99.0631 18.0228C98.8714 17.9018 98.1656 17.6707 97.5964 17.5416C97.0936 17.4279 89.6786 17.3234 89.5733 17.4287ZM121.227 24.7408L121.244 32.0927L123.205 32.1107L125.165 32.1284L125.231 31.9556C125.269 31.8563 125.297 30.917 125.297 29.751C125.297 27.9603 125.309 27.7143 125.403 27.6786C126.11 27.4072 127.172 27.689 127.442 28.22C127.581 28.4909 129.245 30.9881 129.393 31.1473C129.461 31.2205 129.517 31.3101 129.517 31.3459C129.517 31.3816 129.639 31.5717 129.787 31.7687L130.057 32.1264H132.333C134.456 32.1264 134.608 32.1184 134.606 32.0091C134.604 31.8865 133.195 29.8137 132.902 29.5014C132.809 29.4021 132.733 29.2859 132.733 29.2429C132.733 29.1999 132.635 29.0411 132.515 28.8904C132.395 28.7393 132.192 28.4443 132.063 28.2344C131.934 28.0246 131.712 27.685 131.569 27.4796C131.269 27.0471 131.281 26.9607 131.672 26.7617C132.698 26.238 133.668 25.1644 133.936 24.2548C134.861 21.1149 133.562 18.524 130.656 17.7189C129.591 17.4239 129.03 17.3909 125.012 17.3897L121.21 17.3885L121.227 24.7408ZM135.52 17.4942C135.419 17.7575 135.477 20.7925 135.585 20.9006C135.676 20.9919 135.971 21.006 137.795 21.006H139.901V26.5314V32.0569L140.051 32.0935C140.135 32.114 141.046 32.122 142.078 32.1116L143.954 32.0927L143.971 26.5495L143.988 21.006H146.123C147.852 21.006 148.273 20.9883 148.334 20.9139C148.388 20.8492 148.406 20.3198 148.393 19.1221L148.375 17.4219L141.968 17.405C136.169 17.3893 135.557 17.3977 135.52 17.4942ZM62.477 17.7044C62.5782 17.7197 62.7443 17.7197 62.8455 17.7044C62.9468 17.6892 62.864 17.6767 62.6615 17.6767C62.4585 17.6767 62.3757 17.6892 62.477 17.7044ZM61.3278 18.4601C61.3869 18.4942 61.5678 18.5384 61.7298 18.5581C62.0091 18.5923 62.0051 18.5887 61.6566 18.4966C61.2209 18.3813 61.1867 18.3773 61.3278 18.4601ZM63.0968 18.5011L62.7619 18.5927L63.057 18.5577C63.2189 18.538 63.3998 18.4942 63.4589 18.4601C63.5984 18.3785 63.5067 18.3885 63.0968 18.5011ZM96.0225 20.8705C97.5354 21.0815 98.283 22.2918 97.6989 23.5852C97.307 24.453 96.8299 24.6451 95.051 24.652L93.6442 24.6568L93.6253 22.8818C93.6148 21.9051 93.6225 21.0417 93.6418 20.9621C93.6832 20.7921 95.0763 20.7383 96.0225 20.8705ZM112.145 20.932C115.466 21.9417 115.834 26.8602 112.703 28.3888C109.41 29.9961 106.134 26.1797 107.863 22.7508C108.042 22.3959 108.903 21.4079 109.033 21.4079C109.069 21.4079 109.192 21.3412 109.306 21.26C109.917 20.8251 111.277 20.6679 112.145 20.932ZM129.073 21.1285C130.507 21.7765 130.523 23.6708 129.099 24.2408C128.695 24.4028 128.61 24.4104 127.004 24.4309L125.33 24.4522L125.297 22.8798C125.278 22.0148 125.275 21.2214 125.289 21.1169L125.314 20.926L127.03 20.9537C128.622 20.9794 128.77 20.9919 129.073 21.1285ZM112.259 35.2137C110.696 35.4163 109.862 37.1776 110.659 38.5908C111.467 40.0213 113.792 40.0627 114.614 38.6612C115.645 36.9011 114.311 34.9476 112.259 35.2137ZM76.0533 35.6563C75.9427 35.903 75.8109 36.1973 75.7607 36.3094C75.7104 36.422 75.5609 36.7503 75.4287 37.0393C75.2964 37.3279 75.1883 37.5759 75.1883 37.59C75.1883 37.6173 74.9226 38.2178 74.7136 38.6624C74.6433 38.8119 74.5854 38.9678 74.5854 39.0084C74.5854 39.049 74.5581 39.092 74.5243 39.1045C74.4905 39.1166 74.4415 39.2416 74.4154 39.3818L74.3683 39.6367L74.7281 39.6162L75.0878 39.5957L75.3378 39.0748L75.5878 38.5538L76.6088 38.5723L77.6297 38.5908L77.8889 39.1101L78.1482 39.629H78.473C78.9621 39.629 78.9585 39.6041 78.2704 38.1218C78.0594 37.6676 77.9697 37.4666 77.5537 36.5164C77.3917 36.1466 77.1968 35.7009 77.12 35.526L76.9806 35.2077H76.6176H76.2546L76.0533 35.6563ZM80.2463 35.3307C79.4537 35.7077 79.2322 36.8142 79.8512 37.3026C80.1165 37.5116 80.4356 37.6451 81.0012 37.7833C81.6041 37.9308 81.9132 38.1266 81.9425 38.3794C82.0185 39.0334 80.9702 39.211 80.1398 38.6849C79.7648 38.4473 79.7748 38.4477 79.5751 38.6744C79.3657 38.9124 79.3685 39.0084 79.5899 39.1841C80.465 39.8786 82.0438 39.8308 82.5305 39.0953C83.1162 38.2098 82.6998 37.477 81.4027 37.1125C80.2781 36.7966 80.0305 36.5188 80.4754 36.0735C80.7359 35.8134 81.1965 35.803 81.7263 36.0453C82.1945 36.2596 82.2492 36.2564 82.4296 36.0027C82.8248 35.4481 81.1089 34.9199 80.2463 35.3307ZM84.2452 35.3504C83.6769 35.6338 83.3826 36.3006 83.5884 36.8396C83.7774 37.3336 84.1395 37.5711 85.0358 37.7877C85.8662 37.9883 86.185 38.2942 85.945 38.66C85.6528 39.1065 84.9462 39.1137 84.1684 38.6784L83.8035 38.4743L83.6158 38.6845C83.3662 38.9638 83.3774 39.0305 83.7131 39.248C84.7959 39.951 86.3244 39.7802 86.6854 38.916C86.898 38.4071 86.7047 37.635 86.3228 37.4674C86.2232 37.4236 86.1259 37.3669 86.1074 37.3416C86.0885 37.3163 85.7581 37.2017 85.3727 37.0872C84.3252 36.7761 84.1415 36.5839 84.4361 36.1072C84.6395 35.778 85.2505 35.77 85.8485 36.0887C86.066 36.2045 86.2529 36.2877 86.2642 36.2728C86.275 36.2584 86.3498 36.1591 86.4302 36.053C86.6605 35.7495 86.6207 35.647 86.1914 35.436C85.6576 35.1731 84.6861 35.1305 84.2452 35.3504ZM88.9676 35.3363C88.015 35.7194 87.3904 36.7994 87.5829 37.7307C87.6195 37.9091 87.6681 38.1455 87.691 38.256C87.8844 39.199 89.468 39.9606 90.536 39.6246C92.5163 39.0012 92.7691 36.3247 90.9351 35.3998C90.503 35.182 89.4371 35.1474 88.9676 35.3363ZM94.4147 35.2957C94.2857 35.3363 94.1498 35.3938 94.1132 35.4235C94.0763 35.4533 93.9255 35.5698 93.778 35.6828C92.0991 36.9698 93.0887 39.6877 95.2395 39.695C95.8195 39.697 96.9602 39.2195 96.9602 38.9747C96.9602 38.5755 96.5277 38.4594 96.0775 38.7375C94.858 39.4904 93.4283 38.3826 93.823 36.9907C94.1036 36.0015 95.1792 35.5714 96.0253 36.1105C96.469 36.393 96.4875 36.3942 96.713 36.1587C97.289 35.5578 95.596 34.9223 94.4147 35.2957ZM98.0486 35.2768L97.8979 35.3375V37.3774C97.8979 39.7488 97.8766 39.629 98.3031 39.629H98.6266L98.672 39.3272C98.7637 38.7162 98.676 35.3419 98.5667 35.2728C98.4445 35.1952 98.2476 35.1968 98.0486 35.2768ZM101.38 35.3781C101.345 35.4722 101.297 35.6229 101.274 35.7133C101.252 35.8038 101.206 35.8777 101.173 35.8777C101.14 35.8777 101.113 35.9071 101.113 35.9428C101.113 36.014 100.835 36.67 100.677 36.9718C100.622 37.0759 100.578 37.2134 100.578 37.2765C100.578 37.34 100.544 37.4252 100.503 37.4662C100.422 37.547 99.7295 39.0784 99.6383 39.3778C99.574 39.5892 99.7074 39.6564 100.116 39.6174C100.33 39.5969 100.354 39.5675 100.532 39.1178C100.756 38.5538 100.742 38.5591 101.998 38.5583C102.885 38.5571 102.827 38.5269 103.142 39.1604L103.358 39.5957L103.71 39.6158C104.117 39.6395 104.142 39.5856 103.935 39.1342C103.799 38.838 103.558 38.2918 102.958 36.9159C102.748 36.4372 102.49 35.8568 102.383 35.6265L102.188 35.2077H101.817C101.48 35.2077 101.439 35.2238 101.38 35.3781ZM104.12 35.2909C104.01 35.3315 103.99 35.391 104.007 35.6257L104.027 35.9111L104.713 35.9304L105.399 35.9493L105.417 37.7725L105.434 39.5957H105.803H106.171L106.189 37.7725L106.207 35.9493L106.892 35.9304L107.578 35.9111L107.598 35.5932C107.616 35.3243 107.6 35.2744 107.498 35.2724C106.025 35.2431 104.222 35.2527 104.12 35.2909ZM108.733 35.2563L108.548 35.2841L108.565 37.4397L108.583 39.5957H108.918H109.253L109.27 37.4352C109.286 35.5968 109.274 35.2748 109.192 35.2748C109.139 35.2748 109.056 35.2644 109.007 35.2515C108.958 35.239 108.835 35.2411 108.733 35.2563ZM116.102 35.2563L115.916 35.2841L115.934 37.4397L115.952 39.5957L116.304 39.6158L116.655 39.6363V38.1274C116.655 36.3335 116.575 36.3729 117.593 37.6648C118.017 38.2029 118.54 38.8666 118.757 39.1395L119.15 39.6359L119.46 39.6158L119.77 39.5957L119.788 37.4429L119.806 35.2901L119.567 35.2455C119.075 35.153 119.067 35.1687 119.065 36.2338C119.06 38.1547 119.039 38.2584 118.721 37.8874C118.611 37.7584 118.462 37.5884 118.392 37.5096C118.321 37.4308 118.263 37.3464 118.263 37.3219C118.263 37.2737 117.562 36.3729 117.003 35.7017C116.807 35.4669 116.606 35.2748 116.556 35.2748C116.506 35.2748 116.425 35.2644 116.376 35.2515C116.327 35.239 116.203 35.2411 116.102 35.2563ZM124.081 35.3323C123.723 35.4766 123.188 35.9014 123.057 36.1458C123.007 36.2379 122.903 36.4324 122.826 36.5787C122.657 36.8958 122.633 37.7608 122.782 38.1796C123.639 40.582 127.274 39.9651 127.269 37.4184C127.266 35.8118 125.598 34.7205 124.081 35.3323ZM128.336 35.309C128.321 35.346 128.317 36.3259 128.327 37.4863L128.345 39.5957L128.635 39.6166C129.087 39.6491 129.115 39.5945 129.115 38.6833C129.115 38.0948 129.137 37.8858 129.199 37.881C129.245 37.8774 129.343 37.8677 129.417 37.8597C129.49 37.8517 129.952 37.8396 130.442 37.8328L131.333 37.8203L131.313 37.5024L131.293 37.184L130.221 37.1507L129.149 37.1169L129.129 36.5309L129.11 35.9449L130.201 35.9436C131.594 35.9424 131.594 35.9428 131.594 35.5686C131.594 35.3793 131.564 35.274 131.51 35.2724C130.217 35.2342 128.356 35.2555 128.336 35.309ZM134.418 35.2684C134.359 35.305 134.343 35.8693 134.356 37.4565L134.374 39.5957H134.742H135.111L135.129 38.1386C135.139 37.3372 135.171 36.6816 135.2 36.6816C135.283 36.6816 135.532 36.9742 136.284 37.9546C137.495 39.533 137.589 39.629 137.927 39.629H138.218L138.26 39.3445C138.315 38.9694 138.273 35.3665 138.212 35.3058C138.131 35.2246 137.605 35.2628 137.545 35.3544C137.513 35.4026 137.49 35.9396 137.495 36.5478C137.505 37.9903 137.5 38.0884 137.428 38.0884C137.359 38.0884 137.014 37.674 136.082 36.4718C135.168 35.2917 135.161 35.2861 134.804 35.2503C134.635 35.2334 134.461 35.2419 134.418 35.2684ZM139.615 35.2511C139.505 35.2829 139.498 35.43 139.515 37.4405L139.532 39.5957L139.884 39.6158C140.229 39.6359 140.236 39.6322 140.239 39.4486C140.252 38.8071 140.225 35.3086 140.207 35.2909C140.163 35.2475 139.73 35.2185 139.615 35.2511ZM142.737 35.3038C140.754 35.9244 140.782 39.0032 142.777 39.5892C143.489 39.7987 144.442 39.6604 145.08 39.2556L145.389 39.0599L145.391 38.1427L145.394 37.2258L145.109 37.1844C144.953 37.1615 144.538 37.1519 144.188 37.1635L143.552 37.184L143.531 37.4963C143.509 37.8484 143.603 37.9031 144.155 37.8573C144.562 37.8235 144.657 37.9035 144.657 38.2813C144.657 39.2986 142.699 39.2275 142.232 38.1933C141.872 37.3975 142.102 36.5341 142.79 36.1004C143.28 35.7917 143.781 35.7869 144.346 36.0847L144.739 36.2917L144.966 36.0715C145.246 35.7998 145.247 35.7479 144.975 35.5626C144.463 35.2145 143.412 35.0927 142.737 35.3038ZM146.458 35.2792C146.422 35.3017 146.404 36.2089 146.414 37.4565L146.432 39.5957H148.074H149.715L149.735 39.2789L149.755 38.9622L148.496 38.9441L147.236 38.9256V38.3565V37.7869L148.318 37.7685C149.501 37.7484 149.481 37.7564 149.429 37.3348L149.399 37.0835H148.301H147.203V36.514C147.203 35.9702 147.209 35.9444 147.353 35.9388C147.436 35.9356 147.846 35.9376 148.264 35.9428C149.661 35.9609 149.981 35.8271 149.685 35.3484C149.634 35.2656 146.586 35.2001 146.458 35.2792ZM150.819 35.2756C150.775 35.3026 150.757 36.067 150.769 37.4565L150.787 39.5957L151.136 39.6158C151.551 39.6399 151.548 39.6455 151.574 38.7247L151.591 38.1218L152.021 38.1017C152.513 38.0783 152.483 38.055 153.106 38.9594C153.547 39.5989 153.588 39.629 154.011 39.629C154.484 39.629 154.488 39.5912 154.084 39.0293C153.891 38.762 153.704 38.4952 153.667 38.4361C153.63 38.377 153.563 38.2874 153.516 38.2371C153.384 38.0924 153.417 37.9059 153.583 37.8625C154.631 37.588 154.597 35.7604 153.538 35.3797C153.256 35.2784 150.957 35.1904 150.819 35.2756ZM155.61 35.2567C155.385 35.313 155.378 35.3805 155.376 37.3637C155.375 39.59 155.382 39.629 155.802 39.629C156.196 39.629 156.179 39.7327 156.179 37.3532C156.179 35.0216 156.203 35.1088 155.61 35.2567ZM158.701 35.69C158.317 36.5148 157.988 37.2548 157.988 37.2966C157.988 37.3183 157.852 37.6246 157.686 37.9771C157.521 38.3296 157.385 38.6334 157.385 38.6527C157.385 38.6716 157.31 38.8521 157.218 39.0535C156.969 39.5973 156.983 39.6399 157.401 39.6158L157.751 39.5957L157.938 39.1937C158.04 38.9727 158.149 38.7468 158.18 38.6913C158.227 38.6089 158.422 38.5908 159.268 38.5908H160.299L160.548 39.1101L160.797 39.629H161.134C161.504 39.629 161.597 39.4385 161.38 39.125C161.33 39.0522 161.265 38.9176 161.237 38.8252C161.208 38.7331 161.082 38.4317 160.955 38.1555C160.828 37.879 160.686 37.5627 160.639 37.4521C160.371 36.8267 160.022 36.0578 159.834 35.6768L159.618 35.2415L159.274 35.221L158.929 35.2009L158.701 35.69ZM90.6959 36.1482C91.6554 36.8372 91.5328 38.416 90.4853 38.8605C89.4186 39.3131 88.3217 38.5072 88.3972 37.3259C88.4744 36.1109 89.7409 35.4621 90.6959 36.1482ZM113.201 35.9722C114.194 36.387 114.464 37.7906 113.699 38.5559C112.973 39.2822 111.748 39.0535 111.316 38.1113C110.735 36.8428 111.96 35.4537 113.201 35.9722ZM125.599 36.0184C126.684 36.5904 126.802 38.0775 125.814 38.7375C124.14 39.8565 122.542 37.3448 124.158 36.1342C124.554 35.8375 125.163 35.7885 125.599 36.0184ZM153.119 36.02C153.441 36.186 153.567 36.3617 153.567 36.645C153.567 37.2182 153.218 37.4184 152.219 37.4184H151.557V36.6816V35.9449H152.265C152.658 35.9449 153.038 35.9782 153.119 36.02ZM76.7161 36.4304C77.4243 37.8283 77.4195 37.8874 76.5951 37.8874C75.8189 37.8874 75.8378 37.9132 76.1192 37.2435C76.577 36.1531 76.5762 36.1547 76.7161 36.4304ZM102.049 36.6314C102.131 36.8247 102.272 37.1442 102.364 37.3408C102.604 37.8573 102.574 37.8874 101.823 37.8874C101.079 37.8874 101.056 37.8673 101.273 37.4035C101.364 37.209 101.515 36.8765 101.607 36.6647C101.815 36.1912 101.862 36.1876 102.049 36.6314ZM159.671 37.0421C159.851 37.4401 159.998 37.793 159.998 37.8263C159.998 37.891 158.64 37.914 158.576 37.8504C158.556 37.8299 158.644 37.5663 158.772 37.2644C158.899 36.9622 159.046 36.6145 159.098 36.4915C159.234 36.1667 159.308 36.2375 159.671 37.0421Z" fill="white"/>
<path fill-rule="evenodd" clip-rule="evenodd" d="M60.7346 0.706787C60.5835 0.89811 60.5827 0.909767 60.6004 2.89696L60.618 4.895L60.8797 4.9163C61.0236 4.92796 61.2121 4.91992 61.2985 4.89821L61.4557 4.85882V2.90459C61.4557 0.988547 61.4525 0.946343 61.305 0.729296C61.1193 0.456781 60.9372 0.449546 60.7346 0.706787ZM60.8713 5.6832C60.7418 6.02686 60.7326 6.0349 60.3942 6.09599C60.022 6.16352 59.9504 6.27848 60.1996 6.40991C60.4243 6.52808 60.4508 6.60284 60.4062 6.9883C60.3596 7.38984 60.3644 7.39305 60.7221 7.18927L60.9866 7.03854L61.2511 7.18927C61.6659 7.42561 61.7507 7.30262 61.5445 6.76482C61.5228 6.70775 61.606 6.57832 61.7499 6.44649C62.0252 6.19407 62.0071 6.13418 61.6534 6.13418C61.3632 6.13418 61.2945 6.06705 61.1924 5.68481C61.0855 5.28448 61.022 5.28448 60.8713 5.6832ZM57.2494 6.28089C57.2048 6.3255 57.1682 6.44568 57.1682 6.54818C57.1682 6.7395 57.1734 6.73669 56.6489 6.8432C56.4523 6.88299 56.4584 6.98991 56.671 7.21138C56.8285 7.37577 56.8374 7.41436 56.7727 7.64869C56.6782 7.99114 56.7679 8.08318 57.0424 7.92562C57.2888 7.78454 57.4926 7.77972 57.6666 7.91156C57.8752 8.06912 58.0633 8.04058 58.0119 7.8593C57.8836 7.40913 57.8881 7.35366 58.0653 7.19972C58.2948 7.00036 58.2896 6.87093 58.0521 6.87093C57.8004 6.87093 57.6328 6.73789 57.5432 6.46779C57.4608 6.21818 57.37 6.1603 57.2494 6.28089ZM64.5056 6.553L64.3263 6.93806H63.9626C63.5373 6.93806 63.5112 6.99594 63.8384 7.21419C64.0767 7.37296 64.0775 7.37456 64.0361 7.75882C63.9887 8.19774 64.0253 8.22266 64.3854 7.99998L64.6185 7.85609L64.9292 8.01526C65.1005 8.10288 65.2633 8.18487 65.2906 8.19814C65.367 8.23431 65.3509 7.95697 65.2741 7.90955C65.1153 7.81147 65.201 7.36974 65.408 7.2166C65.6861 7.01081 65.6596 6.93806 65.3063 6.93806C64.9823 6.93806 64.9996 6.95695 64.752 6.33515C64.6877 6.17397 64.678 6.18241 64.5056 6.553ZM60.6293 8.05465C60.5465 8.13745 60.5786 9.7858 60.6651 9.87222C60.7539 9.96105 61.2418 9.97994 61.3689 9.89915C61.4858 9.82479 61.5043 8.24999 61.3902 8.11212C61.3041 8.00842 60.7197 7.96421 60.6293 8.05465ZM53.5491 9.05266C53.5129 9.14712 53.4836 9.26167 53.4836 9.30709C53.4836 9.46626 53.3204 9.55067 53.0125 9.55067C52.5837 9.55067 52.5648 9.60613 52.8952 9.89071C53.1765 10.1331 53.1801 10.1415 53.0981 10.3678C53.0206 10.5824 52.9876 10.8236 53.0358 10.8236C53.0471 10.8236 53.1813 10.7633 53.3341 10.6894C53.6649 10.5294 53.7517 10.5242 53.9229 10.654C54.2589 10.908 54.4483 10.7304 54.2501 10.3469C54.1472 10.1475 54.1488 10.1423 54.4004 9.91201C54.6918 9.64512 54.6416 9.55348 54.2039 9.55187C54.029 9.55107 53.9527 9.52092 53.9527 9.45299C53.9527 9.32357 53.7324 8.88465 53.6665 8.88224C53.6379 8.88144 53.5849 8.95821 53.5491 9.05266ZM68.1781 8.99237C67.9832 9.54383 67.9772 9.55067 67.6596 9.55067C67.2653 9.55067 67.2078 9.65999 67.4836 9.88468C67.699 10.0607 67.7026 10.0728 67.6564 10.4442C67.6045 10.8602 67.6415 10.8968 67.9048 10.6894C68.1227 10.5181 68.2883 10.5205 68.5905 10.6986C68.9 10.8811 69.017 10.7959 68.8638 10.4996C68.7115 10.205 68.7288 10.1258 68.9953 9.89151C69.2818 9.6399 69.2473 9.55067 68.8622 9.55067C68.5294 9.55067 68.4422 9.4739 68.4112 9.15355C68.3867 8.89912 68.2456 8.80185 68.1781 8.99237ZM51.8879 17.9395C51.8445 17.9826 51.8091 18.0533 51.8091 18.0963C51.8091 18.3045 51.5298 18.5272 51.2681 18.5272C50.9506 18.5272 50.9409 18.5867 51.213 18.8592C51.4265 19.0722 51.4438 19.2189 51.3059 19.6494C51.2412 19.8504 51.3577 19.8447 51.6355 19.6325C51.9197 19.4159 52.193 19.4472 52.365 19.7165C52.5459 19.9991 52.6456 19.7885 52.5362 19.3548C52.4635 19.065 52.4683 19.0433 52.6403 18.8837C52.8626 18.6779 52.8361 18.5674 52.5583 18.54C52.3397 18.5183 52.1439 18.3194 52.1439 18.1188C52.1439 17.9528 51.9852 17.8419 51.8879 17.9395ZM69.7457 18.0754C69.6894 18.1614 69.6323 18.2904 69.6191 18.3628C69.6002 18.4629 69.511 18.5087 69.2429 18.5561C68.8281 18.6301 68.8232 18.6446 69.1179 18.9126C69.3393 19.1144 69.3429 19.1257 69.2742 19.4259C69.185 19.8158 69.2328 19.8588 69.5544 19.6779C69.8711 19.4999 69.9499 19.4987 70.1641 19.6663C70.4752 19.9095 70.6396 19.8363 70.4656 19.532C70.3144 19.2672 70.3446 19.0827 70.566 18.9187C70.8221 18.7294 70.8257 18.5943 70.5753 18.5943C70.3241 18.5943 70.0443 18.3692 70.0178 18.1457C69.9901 17.9118 69.8727 17.8817 69.7457 18.0754ZM57.1847 30.6252L57.2015 36.3745L57.6035 36.6635C58.1107 37.0277 58.6276 37.3014 58.7116 37.2495C58.7518 37.2246 58.7759 35.0228 58.7759 31.3241V25.4385L58.4576 25.3276C58.2828 25.2665 57.9889 25.1552 57.8045 25.0804C57.6204 25.0052 57.4017 24.9285 57.3185 24.9096L57.1674 24.8754L57.1847 30.6252ZM64.045 25.1298C63.756 25.2565 63.4782 25.3602 63.4276 25.3602C63.2069 25.3602 63.1973 25.611 63.1973 31.4206C63.1973 38.0261 63.1362 37.4742 63.8187 37.0265C64.6897 36.4553 64.6511 36.5015 64.6961 35.979C64.7878 34.9127 64.7564 24.9257 64.6611 24.912C64.6113 24.9048 64.334 25.0028 64.045 25.1298ZM60.1775 25.6013C60.0312 25.7774 60.1337 39.9104 60.2828 40.1061C60.5951 40.5173 60.8327 40.5663 61.2205 40.2995C61.678 39.9847 61.6571 40.3702 61.639 32.6622L61.6229 25.6616L60.932 25.5933C60.4219 25.5426 60.2241 25.5446 60.1775 25.6013Z" fill="white"/>
<path fill-rule="evenodd" clip-rule="evenodd" d="M61.7233 12.304C60.337 12.5745 59.2301 13.9391 59.2292 15.3788C59.2272 18.2157 62.6228 19.6446 64.6221 17.6482C66.8368 15.4375 64.8102 11.7011 61.7233 12.304ZM63.4512 13.3269C64.0437 13.6372 64.1639 14.4544 63.6936 14.9749L63.4609 15.2325L63.6655 15.3784C64.6176 16.0565 64.0493 17.5879 62.8009 17.7077C61.4295 17.8395 60.6087 16.2739 61.5967 15.411L61.8246 15.212L61.6156 15.0283C60.5223 14.0685 62.0915 12.6143 63.4512 13.3269ZM62.2896 14.0026C61.9431 14.3491 62.159 14.843 62.6574 14.843C62.9693 14.843 63.1301 14.6674 63.1301 14.3282C63.1301 13.8808 62.612 13.6802 62.2896 14.0026ZM62.4134 15.6477C62.0509 15.7936 61.9468 16.442 62.2317 16.7804C62.5513 17.1598 63.1325 16.985 63.2269 16.4813C63.3375 15.8913 62.9062 15.4492 62.4134 15.6477Z" fill="white"/>
<path fill-rule="evenodd" clip-rule="evenodd" d="M60.6089 0.691134C60.4952 0.859145 60.4819 1.05529 60.463 2.9018L60.4421 4.92838L60.6302 5.00073C60.8915 5.10041 61.4988 5.01922 61.5531 4.87734C61.6049 4.74228 61.5989 2.08265 61.545 1.33826C61.5073 0.820157 61.3393 0.399728 61.2179 0.521114C61.1926 0.546436 61.236 0.648126 61.3135 0.747004C61.4506 0.921044 61.4554 0.992991 61.4554 2.89296V4.85885L61.2983 4.89824C61.2118 4.91994 61.0233 4.92798 60.8794 4.91632L60.6178 4.89502L60.6001 2.8797C60.5832 0.933102 60.5872 0.860351 60.7175 0.742582C60.8589 0.614364 60.8935 0.507046 60.793 0.507046C60.7605 0.507046 60.6777 0.589845 60.6089 0.691134ZM60.9329 5.26682C60.8887 5.33756 60.8525 5.44246 60.8525 5.50034C60.8525 5.81144 60.6564 6.00036 60.3316 6.00116C59.7749 6.00317 59.6949 6.21017 60.1475 6.47706C60.2966 6.56508 60.3834 6.66757 60.3834 6.7548C60.3834 6.83116 60.4023 6.87457 60.4248 6.85207C60.5113 6.76565 60.3798 6.48911 60.2174 6.41516C59.9437 6.29015 60.0129 6.16515 60.3939 6.09602C60.7323 6.03492 60.7416 6.02688 60.871 5.68323C61.0217 5.2845 61.0852 5.2845 61.1921 5.68483C61.2942 6.06708 61.363 6.1342 61.6532 6.1342C62.0069 6.1342 62.025 6.19409 61.7496 6.44651C61.6057 6.57834 61.5225 6.70777 61.5442 6.76484C61.7504 7.30264 61.6656 7.42563 61.2508 7.18929L60.9864 7.03857L60.7219 7.18929C60.3895 7.37861 60.3846 7.3782 60.3778 7.15593C60.3726 6.97225 60.3722 6.97265 60.2733 7.19854C60.1246 7.54019 60.2428 7.5852 60.6431 7.33881L60.9876 7.12699L61.3634 7.33922C61.8208 7.59726 61.9269 7.54541 61.7657 7.14227C61.6061 6.74314 61.6266 6.64949 61.9257 6.40913C62.2533 6.14546 62.2312 6.09602 61.7597 6.03693L61.3923 5.99111L61.2464 5.59158C61.0776 5.12895 61.0422 5.09197 60.9329 5.26682ZM57.272 6.08195C57.1366 6.27568 57.1386 6.37617 57.2756 6.26202C57.3986 6.16033 57.5699 6.32512 57.5699 6.54498C57.5699 6.70094 57.8223 6.87096 58.0538 6.87096C58.2893 6.87096 58.2938 7.00118 58.0651 7.19974C57.8878 7.35369 57.8834 7.40915 58.0116 7.85933C58.063 8.0406 57.8749 8.06914 57.6663 7.91158C57.4923 7.77974 57.2885 7.78457 57.0421 7.92565C56.7676 8.08321 56.678 7.99116 56.7724 7.64871C56.8371 7.41438 56.8283 7.37579 56.6707 7.2114C56.4497 6.98069 56.4525 6.88342 56.6824 6.83478C56.7837 6.81308 56.9344 6.78213 57.0172 6.76525C57.1 6.74836 57.1679 6.68526 57.1679 6.62497C57.1679 6.52408 57.1583 6.52408 57.0453 6.62618C56.965 6.69893 56.805 6.73711 56.5803 6.73711C56.1526 6.73711 56.0947 6.82232 56.3673 7.05143C56.727 7.35409 56.7756 7.4196 56.7274 7.53295C56.4473 8.19053 56.5268 8.34165 57.0116 8.07276L57.4023 7.85651L57.7608 8.07718C58.2025 8.34889 58.2893 8.27614 58.1048 7.7906C57.9557 7.3975 57.9694 7.34967 58.3082 7.09926C58.6832 6.82192 58.6463 6.78374 57.9396 6.72144C57.7825 6.70737 57.727 6.66074 57.6792 6.50278C57.4927 5.88218 57.4461 5.83395 57.272 6.08195ZM64.4921 6.31829C64.4342 6.45656 64.3626 6.63341 64.3329 6.71139C64.2871 6.83237 64.2228 6.85408 63.8976 6.85689C63.3795 6.86131 63.3353 6.93728 63.6982 7.19814C64.0379 7.44171 64.0363 7.43608 63.902 7.93971C63.7778 8.40717 63.7999 8.42124 64.2654 8.16761L64.652 7.9566L65.007 8.15073C65.4443 8.38989 65.4752 8.39069 65.4732 8.16078C65.4716 7.95459 65.2107 7.55546 65.2083 7.75482C65.2075 7.81712 65.2369 7.88666 65.2738 7.90957C65.3506 7.957 65.3667 8.23434 65.2903 8.19816C65.263 8.1849 65.1002 8.1029 64.929 8.01528L64.6183 7.85611L64.3852 8.00001C64.025 8.22268 63.9884 8.19776 64.0359 7.75884C64.0773 7.37459 64.0765 7.37298 63.8381 7.21421C63.5109 6.99596 63.5371 6.93808 63.9623 6.93808H64.3261L64.5053 6.55302C64.6778 6.18243 64.6874 6.17399 64.7517 6.33517C64.9993 6.95697 64.982 6.93808 65.306 6.93808C65.6593 6.93808 65.6858 7.01083 65.4077 7.21663C65.2972 7.29822 65.2067 7.39227 65.2067 7.42523C65.2067 7.45819 65.3349 7.38665 65.4913 7.26566C65.648 7.14508 65.7903 7.03535 65.8076 7.02209C65.8884 6.96019 65.6115 6.87297 65.3317 6.87216L65.0214 6.87096L64.8964 6.46982C64.7517 6.00598 64.64 5.96418 64.4921 6.31829ZM60.531 8.02332C60.4763 8.07758 60.4506 8.38788 60.4506 8.98114C60.4506 9.5744 60.4763 9.8847 60.531 9.93936C60.6407 10.0491 61.418 10.0447 61.5101 9.93374C61.5965 9.82963 61.6025 8.32156 61.5173 8.09808C61.4502 7.92082 60.6905 7.86375 60.531 8.02332ZM61.3899 8.11215C61.5041 8.25001 61.4856 9.82481 61.3686 9.89917C61.2416 9.97996 60.7536 9.96107 60.6648 9.87224C60.5784 9.78582 60.5462 8.13747 60.629 8.05467C60.7195 7.96423 61.3039 8.00845 61.3899 8.11215ZM53.5259 8.90357C53.4745 9.02616 53.411 9.19417 53.3853 9.27616C53.3591 9.35816 53.2727 9.45181 53.1927 9.48397L53.048 9.54225L53.1948 9.54627C53.362 9.55109 53.4218 9.47834 53.5175 9.15397C53.6071 8.85131 53.6976 8.83323 53.8141 9.0961C53.9432 9.3883 53.9854 9.22351 53.8588 8.92045C53.7338 8.621 53.6457 8.61618 53.5259 8.90357ZM68.0404 9.0756C67.8664 9.47955 67.8615 9.48357 67.5906 9.48477C66.9552 9.48678 66.8856 9.58887 67.3169 9.8855C67.6449 10.111 67.6726 10.2079 67.5179 10.5789C67.4624 10.7111 67.4174 10.8502 67.4174 10.8883C67.4174 10.9908 67.7237 10.9723 67.8133 10.8642C68.0175 10.6182 68.2558 10.6022 68.5935 10.812C69.083 11.117 69.1932 11.0194 68.9548 10.4936L68.8202 10.1974L69.0364 9.97474C69.1554 9.85214 69.2916 9.75166 69.3399 9.75166C69.3877 9.75166 69.4271 9.70624 69.4271 9.65117C69.4271 9.5945 69.3672 9.55069 69.2892 9.55069C69.2133 9.55069 69.1694 9.58043 69.1919 9.61661C69.2145 9.65318 69.126 9.77698 68.995 9.89153C68.7285 10.1259 68.7112 10.205 68.8636 10.4997C69.0167 10.7959 68.8997 10.8811 68.5902 10.6986C68.288 10.5206 68.1224 10.5182 67.9045 10.6894C67.6429 10.8956 67.6075 10.859 67.6561 10.4313C67.6995 10.0475 67.6959 10.0362 67.4885 9.88872C67.2084 9.68896 67.2566 9.59128 67.6553 9.55069C67.9737 9.51813 67.9873 9.50808 68.0963 9.21587C68.171 9.01531 68.2458 8.91763 68.3189 8.92406C68.4484 8.93572 68.4343 8.73957 68.3029 8.69576C68.2494 8.67808 68.1497 8.82237 68.0404 9.0756ZM68.4267 9.21909C68.4206 9.44699 68.5396 9.5527 68.7872 9.54064C68.9745 9.5314 68.9773 9.52818 68.8181 9.50366C68.704 9.48598 68.6075 9.40278 68.5376 9.2625C68.4335 9.05389 68.4307 9.05269 68.4267 9.21909ZM52.5243 9.54104C52.4206 9.58204 52.4524 9.63108 52.7385 9.87264L53.075 10.156L52.9777 10.4309C52.7795 10.9924 52.882 11.0801 53.3885 10.7834L53.6855 10.609L54.0187 10.7834C54.5111 11.0407 54.6329 10.935 54.3873 10.4643C54.2386 10.1789 54.2611 10.1062 54.5553 9.91123C54.8696 9.70343 54.905 9.55029 54.6389 9.5519C54.4974 9.5527 54.4781 9.56757 54.5549 9.6158C54.6369 9.66765 54.6092 9.72071 54.4002 9.91203C54.1486 10.1423 54.1469 10.1476 54.2498 10.3469C54.448 10.7304 54.2587 10.908 53.9227 10.654C53.7514 10.5242 53.6646 10.5294 53.3338 10.6894C53.1811 10.7633 53.0468 10.8236 53.0356 10.8236C52.9873 10.8236 53.0203 10.5825 53.0979 10.3678C53.1803 10.1407 53.1771 10.1335 52.8832 9.88068C52.6754 9.70142 52.6148 9.6146 52.6827 9.59249C52.7361 9.57521 52.8254 9.54627 52.8804 9.52778C52.9359 9.50929 52.9058 9.49402 52.8137 9.49361C52.7217 9.49321 52.5914 9.51451 52.5243 9.54104ZM68.2595 12.5576C68.2197 12.6219 68.3531 13.0588 68.3985 13.0134C68.4134 12.9981 68.3937 12.9013 68.3547 12.798C68.3 12.6545 68.3037 12.597 68.3696 12.5552C68.4307 12.5162 68.4327 12.5001 68.376 12.4993C68.3322 12.4985 68.2795 12.525 68.2595 12.5576ZM60.0788 13.1179L59.8139 13.4025L60.0989 13.138C60.3633 12.8916 60.4144 12.8333 60.3633 12.8333C60.3525 12.8333 60.2247 12.9611 60.0788 13.1179ZM64.6372 13.101C64.7811 13.2485 64.9141 13.3691 64.9326 13.3691C64.9507 13.3691 64.8482 13.2485 64.7043 13.101C64.5604 12.9539 64.4278 12.8333 64.4093 12.8333C64.3908 12.8333 64.4933 12.9539 64.6372 13.101ZM62.4446 13.2168C62.5652 13.2317 62.746 13.2313 62.8465 13.216C62.947 13.2007 62.8485 13.1886 62.6275 13.189C62.4064 13.1894 62.324 13.2019 62.4446 13.2168ZM61.3368 14.2401C61.3368 14.3687 61.3505 14.4218 61.3674 14.3571C61.3843 14.2928 61.3843 14.1871 61.3674 14.1228C61.3505 14.0584 61.3368 14.1111 61.3368 14.2401ZM63.8823 14.3068C63.8823 14.4359 63.8964 14.4885 63.9133 14.4242C63.9298 14.3599 63.9298 14.2542 63.9133 14.1899C63.8964 14.1252 63.8823 14.1778 63.8823 14.3068ZM59.1322 15.3788C59.1322 15.6184 59.1443 15.7164 59.1591 15.5967C59.174 15.4769 59.174 15.2807 59.1591 15.161C59.1443 15.0412 59.1322 15.1393 59.1322 15.3788ZM72.1285 15.4122C72.1289 15.6702 72.141 15.7675 72.1555 15.6284C72.1699 15.4893 72.1699 15.2783 72.1551 15.1598C72.1402 15.0408 72.1285 15.1545 72.1285 15.4122ZM65.628 15.4793C65.6284 15.6634 65.6412 15.7309 65.6569 15.6292C65.6722 15.5271 65.6718 15.3764 65.6557 15.294C65.64 15.2116 65.6272 15.2952 65.628 15.4793ZM49.7489 15.5464C49.7497 15.6935 49.7634 15.7462 49.7795 15.6626C49.7955 15.5794 49.7947 15.4588 49.7783 15.3949C49.7614 15.3306 49.7481 15.3989 49.7489 15.5464ZM61.5515 15.5295L61.3549 15.7474L61.5724 15.5504C61.6922 15.4423 61.7902 15.3442 61.7902 15.3326C61.7902 15.2811 61.7348 15.3266 61.5515 15.5295ZM62.5439 15.5589C62.6082 15.5758 62.7139 15.5758 62.7782 15.5589C62.8429 15.542 62.7899 15.5283 62.6612 15.5283C62.5322 15.5283 62.4796 15.542 62.5439 15.5589ZM49.8205 17.7905C49.8205 18.03 49.8325 18.1281 49.8474 18.0083C49.8623 17.8885 49.8623 17.6924 49.8474 17.5726C49.8325 17.4528 49.8205 17.5509 49.8205 17.7905ZM51.8953 17.6731C51.8603 17.7193 51.7787 17.9002 51.7144 18.075C51.6264 18.3134 51.5601 18.3958 51.4515 18.4026C51.3716 18.4078 51.1927 18.4187 51.0536 18.4267C50.6758 18.4484 50.673 18.5087 51.0355 18.823L51.3659 19.1096L51.2522 19.4071C51.1135 19.7708 51.1083 19.934 51.2353 19.934C51.3627 19.934 51.4306 19.8194 51.3241 19.7837C51.2578 19.7616 51.2578 19.719 51.3237 19.5739C51.458 19.28 51.4234 19.0694 51.206 18.852C50.9419 18.5879 50.9523 18.5272 51.2626 18.5272C51.5388 18.5272 51.6585 18.4336 51.8173 18.0919C51.9206 17.8704 52.0038 17.8379 52.0754 17.9914C52.296 18.4665 52.3205 18.4946 52.5428 18.5272C52.8354 18.5706 52.8648 18.6755 52.6413 18.8825C52.4672 19.0441 52.464 19.059 52.5432 19.3878C52.5878 19.5743 52.6047 19.7588 52.5806 19.7973C52.5376 19.8673 52.7233 19.9794 52.7832 19.9199C52.8 19.903 52.7522 19.7109 52.6767 19.4931L52.5392 19.0968L52.8475 18.8271C53.2008 18.5184 53.1843 18.4605 52.743 18.4605C52.3864 18.4605 52.2872 18.3636 52.1393 17.8692C52.0512 17.5754 52.0006 17.5348 51.8953 17.6731ZM121.159 24.8035C121.151 28.7899 121.166 32.0653 121.194 32.0826C121.239 32.1108 121.239 27.0443 121.192 20.1687C121.183 18.7318 121.168 20.8175 121.159 24.8035ZM69.7004 17.9412C69.6337 18.0979 69.5609 18.2788 69.5388 18.3431C69.5063 18.4372 69.419 18.4605 69.0943 18.4605C68.6015 18.4605 68.5726 18.5501 68.958 18.8801C69.2579 19.1365 69.2667 19.1755 69.1216 19.5928C68.9781 20.0047 69.0698 20.0546 69.4926 19.7945C69.833 19.5851 69.8487 19.5819 70.0308 19.6896C70.2868 19.8407 70.3688 19.8263 70.1638 19.6663C69.9496 19.4987 69.8708 19.4999 69.5541 19.678C69.2325 19.8588 69.1847 19.8158 69.2739 19.4259C69.3427 19.1257 69.3391 19.1144 69.1176 18.9127C68.8218 18.6434 68.8294 18.6197 69.2293 18.5666C69.4633 18.5356 69.5782 18.4866 69.6027 18.4074C69.6779 18.1626 69.8286 17.9585 69.9271 17.9673C70.038 17.9774 70.0529 17.9283 69.9894 17.7623C69.9211 17.5847 69.8274 17.6425 69.7004 17.9412ZM70.0304 18.1707C70.03 18.3604 70.3307 18.5943 70.575 18.5943C70.8254 18.5943 70.8218 18.7294 70.5658 18.9187C70.3443 19.0827 70.3142 19.2672 70.4653 19.5321C70.5907 19.7515 70.5887 19.7857 70.4488 19.815C70.3487 19.8359 70.3544 19.852 70.4878 19.9256C70.7201 20.0538 70.7398 19.9746 70.5867 19.5309L70.4484 19.1305L70.7523 18.8737C71.1168 18.5658 71.0851 18.4605 70.6281 18.4605C70.3254 18.4605 70.2844 18.4412 70.1634 18.2426C70.0489 18.0549 70.0304 18.0449 70.0304 18.1707ZM14.0265 19.1639C14.1515 19.2925 14.2689 19.3982 14.287 19.3982C14.3055 19.3982 14.2183 19.2925 14.0933 19.1639C13.9682 19.0349 13.8509 18.9291 13.8328 18.9291C13.8143 18.9291 13.9015 19.0349 14.0265 19.1639ZM51.6413 19.6305C51.5307 19.7214 51.4761 19.7965 51.5199 19.7977C51.5641 19.7989 51.62 19.768 51.6441 19.7286C51.7425 19.5694 51.9741 19.5437 52.1899 19.6679C52.3105 19.7374 52.3905 19.7563 52.3732 19.7117C52.341 19.6289 52.034 19.4649 51.9126 19.4653C51.874 19.4657 51.7518 19.5401 51.6413 19.6305ZM36.7623 22.0779C36.7623 22.5751 36.7727 22.7785 36.7856 22.5301C36.7984 22.2813 36.7984 21.8742 36.7856 21.6258C36.7727 21.377 36.7623 21.5803 36.7623 22.0779ZM134.229 22.5132C134.229 22.8079 134.241 22.9204 134.256 22.7628C134.27 22.6053 134.27 22.3641 134.255 22.2267C134.241 22.0896 134.229 22.2186 134.229 22.5132ZM67.6541 22.4103C67.5376 22.539 67.5388 22.5402 67.71 22.4606C67.8065 22.416 67.8856 22.3565 67.8856 22.3292C67.8869 22.2375 67.7747 22.2769 67.6541 22.4103ZM55.6261 24.0406L55.6582 24.3891L55.6803 24.0953C55.6928 23.9337 55.6783 23.7769 55.6482 23.7468C55.618 23.7167 55.608 23.8489 55.6261 24.0406ZM66.2272 24.0205C66.2272 24.1495 66.2409 24.2022 66.2578 24.1379C66.2747 24.0732 66.2747 23.9679 66.2578 23.9032C66.2409 23.8388 66.2272 23.8915 66.2272 24.0205ZM125.447 24.4687C125.512 24.4856 125.617 24.4856 125.682 24.4687C125.746 24.4518 125.693 24.4381 125.565 24.4381C125.436 24.4381 125.383 24.4518 125.447 24.4687ZM57.1679 24.8079C57.1679 24.8357 57.266 24.8935 57.3858 24.9361C57.5056 24.9791 57.8589 25.1049 58.1716 25.2163C58.4839 25.3276 58.7528 25.4056 58.7689 25.3895C58.8235 25.3349 58.7291 25.2915 58.3335 25.189C58.1161 25.1331 57.7958 25.0129 57.6213 24.9221C57.2941 24.752 57.1679 24.7203 57.1679 24.8079ZM64.2465 24.9655C63.9949 25.0776 63.6781 25.1865 63.5431 25.2074C63.408 25.2279 63.2597 25.2746 63.2139 25.3107C63.0909 25.4072 63.0913 37.303 63.2139 37.4047C63.2939 37.471 63.5994 37.2978 64.5536 36.6438L64.8048 36.4718L64.8128 31.335C64.8172 28.5094 64.8249 26.0423 64.8297 25.8526C64.8345 25.6624 64.8172 25.5415 64.7911 25.5833C64.7654 25.6251 64.7421 27.8908 64.7397 30.618C64.734 37.096 64.8402 36.3564 63.8184 37.0265C63.1359 37.4742 63.197 38.0261 63.197 31.4206C63.197 25.6086 63.2067 25.3602 63.4277 25.3602C63.4788 25.3602 63.7686 25.2541 64.0724 25.1238C64.7224 24.8457 64.7742 24.8513 64.7561 25.1982C64.7429 25.4562 64.7437 25.4575 64.808 25.2597C64.9716 24.7577 64.8526 24.6954 64.2465 24.9655ZM60.0125 25.5837C59.9272 25.9317 60.0137 39.8614 60.1025 40.0322C60.1985 40.2179 60.6306 40.5435 60.6949 40.4787C60.7175 40.4562 60.664 40.4048 60.5764 40.3642C60.117 40.1504 60.1511 40.7275 60.1314 32.8041C60.1206 28.3888 60.1379 25.6488 60.1772 25.6013C60.2239 25.5447 60.4216 25.5427 60.9317 25.5933L61.6226 25.6616L61.6387 32.6622C61.6564 40.3369 61.6745 39.9956 61.2404 40.283C61.0921 40.3811 61.0052 40.4727 61.0474 40.4868C61.1624 40.5254 61.5881 40.1769 61.6612 39.9852C61.7372 39.785 61.7496 25.6255 61.6737 25.5567C61.5157 25.4144 60.0482 25.4378 60.0125 25.5837ZM26.1016 25.9969C26.1024 26.144 26.1161 26.1966 26.1322 26.113C26.1478 26.0298 26.1474 25.9092 26.1305 25.8453C26.1137 25.781 26.1008 25.8493 26.1016 25.9969ZM38.5613 26.3486C39.5103 26.359 41.0626 26.359 42.0116 26.3486C42.9602 26.3377 42.184 26.3293 40.2865 26.3293C38.3889 26.3293 37.6128 26.3377 38.5613 26.3486ZM36.7627 27.5709C36.7627 28.105 36.7731 28.3237 36.7856 28.0568C36.7984 27.7895 36.7984 27.3526 36.7856 27.0853C36.7731 26.818 36.7627 27.0367 36.7627 27.5709ZM21.2554 27.6938C21.2916 27.7614 21.3736 27.859 21.4379 27.9113C21.5102 27.9704 21.4942 27.9234 21.3957 27.7887C21.2196 27.5483 21.1537 27.5037 21.2554 27.6938ZM96.2397 27.8852C96.3044 27.9021 96.4097 27.9021 96.4744 27.8852C96.5387 27.8683 96.4861 27.8546 96.357 27.8546C96.228 27.8546 96.1754 27.8683 96.2397 27.8852ZM110.777 28.7562C110.841 28.7726 110.947 28.7726 111.011 28.7562C111.076 28.7393 111.023 28.7252 110.894 28.7252C110.765 28.7252 110.712 28.7393 110.777 28.7562ZM155.593 29.0259C155.694 29.0411 155.86 29.0411 155.961 29.0259C156.063 29.0106 155.98 28.9977 155.777 28.9977C155.574 28.9977 155.492 29.0106 155.593 29.0259ZM81.4672 32.3756C81.5858 32.3905 81.7968 32.3905 81.9359 32.376C82.0749 32.3616 81.9777 32.3495 81.7196 32.3491C81.462 32.3491 81.3482 32.3608 81.4672 32.3756ZM155.494 32.3764C155.652 32.3905 155.893 32.3905 156.03 32.376C156.167 32.3616 156.038 32.3499 155.744 32.3503C155.449 32.3503 155.336 32.3624 155.494 32.3764ZM54.2205 34.0356C54.3455 34.1643 54.4629 34.27 54.481 34.27C54.4995 34.27 54.4122 34.1643 54.2872 34.0356C54.1622 33.9066 54.0449 33.8009 54.0268 33.8009C54.0083 33.8009 54.0955 33.9066 54.2205 34.0356ZM80.8663 35.1884C80.9499 35.2041 81.0705 35.2037 81.1344 35.1868C81.1983 35.1699 81.1304 35.1571 80.9829 35.1579C80.8353 35.1587 80.7831 35.1723 80.8663 35.1884ZM84.9528 35.1884C85.036 35.2041 85.1566 35.2037 85.2209 35.1868C85.2848 35.1699 85.2165 35.1571 85.0694 35.1579C84.9219 35.1587 84.8696 35.1723 84.9528 35.1884ZM89.6756 35.1888C89.7777 35.2045 89.9284 35.2041 90.0108 35.188C90.0932 35.1719 90.0096 35.1595 89.8255 35.1599C89.6414 35.1607 89.5739 35.1735 89.6756 35.1888ZM95.1018 35.1888C95.2039 35.2045 95.3546 35.2041 95.437 35.188C95.5194 35.1719 95.4358 35.1595 95.2517 35.1599C95.0676 35.1607 95.0001 35.1735 95.1018 35.1888ZM124.845 35.1888C124.947 35.2045 125.098 35.2041 125.181 35.188C125.263 35.1719 125.179 35.1595 124.995 35.1599C124.811 35.1607 124.744 35.1735 124.845 35.1888ZM143.368 35.1892C143.489 35.2045 143.67 35.2041 143.77 35.1888C143.871 35.1735 143.773 35.1611 143.552 35.1615C143.331 35.1619 143.248 35.1743 143.368 35.1892ZM98.5464 35.2539C98.5898 35.2853 98.6385 35.4457 98.6541 35.6109L98.6827 35.9111L98.6754 35.5815C98.6702 35.3496 98.6385 35.2439 98.5677 35.2246C98.4982 35.2061 98.4918 35.2149 98.5464 35.2539ZM105.25 35.2579C105.591 35.27 106.148 35.27 106.489 35.2579C106.83 35.2455 106.551 35.2358 105.87 35.2358C105.188 35.2358 104.909 35.2455 105.25 35.2579ZM129.329 35.2575C129.65 35.27 130.193 35.27 130.535 35.2579C130.878 35.2455 130.616 35.2354 129.952 35.2354C129.289 35.2354 129.009 35.2455 129.329 35.2575ZM138.071 35.2511C138.152 35.2688 138.231 35.342 138.247 35.4139C138.271 35.5156 138.275 35.5112 138.268 35.393C138.262 35.2817 138.215 35.2383 138.092 35.2302C137.952 35.2214 137.949 35.2246 138.071 35.2511ZM147.691 35.2575C147.979 35.2704 148.431 35.27 148.696 35.2575C148.961 35.2447 148.727 35.2346 148.174 35.2346C147.621 35.2346 147.404 35.2451 147.691 35.2575ZM149.514 35.2535C149.587 35.2736 149.672 35.3247 149.703 35.3665C149.739 35.4167 149.749 35.4083 149.731 35.342C149.716 35.2865 149.631 35.2358 149.542 35.229C149.414 35.2194 149.408 35.2246 149.514 35.2535ZM151.677 35.2575C151.908 35.2708 152.27 35.2704 152.481 35.2571C152.691 35.2439 152.501 35.2334 152.059 35.2334C151.617 35.2334 151.445 35.2443 151.677 35.2575ZM108.496 37.4312C108.489 38.5989 108.505 39.5683 108.533 39.5852C108.56 39.6025 108.575 38.9787 108.566 38.1993C108.534 35.5562 108.511 35.3018 108.496 37.4312ZM119.026 36.2797C119.026 36.8139 119.036 37.0325 119.049 36.7652C119.062 36.4983 119.062 36.061 119.049 35.7941C119.036 35.5268 119.026 35.7455 119.026 36.2797ZM140.265 37.2174C140.265 38.2677 140.274 38.6973 140.285 38.172C140.297 37.6471 140.297 36.7881 140.285 36.2628C140.274 35.7379 140.265 36.1675 140.265 37.2174ZM131.594 35.7612C131.594 35.8199 131.541 35.8818 131.477 35.8986C131.367 35.9272 131.367 35.9296 131.479 35.9368C131.6 35.9449 131.712 35.7728 131.636 35.6961C131.612 35.6731 131.594 35.7025 131.594 35.7612ZM57.1679 36.4115C57.1679 36.4742 58.5454 37.4168 58.6712 37.4401C58.7057 37.4469 58.7463 37.3959 58.7612 37.3267C58.7781 37.2508 58.7608 37.219 58.7174 37.2455C58.6225 37.3042 58.1981 37.082 57.631 36.6776C57.3761 36.4955 57.1679 36.3761 57.1679 36.4115ZM116.684 38.1889C116.684 38.9626 116.693 39.2701 116.705 38.8718C116.717 38.4739 116.717 37.8408 116.705 37.465C116.693 37.0896 116.683 37.4152 116.684 38.1889ZM114.125 37.4184C114.125 37.5474 114.139 37.6001 114.156 37.5357C114.172 37.4714 114.172 37.3657 114.156 37.3014C114.139 37.2367 114.125 37.2898 114.125 37.4184ZM130.003 37.8702C130.251 37.883 130.659 37.883 130.907 37.8702C131.156 37.8573 130.952 37.8468 130.455 37.8468C129.958 37.8468 129.754 37.8573 130.003 37.8702ZM76.0117 38.6069C76.2617 38.6202 76.6536 38.6198 76.8827 38.6069C77.1114 38.5936 76.9064 38.5832 76.4277 38.5832C75.9486 38.5836 75.7613 38.594 76.0117 38.6069ZM101.367 38.6069C101.561 38.6206 101.863 38.6202 102.037 38.6065C102.21 38.5928 102.051 38.5816 101.683 38.582C101.314 38.582 101.172 38.5932 101.367 38.6069ZM158.439 38.6057C158.557 38.6206 158.768 38.6206 158.907 38.6061C159.046 38.5916 158.949 38.5796 158.691 38.5792C158.433 38.5792 158.32 38.5908 158.439 38.6057ZM159.577 38.6057C159.696 38.6206 159.907 38.6206 160.046 38.6061C160.185 38.5916 160.088 38.5796 159.83 38.5792C159.572 38.5792 159.458 38.5908 159.577 38.6057ZM85.1538 39.0068C85.237 39.0225 85.3576 39.0221 85.4219 39.0052C85.4858 38.9883 85.4175 38.9755 85.2703 38.9763C85.1228 38.9771 85.0706 38.9908 85.1538 39.0068ZM95.1681 39.0056C95.2324 39.0221 95.3381 39.0221 95.4024 39.0056C95.4668 38.9888 95.4141 38.9747 95.2851 38.9747C95.1561 38.9747 95.1034 38.9888 95.1681 39.0056ZM124.811 39.0064C124.894 39.0225 125.029 39.0225 125.113 39.0064C125.195 38.9908 125.127 38.9775 124.962 38.9775C124.796 38.9775 124.728 38.9908 124.811 39.0064ZM143.367 39.0064C143.45 39.0225 143.586 39.0225 143.669 39.0064C143.752 38.9908 143.684 38.9775 143.518 38.9775C143.352 38.9775 143.284 38.9908 143.367 39.0064Z" fill="white"/>
</svg>
