<svg width="122" height="81" viewBox="0 0 122 81" fill="none" xmlns="http://www.w3.org/2000/svg">
<path fill-rule="evenodd" clip-rule="evenodd" d="M36.67 17.4666C36.67 17.5597 36.8897 17.9335 37.8817 19.5295C38.162 19.98 38.8052 21.0166 39.3115 21.8333C39.8178 22.65 40.3763 23.5458 40.5523 23.8237C40.7285 24.1016 41.2327 24.9107 41.6729 25.6218C42.6037 27.1244 42.4975 27.0604 42.9158 26.3745C43.097 26.0775 43.4385 25.5281 43.6749 25.1537C43.9112 24.7796 44.2331 24.2572 44.3902 23.9933C44.5471 23.7291 44.9254 23.1166 45.2303 22.6324C45.5354 22.1482 45.9948 21.4122 46.2505 20.9969C46.5065 20.5816 46.8239 20.0698 46.9558 19.8596C47.0881 19.6496 47.4021 19.1427 47.6536 18.7338C47.9054 18.3245 48.1881 17.8728 48.2819 17.7296L48.4524 17.4696H42.688C39.5175 17.4696 36.8663 17.4478 36.7969 17.4211C36.7256 17.3935 36.67 17.4135 36.67 17.4666ZM51.3744 17.8097C51.2246 18.0409 50.7298 18.8242 50.275 19.5507C49.8203 20.277 49.2757 21.1416 49.0652 21.4717C48.8546 21.8021 48.5713 22.2523 48.4357 22.4722C48.3001 22.6924 48.0558 23.0805 47.8926 23.3344C47.7297 23.5883 47.1846 24.4526 46.6816 25.2553C46.1786 26.058 45.449 27.2145 45.0601 27.8249L44.3529 28.9352L44.5901 29.3059C44.7206 29.5095 44.9387 29.8565 45.0746 30.0765C45.2108 30.2967 45.5816 30.8813 45.8989 31.3758C46.2162 31.87 47.0311 33.1487 47.71 34.2172C49.2672 36.6675 49.3722 36.8316 49.847 37.561C50.0617 37.891 50.2641 38.2153 50.2965 38.2812C50.329 38.3473 50.6369 38.8336 50.9806 39.3618L51.6062 40.3222L58.8989 40.3429L66.1914 40.3632L67.0996 38.9586C67.599 38.1862 68.0437 37.4912 68.0877 37.4144C68.1699 37.2706 69.8197 34.6835 70.5908 33.4888C70.8287 33.1202 71.1594 32.5978 71.3256 32.3281C71.4919 32.0584 72.0291 31.2132 72.5194 30.4502C73.559 28.8324 73.5314 28.9929 72.9292 28.0755C72.6692 27.6793 72.2912 27.085 72.0898 26.7549C71.8881 26.4245 71.4027 25.65 71.011 25.0339C70.6191 24.4174 70.11 23.6071 69.8791 23.2328C69.4905 22.6023 69.1359 22.0399 68.4909 21.0315C68.3501 20.8115 68.0938 20.4056 67.9212 20.1296C67.4713 19.4097 66.9298 18.5533 66.5305 17.9298L66.1844 17.3895H58.9159H51.6472L51.3744 17.8097ZM69.4086 17.5148C69.4086 17.5618 69.7114 18.0839 70.0818 18.6755C70.4519 19.2668 71.0862 20.291 71.4912 20.9514C71.8962 21.6118 72.3094 22.2783 72.4092 22.4325C72.509 22.5863 73.013 23.3969 73.529 24.2333C74.045 25.0697 74.5356 25.8518 74.6193 25.971C74.703 26.0902 74.7716 26.2058 74.7716 26.2276C74.7716 26.3147 75.1884 26.8747 75.253 26.8747C75.2913 26.8747 75.5695 26.4785 75.871 25.9943C76.7244 24.6249 78.3004 22.0872 78.6423 21.5327C78.8122 21.2569 79.4374 20.2506 80.0317 19.2959C80.626 18.3412 81.1084 17.5394 81.1035 17.5139C81.0869 17.4232 69.4086 17.4241 69.4086 17.5148ZM62.9856 22.6248L63.0063 26.7795L63.7453 25.7064C64.6669 24.368 65.615 22.9816 66.4089 21.8121C67.0948 20.8012 67.1415 20.7751 67.4085 21.2517C67.5131 21.4386 67.8981 22.0936 68.2637 22.707C68.6292 23.3204 68.9284 23.8492 68.9284 23.8826C68.9284 23.9423 65.888 28.2805 65.6768 28.522C65.473 28.755 65.5622 28.8921 66.4595 29.7264C66.9507 30.1833 67.3921 30.5947 67.44 30.6405C67.4883 30.6866 68.0137 31.1686 68.608 31.7117C69.2023 32.2547 69.6977 32.7216 69.7089 32.7489C69.7265 32.7932 68.2864 35.053 67.9245 35.5487L67.7865 35.7377L65.3965 33.3487L63.0066 30.9596L62.9856 34.9608L62.965 38.9616L61.3714 38.9835L59.7778 39.005L59.8245 28.7996C59.8503 23.1863 59.8946 18.5563 59.9231 18.5102C59.9568 18.4556 60.4931 18.434 61.47 18.4483L62.965 18.4701L62.9856 22.6248ZM59.0603 28.7759L59.0427 38.9616L58.5224 38.9868C55.5855 39.1288 51.9888 37.7794 50.1027 35.8278C47.0359 32.6545 46.7938 27.1605 49.543 23.1248C50.3211 21.9823 50.5523 21.6874 51.2243 20.9808C52.4359 19.7064 53.4052 19.0884 54.6402 18.8032C55.435 18.62 55.4951 18.6154 57.3797 18.6021L59.0782 18.5903L59.0603 28.7759ZM55.1605 22.4337C51.6772 23.0392 49.604 27.8161 51.0441 31.9176C51.8501 34.2133 53.9795 35.7541 55.861 35.4034C55.8719 35.4013 55.881 32.464 55.881 28.8761V22.3524L55.7008 22.3618C55.6019 22.3669 55.3586 22.3994 55.1605 22.4337ZM41.726 32.1379C41.3153 32.8093 40.8411 33.5747 40.6727 33.8386C40.5043 34.1028 40.0693 34.8051 39.7062 35.3997C39.343 35.994 38.9302 36.6602 38.7888 36.8805C38.6477 37.1004 38.2882 37.6768 37.99 38.161C37.6921 38.6455 37.2713 39.3214 37.0553 39.6636C36.8393 40.0055 36.6843 40.3207 36.711 40.3638C36.7692 40.4581 48.3274 40.4748 48.3853 40.3808C48.4062 40.3468 48.2803 40.1038 48.1053 39.8405C47.93 39.5772 47.5347 38.9477 47.2264 38.4413C46.6343 37.4687 45.4287 35.5241 45.1668 35.1194C45.0816 34.9875 44.7673 34.483 44.4688 33.9988C44.1703 33.5146 43.8132 32.9382 43.6755 32.7182C43.5377 32.498 43.2295 32.0026 42.9905 31.6176C42.7514 31.2323 42.5372 30.9171 42.5145 30.9171C42.492 30.9171 42.1371 31.4665 41.726 32.1379ZM74.8957 31.4174C74.612 31.907 74.3614 32.3139 73.8469 33.1184C73.7065 33.3383 73.2026 34.1489 72.7275 34.9192C72.2524 35.6898 71.7479 36.5004 71.6062 36.7203C70.8408 37.9101 69.4584 40.1809 69.4271 40.3004C69.3931 40.4302 69.7423 40.4387 75.243 40.4415C79.6134 40.4436 81.0951 40.4211 81.0951 40.352C81.0951 40.2725 80.6461 39.5134 80.0123 38.5214C79.3546 37.4915 79.0452 36.9964 78.4621 36.0399C78.0996 35.4456 77.5851 34.617 77.3187 34.199C77.0523 33.7807 76.7283 33.2585 76.5985 33.0383C76.4683 32.8181 76.1671 32.3318 75.9283 31.9577C75.6896 31.5833 75.4587 31.1962 75.415 31.0973C75.294 30.8225 75.2106 30.8738 74.8957 31.4174ZM22.3421 53.683C22.3421 55.4647 22.3118 56.9412 22.2745 56.9639C22.2375 56.987 22.0858 56.8438 21.9377 56.6463C21.3013 55.7966 20.1815 55.3867 19.1112 55.6112C15.3974 56.3903 15.4896 63.1115 19.2202 63.568C20.4594 63.7197 21.4882 63.248 22.1092 62.2432C22.3643 61.8303 22.4222 61.9134 22.4222 62.6949V63.4154H23.4228H24.4233V57.0119C24.4233 53.4897 24.4233 50.581 24.4236 50.5483C24.4236 50.5152 23.9555 50.4782 23.383 50.4657L22.3421 50.4433V53.683ZM67.1673 56.9318V63.4154H68.2291H69.2909L69.2606 61.4541C69.2414 60.2091 69.259 59.4931 69.3085 59.4931C69.3743 59.4931 70.9309 61.7354 71.7664 63.0335L72.01 63.4118L73.4004 63.4136L74.7907 63.4154L74.5956 63.1551C74.4882 63.0122 74.1294 62.5168 73.7978 62.0545C73.4662 61.5925 72.8834 60.784 72.5024 60.2579C71.6563 59.0897 71.6557 59.1776 72.5118 58.1856C72.898 57.7381 73.5305 57.0028 73.917 56.5517L74.6202 55.731L73.2751 55.7356L71.9299 55.7401L70.7292 57.3046C70.069 58.165 69.5036 58.9095 69.4729 58.9586C69.337 59.1776 69.3209 58.7114 69.3264 54.6999L69.3322 50.4481H68.2497H67.1673V56.9318ZM86.4049 51.1687C85.9083 51.496 85.7011 52.1819 85.9117 52.8017C86.1947 53.6348 87.6633 53.7613 88.16 52.9955C88.8853 51.8767 87.5074 50.4421 86.4049 51.1687ZM102.387 54.5267V55.8039L101.847 55.8275L101.307 55.8512L101.284 56.6715L101.261 57.4921H101.824H102.387V60.4536V63.4154H103.508H104.628V60.4536V57.4921H105.269H105.909V56.6515V55.8111H105.269H104.628V54.5303V53.2498H103.508H102.387V54.5267ZM53.8599 55.7125C53.5211 55.8691 52.8694 56.4707 52.7994 56.6912C52.6656 57.1123 52.519 56.9227 52.519 56.329V55.731H51.4879C50.2183 55.731 50.3603 55.2247 50.359 59.7534L50.3578 63.4154H51.4342H52.5105L52.5348 60.9539C52.5588 58.5075 52.5603 58.4908 52.7538 58.1726C53.4753 56.987 54.6742 56.9621 55.0683 58.1243C55.1302 58.307 55.1605 59.2216 55.1605 60.9059V63.4154H56.2411H57.3217L57.3199 60.3138C57.3181 56.9181 57.3178 56.9169 56.8205 56.3278C56.2751 55.6816 54.6548 55.3449 53.8599 55.7125ZM33.7892 58.5927L33.7901 61.4541L33.9888 61.8816C35.1107 64.291 39.3561 64.2846 40.4543 61.8719C40.5769 61.6028 40.5923 61.2415 40.5923 58.6501V55.731H39.4756H38.3589L38.3349 58.4453L38.311 61.1596L38.0631 61.4669C37.6275 62.0075 36.9531 62.0321 36.3658 61.5291C35.8922 61.1241 35.8707 60.9778 35.8701 58.1926L35.8698 55.731H34.8292H33.7886L33.7892 58.5927ZM86.0269 55.9161C86.0012 56.0126 85.9796 57.7391 85.979 59.7534L85.9778 63.4154H87.0985H88.2191V59.6218C88.2191 56.4622 88.2006 55.8211 88.1081 55.7857C87.7292 55.64 86.0731 55.7441 86.0269 55.9161ZM20.9327 57.4502C23.1036 57.9687 22.7508 61.8516 20.5347 61.8315C18.1854 61.8103 18.0376 57.5018 20.3809 57.3432C20.4248 57.3401 20.6733 57.3884 20.9327 57.4502Z" fill="white"/>
<path fill-rule="evenodd" clip-rule="evenodd" d="M36.5468 17.3947C36.5177 17.4417 36.5156 17.5018 36.542 17.5282C36.5683 17.5546 36.5899 17.5342 36.5899 17.483C36.5899 17.4126 38.0558 17.3895 42.5226 17.3895H48.4553L48.4104 17.5612C48.3783 17.6838 48.3901 17.7081 48.4517 17.6465C48.4993 17.5992 48.5163 17.5039 48.4899 17.4347C48.4298 17.2788 36.6427 17.2394 36.5468 17.3947ZM54.3201 17.3683C61.2454 17.4232 66.3481 17.4238 66.3145 17.3695C66.2938 17.3364 62.9926 17.3179 58.9777 17.3283C54.9632 17.3389 52.8672 17.3568 54.3201 17.3683ZM75.1917 17.3695C79.3136 17.3841 81.1751 17.4168 81.1751 17.4748C81.1751 17.5212 81.2148 17.5342 81.2637 17.5042C81.5303 17.3395 80.6199 17.3134 75.1717 17.3301L69.2083 17.3483L75.1917 17.3695ZM69.2514 17.5097C69.2517 17.5537 69.3257 17.6796 69.4155 17.7897C69.5244 17.9226 69.5514 17.9362 69.4965 17.8297C69.3615 17.5685 69.2508 17.4238 69.2514 17.5097ZM80.6654 18.37L80.5213 18.6303L80.6863 18.4301C80.8326 18.2526 80.8978 18.1097 80.8323 18.1097C80.8195 18.1097 80.7446 18.2268 80.6654 18.37ZM56.9415 18.6497C57.3268 18.6643 57.9569 18.6643 58.3422 18.6497C58.7275 18.6352 58.4123 18.623 57.642 18.623C56.8714 18.623 56.5562 18.6352 56.9415 18.6497ZM55.7016 18.7268C55.8011 18.7459 55.9452 18.7453 56.022 18.7253C56.0984 18.7053 56.0168 18.6895 55.8409 18.6904C55.6646 18.6913 55.6021 18.7077 55.7016 18.7268ZM52.0345 20.2512L51.7584 20.5513L52.0588 20.2755C52.3382 20.0185 52.3958 19.9509 52.3345 19.9509C52.3212 19.9509 52.1862 20.0859 52.0345 20.2512ZM51.0737 21.2117L50.798 21.5117L51.0983 21.236C51.3777 20.9793 51.435 20.9114 51.3741 20.9114C51.3607 20.9114 51.2257 21.0467 51.0737 21.2117ZM55.9189 28.6358C55.9189 31.9817 55.9289 33.3386 55.941 31.6516C55.9528 29.9643 55.9528 27.2269 55.941 25.5681C55.9289 23.9096 55.9189 25.2899 55.9189 28.6358ZM59.92 26.8747C59.92 28.856 59.9303 29.6548 59.9431 28.6504C59.9558 27.6459 59.9558 26.025 59.9431 25.0484C59.9303 24.0719 59.92 24.8937 59.92 26.8747ZM52.4362 23.8532L51.9987 24.3134L52.4589 23.8759C52.8867 23.4694 52.9558 23.3929 52.8964 23.3929C52.8839 23.3929 52.6767 23.5998 52.4362 23.8532ZM58.9598 28.5957C58.9598 30.9511 58.9702 31.9146 58.9826 30.7369C58.995 29.5593 58.995 27.6322 58.9826 26.4546C58.9702 25.2769 58.9598 26.2404 58.9598 28.5957ZM47.8465 27.405C47.7797 27.7387 47.8443 27.8033 47.9162 27.4751C47.9469 27.3368 47.9551 27.2069 47.9344 27.1866C47.9141 27.166 47.8744 27.2646 47.8465 27.405ZM65.5023 28.6118C65.3488 28.765 65.3868 28.8667 65.7065 29.1603L66.0065 29.4364L65.7287 29.1339C65.4866 28.8706 65.4632 28.8108 65.5491 28.6737C65.661 28.4944 65.6431 28.4708 65.5023 28.6118ZM50.4652 29.1961C50.4655 29.5483 50.4797 29.6824 50.4964 29.4943C50.5134 29.3059 50.5131 29.0177 50.4961 28.8539C50.4788 28.6898 50.4649 28.8439 50.4652 29.1961ZM47.6632 29.4764C47.6632 29.8065 47.6772 29.9415 47.6945 29.7765C47.7118 29.6114 47.7118 29.3411 47.6945 29.1761C47.6772 29.0111 47.6632 29.1461 47.6632 29.4764ZM66.647 30.0365C66.8639 30.2567 67.0592 30.4369 67.0811 30.4369C67.1032 30.4369 66.9437 30.2567 66.727 30.0365C66.5101 29.8165 66.3148 29.6363 66.2926 29.6363C66.2708 29.6363 66.43 29.8165 66.647 30.0365ZM62.9249 30.9305C62.9249 30.9818 62.9501 30.9984 62.9813 30.9675C63.0123 30.9363 64.102 31.9659 65.4025 33.2552L67.7676 35.5997L65.4068 33.2185C63.1172 30.909 62.9249 30.7315 62.9249 30.9305ZM68.4481 31.6625C68.4481 31.6762 68.5649 31.7933 68.7081 31.9228L68.9683 32.1579L68.7332 31.8976C68.5139 31.6552 68.4481 31.6006 68.4481 31.6625ZM59.839 36.3202C59.839 37.773 59.8496 38.3785 59.863 37.6659C59.8763 36.9533 59.8763 35.7647 59.863 35.0245C59.8496 34.2843 59.839 34.8673 59.839 36.3202ZM50.1976 35.8399C50.4812 36.126 50.7312 36.3602 50.7534 36.3602C50.7755 36.3602 50.5613 36.126 50.2777 35.8399C49.994 35.5536 49.744 35.3197 49.7219 35.3197C49.7001 35.3197 49.9139 35.5536 50.1976 35.8399ZM40.0177 40.5024C41.5728 40.5146 44.0944 40.5146 45.6209 40.5024C47.1475 40.4903 45.8752 40.4803 42.7935 40.4803C39.7119 40.4803 38.4626 40.4903 40.0177 40.5024ZM72.4301 40.5024C73.9382 40.5146 76.4055 40.5146 77.9132 40.5024C79.421 40.4903 78.1875 40.4803 75.1717 40.4803C72.1562 40.4803 70.9224 40.4903 72.4301 40.5024ZM23.3626 50.3468L24.5033 50.3723V56.8918V63.4109L23.4224 63.4367L22.3418 63.4625L23.4424 63.4588L24.5433 63.4555V56.8918V50.328L23.3826 50.3244L22.2219 50.321L23.3626 50.3468ZM67.1408 50.3459C67.1196 50.3802 67.6029 50.3972 68.2154 50.3838L69.3284 50.3596V54.6016C69.3284 56.9345 69.3554 58.86 69.3885 58.8806C69.4216 58.901 69.4304 56.9849 69.4085 54.6228L69.3685 50.328L68.2739 50.3059C67.672 50.2934 67.1621 50.3116 67.1408 50.3459ZM22.2001 53.7625L22.1819 56.7164L22.0053 56.5638C21.8497 56.4294 21.8521 56.4406 22.0254 56.6563L22.2219 56.9015L22.2438 55.3958C22.2556 54.5676 22.2547 53.1967 22.242 52.3491C22.2289 51.5018 22.2101 52.1376 22.2001 53.7625ZM86.9582 50.9035C87.0353 50.9235 87.1615 50.9235 87.2386 50.9035C87.3156 50.8835 87.2525 50.8668 87.0984 50.8668C86.9443 50.8668 86.8812 50.8835 86.9582 50.9035ZM85.7439 52.694C85.7405 52.7626 85.7936 52.8888 85.8622 52.9743C85.9847 53.1272 85.9853 53.1269 85.9131 52.9695C85.8725 52.8815 85.8194 52.7553 85.7948 52.6895C85.7563 52.5857 85.7493 52.5863 85.7439 52.694ZM102.747 53.1433C103.719 53.2015 104.691 53.2046 104.656 53.1497C104.636 53.1166 104.108 53.0963 103.483 53.1045C102.858 53.1127 102.527 53.13 102.747 53.1433ZM104.66 54.3704C104.66 54.9647 104.672 55.2077 104.688 54.9107C104.703 54.6134 104.703 54.1271 104.688 53.8301C104.672 53.5328 104.66 53.7758 104.66 54.3704ZM19.4816 55.4683C19.6032 55.4868 19.7831 55.4862 19.8817 55.4671C19.98 55.4483 19.8805 55.4331 19.6606 55.4338C19.4403 55.4344 19.3599 55.4498 19.4816 55.4683ZM54.6602 55.4674C54.7594 55.4865 54.9214 55.4865 55.0203 55.4674C55.1195 55.4483 55.0385 55.4328 54.8404 55.4328C54.6423 55.4328 54.561 55.4483 54.6602 55.4674ZM33.7619 55.6288C33.7406 55.6631 34.2236 55.6801 34.8355 55.6667L35.9473 55.6425L35.9701 58.1884L35.9929 60.7339L35.9913 58.1726L35.9895 55.6109L34.8953 55.5888C34.2931 55.5766 33.7831 55.5945 33.7619 55.6288ZM38.8913 55.6303C39.2104 55.6455 39.7328 55.6455 40.052 55.6303C40.3711 55.6152 40.1099 55.6027 39.4716 55.6027C38.8333 55.6027 38.5721 55.6152 38.8913 55.6303ZM72.37 55.6252C73.4297 55.6831 74.6917 55.6862 74.6917 55.6309C74.6914 55.5979 74.0701 55.5779 73.3108 55.586C72.5512 55.5945 72.128 55.6121 72.37 55.6252ZM40.7085 58.4526C40.7085 60.0156 40.7191 60.6548 40.7321 59.8733C40.7455 59.0921 40.7455 57.8134 40.7321 57.0319C40.7191 56.2504 40.7085 56.8896 40.7085 58.4526ZM52.5821 56.0787C52.6243 56.8332 52.6206 56.8211 52.7593 56.6494C52.8284 56.5638 52.8369 56.5262 52.779 56.5608C52.704 56.606 52.6792 56.5116 52.6792 56.1806C52.6792 55.9386 52.6522 55.7238 52.6191 55.7034C52.586 55.6828 52.5693 55.8518 52.5821 56.0787ZM85.9513 55.7089C85.9301 55.7432 86.4313 55.7602 87.065 55.7468L88.2175 55.7229L88.2394 59.609L88.2615 63.4955L88.2603 59.5933L88.2591 55.691L87.1245 55.6689C86.5005 55.6567 85.9726 55.6746 85.9513 55.7089ZM101.787 55.7253L101.226 55.7711L101.203 56.6048C101.191 57.0632 101.209 57.4666 101.243 57.5015C101.278 57.5364 101.295 57.1702 101.281 56.6879L101.256 55.8111H101.822C102.145 55.8111 102.387 55.7769 102.387 55.7311C102.387 55.6871 102.378 55.6573 102.367 55.6652C102.356 55.6728 102.095 55.6998 101.787 55.7253ZM105.008 55.7896C105.196 55.8066 105.502 55.8066 105.689 55.7896C105.876 55.7729 105.723 55.759 105.349 55.759C104.975 55.759 104.821 55.7729 105.008 55.7896ZM74.4063 56.0711L74.1712 56.3314L74.4314 56.0963C74.5743 55.9671 74.6914 55.85 74.6914 55.836C74.6914 55.7744 74.6253 55.8287 74.4063 56.0711ZM17.5934 56.3038L17.179 56.7167L17.6192 56.3293C17.8616 56.1163 18.0746 55.9307 18.0931 55.9167C18.1113 55.9028 18.0994 55.8912 18.067 55.8912C18.0342 55.8912 17.8212 56.0769 17.5934 56.3038ZM38.3064 58.2924C38.3064 59.6351 38.3173 60.1845 38.3309 59.5132C38.3443 58.8418 38.3443 57.7433 38.3309 57.072C38.3173 56.4006 38.3064 56.9497 38.3064 58.2924ZM50.2956 59.7085C50.2859 61.742 50.3047 63.4227 50.3377 63.443C50.3923 63.477 50.3911 60.7115 50.3353 57.3319C50.3235 56.6057 50.3056 57.6751 50.2956 59.7085ZM105.995 57.3052C105.992 57.4008 105.944 57.497 105.889 57.5191C105.811 57.5507 105.811 57.561 105.892 57.5658C106.013 57.5731 106.101 57.3799 106.043 57.2346C106.02 57.1781 105.999 57.21 105.995 57.3052ZM20.2807 57.4672C20.3577 57.4873 20.4839 57.4873 20.561 57.4672C20.638 57.4469 20.5749 57.4305 20.4208 57.4305C20.2667 57.4305 20.2039 57.4469 20.2807 57.4672ZM73.0453 57.672L72.8105 57.9323L73.0705 57.6972C73.2137 57.568 73.3308 57.4509 73.3308 57.4372C73.3308 57.3753 73.2647 57.4296 73.0453 57.672ZM104.664 60.6939C104.664 62.2569 104.675 62.8961 104.688 62.1146C104.701 61.3331 104.701 60.0544 104.688 59.2732C104.675 58.4917 104.664 59.1309 104.664 60.6939ZM52.6625 58.3925C52.6142 58.4502 52.5678 63.4788 52.6158 63.4309C52.6661 63.3802 52.7486 58.3725 52.6992 58.3725C52.688 58.3725 52.6716 58.3816 52.6625 58.3925ZM16.2847 59.6934C16.2853 60.0016 16.2995 60.1178 16.3168 59.9515C16.3344 59.7856 16.3341 59.5335 16.3162 59.3912C16.2986 59.2492 16.2844 59.3852 16.2847 59.6934ZM22.286 59.6533C22.286 59.8954 22.3008 59.9943 22.3193 59.8733C22.3375 59.7522 22.3375 59.5541 22.3193 59.4331C22.3008 59.312 22.286 59.4112 22.286 59.6533ZM69.3112 61.5743C69.2987 62.6309 69.3142 63.4955 69.3457 63.4955C69.3773 63.4955 69.4131 62.6309 69.4258 61.5743C69.4383 60.5176 69.4228 59.653 69.3912 59.6533C69.3597 59.6533 69.3236 60.5179 69.3112 61.5743ZM22.2893 62.735C22.2896 63.0872 22.3039 63.2213 22.3205 63.0332C22.3375 62.8448 22.3372 62.5566 22.3202 62.3928C22.3029 62.2286 22.289 62.3828 22.2893 62.735ZM19.7804 63.6554L19.2601 63.7079L19.7404 63.7161C20.0046 63.7206 20.2928 63.6933 20.3808 63.6554C20.5577 63.5796 20.5343 63.5796 19.7804 63.6554ZM36.1097 63.6545C36.1758 63.6976 36.3169 63.7337 36.4233 63.7343C36.6803 63.7361 36.6151 63.6906 36.2698 63.6272C36.0726 63.5911 36.0253 63.599 36.1097 63.6545ZM37.0504 63.7919C37.1493 63.811 37.3113 63.811 37.4105 63.7919C37.5094 63.7731 37.4284 63.7573 37.2303 63.7573C37.0322 63.7573 36.9512 63.7731 37.0504 63.7919Z" fill="white"/>
<path fill-rule="evenodd" clip-rule="evenodd" d="M59.9146 22.2723C59.9146 22.8666 59.9271 23.1096 59.9425 22.8126C59.958 22.5153 59.958 22.029 59.9425 21.732C59.9271 21.4347 59.9146 21.678 59.9146 22.2723ZM59.8364 32.2778C59.8364 33.0923 59.8482 33.4254 59.8628 33.0183C59.8773 32.6112 59.8773 31.9447 59.8628 31.5375C59.8482 31.1301 59.8364 31.4635 59.8364 32.2778ZM85.7564 52.3691C85.7564 52.5232 85.7727 52.5863 85.7931 52.5093C85.8131 52.4322 85.8131 52.306 85.7931 52.2292C85.7727 52.1522 85.7564 52.215 85.7564 52.3691ZM50.9382 55.7104C51.2352 55.7259 51.7215 55.7259 52.0188 55.7104C52.3158 55.695 52.0728 55.6825 51.4785 55.6825C50.8842 55.6825 50.6409 55.695 50.9382 55.7104ZM57.3581 60.4136C57.3581 62.0867 57.3687 62.7823 57.3818 61.9599C57.3945 61.1374 57.3945 59.7686 57.3818 58.9183C57.3687 58.0676 57.3581 58.7408 57.3581 60.4136ZM101.565 57.5498C101.707 57.5677 101.959 57.5677 102.125 57.5504C102.291 57.5331 102.175 57.5188 101.867 57.5182C101.559 57.5179 101.423 57.5322 101.565 57.5498ZM104.681 57.5522C104.66 57.5853 104.829 57.6019 105.056 57.5892C105.792 57.5485 105.882 57.5164 105.293 57.504C104.977 57.4976 104.701 57.5191 104.681 57.5522ZM18.6786 59.6533C18.6786 59.8074 18.695 59.8706 18.7151 59.7935C18.7354 59.7164 18.7354 59.5902 18.7151 59.5132C18.695 59.4361 18.6786 59.4992 18.6786 59.6533Z" fill="white"/>
<path fill-rule="evenodd" clip-rule="evenodd" d="M39.7376 17.4496C41.3588 17.4617 43.9881 17.4617 45.5808 17.4496C47.1735 17.4375 45.8472 17.4275 42.6333 17.4275C39.4197 17.4275 38.1164 17.4375 39.7376 17.4496ZM72.35 17.4496C73.946 17.4617 76.5574 17.4617 78.1534 17.4496C79.7492 17.4375 78.4435 17.4275 75.2517 17.4275C72.0599 17.4275 70.7542 17.4375 72.35 17.4496ZM59.919 18.5314C59.8969 18.5891 59.8899 19.2292 59.9033 19.9539L59.9272 21.2718L59.9451 19.8908L59.963 18.5102H61.4438H62.9248V22.6278C62.9248 24.8925 62.9518 26.7619 62.9849 26.7825C63.0177 26.8028 63.0268 24.941 63.0049 22.6448L62.9649 18.4701L61.462 18.4483C60.2813 18.4313 59.9509 18.4489 59.919 18.5314ZM55.7407 18.6452C55.8178 18.6655 55.944 18.6655 56.0207 18.6452C56.0978 18.6252 56.035 18.6088 55.8809 18.6088C55.7267 18.6088 55.6636 18.6252 55.7407 18.6452ZM59.0399 22.9925C59.0399 25.4361 59.0502 26.4354 59.0626 25.2138C59.0751 23.9921 59.0751 21.9932 59.0626 20.7715C59.0502 19.5498 59.0399 20.5491 59.0399 22.9925ZM51.0342 21.1717L50.7178 21.5117L51.0582 21.1953C51.2451 21.0215 51.3983 20.8683 51.3983 20.8552C51.3983 20.7946 51.3285 20.8552 51.0342 21.1717ZM68.8251 23.7934C68.8481 23.8817 68.8178 24.017 68.7574 24.0937C68.6582 24.2202 68.6613 24.223 68.7881 24.1235C68.9373 24.0064 68.9759 23.7521 68.8554 23.6775C68.8157 23.6529 68.8017 23.7051 68.8251 23.7934ZM59.8395 27.4351C59.8399 29.3281 59.8502 30.0911 59.8629 29.1306C59.8757 28.1701 59.8757 26.6214 59.8629 25.6889C59.8502 24.7563 59.8395 25.542 59.8395 27.4351ZM47.9219 26.8004C47.8925 26.9178 47.884 27.0291 47.9028 27.048C47.9216 27.0671 47.9611 26.9864 47.9905 26.869C48.0202 26.7519 48.0287 26.6405 48.0099 26.6214C47.9911 26.6026 47.9514 26.6833 47.9219 26.8004ZM47.6565 28.3958C47.6571 28.5718 47.6735 28.6343 47.6929 28.5348C47.712 28.4353 47.7111 28.2912 47.6911 28.2147C47.671 28.138 47.6556 28.2196 47.6565 28.3958ZM59.022 33.6156L59.0026 38.9155L58.262 38.9419L57.5218 38.9683L58.2648 38.985C58.7981 38.9968 59.0183 38.9735 59.0459 38.9016C59.0669 38.8467 59.0744 36.4421 59.0626 33.5586L59.0414 28.3157L59.022 33.6156ZM50.5452 29.1961C50.5455 29.5483 50.5594 29.6824 50.5764 29.4943C50.5934 29.3059 50.5931 29.0177 50.5758 28.8539C50.5588 28.6898 50.5449 28.8439 50.5452 29.1961ZM65.4926 28.7602C65.4889 28.8287 65.6212 29.0086 65.7862 29.1603L66.0866 29.4364L65.8363 29.1561C65.6985 29.002 65.5663 28.8221 65.5423 28.7559C65.5047 28.6519 65.498 28.6525 65.4926 28.7602ZM47.5791 29.4364C47.5797 29.6563 47.5952 29.737 47.6134 29.6154C47.6319 29.4937 47.6313 29.3135 47.6125 29.2149C47.5934 29.1166 47.5785 29.2161 47.5791 29.4364ZM66.5267 29.8214C66.5267 29.8353 66.6439 29.9524 66.787 30.0817L67.047 30.3168L66.8119 30.0565C66.5929 29.8141 66.5267 29.7598 66.5267 29.8214ZM47.6565 30.557C47.6571 30.733 47.6735 30.7955 47.6929 30.696C47.712 30.5965 47.7111 30.4524 47.6911 30.3759C47.671 30.2995 47.6556 30.3808 47.6565 30.557ZM67.8877 31.1171C68.0369 31.2712 68.1771 31.3974 68.1992 31.3974C68.2211 31.3974 68.117 31.2712 67.9675 31.1171C67.8182 30.9633 67.678 30.8371 67.6559 30.8371C67.6341 30.8371 67.7381 30.9633 67.8877 31.1171ZM62.9813 30.9675C62.95 30.9984 62.9248 32.8002 62.9248 34.9711V38.9182L61.384 38.9425L59.8429 38.9668L61.404 38.9641L62.9649 38.9616L63.0049 34.979L63.045 30.996L65.4022 33.3544C67.8658 35.819 67.8461 35.8041 68.0563 35.3661C68.1031 35.2687 68.063 35.2942 67.9599 35.4271L67.7833 35.6546L65.4103 33.2828C64.1055 31.9783 63.0122 30.9363 62.9813 30.9675ZM68.7681 31.9177C68.9173 32.0718 69.0575 32.1977 69.0796 32.1977C69.1018 32.1977 68.9974 32.0718 68.8481 31.9177C68.6989 31.7635 68.5584 31.6377 68.5366 31.6377C68.5144 31.6377 68.6188 31.7635 68.7681 31.9177ZM51.7969 33.4761C51.8897 33.6068 52.0068 33.7391 52.0569 33.77C52.1069 33.801 52.0469 33.6939 51.9237 33.5322C51.6561 33.1815 51.5551 33.1369 51.7969 33.4761ZM50.1575 35.88C50.4633 36.1882 50.7314 36.4403 50.7536 36.4403C50.7757 36.4403 50.5434 36.1882 50.2376 35.88C49.9318 35.5718 49.6636 35.3197 49.6414 35.3197C49.6196 35.3197 49.8517 35.5718 50.1575 35.88ZM47.5457 38.9616C47.5891 39.0496 47.6832 39.1937 47.7548 39.2817L47.8852 39.4419L47.8067 39.2817C47.7633 39.1937 47.6692 39.0496 47.5976 38.9616L47.4672 38.8015L47.5457 38.9616ZM51.5481 40.3025C51.6643 40.4506 66.1433 40.5298 66.2343 40.3823C66.2546 40.3496 62.9922 40.3317 58.984 40.3432C53.2182 40.3599 51.6698 40.3432 51.5675 40.2631C51.4529 40.1736 51.4504 40.1778 51.5481 40.3025ZM22.3153 50.4215C22.2859 50.4509 22.2619 51.9298 22.2619 53.7079C22.2619 56.1315 22.2389 56.9269 22.1694 56.8842C22.1118 56.8484 22.0987 56.862 22.1348 56.9206C22.3092 57.2027 22.342 56.6921 22.342 53.6809V50.4394L23.415 50.4636C24.0054 50.4773 24.4714 50.4612 24.451 50.4281C24.4049 50.3538 22.389 50.3474 22.3153 50.4215ZM67.1241 50.4682C67.1029 50.5231 67.095 53.4679 67.1065 57.0119L67.1271 63.4555L68.1877 63.4591L69.2486 63.4628L68.2077 63.4367L67.1672 63.4109V56.9318V50.4527L68.2278 50.4278L69.2883 50.403L68.2253 50.3857C67.4353 50.3726 67.1523 50.3939 67.1241 50.4682ZM24.4614 57.0119C24.4614 60.5559 24.4711 62.0057 24.4832 60.2337C24.495 58.4617 24.495 55.5621 24.4832 53.7901C24.4711 52.0181 24.4614 53.4679 24.4614 57.0119ZM86.9181 50.9848C87.0173 51.0039 87.1793 51.0039 87.2785 50.9848C87.3774 50.9657 87.2964 50.9502 87.0983 50.9502C86.9002 50.9502 86.8192 50.9657 86.9181 50.9848ZM88.1568 52.9928L87.9748 53.2898L88.1768 53.065C88.2881 52.9416 88.3792 52.8066 88.3792 52.765C88.3792 52.6473 88.3522 52.6749 88.1568 52.9928ZM102.927 53.2292C103.246 53.2443 103.769 53.2443 104.088 53.2292C104.407 53.214 104.146 53.2015 103.508 53.2015C102.869 53.2015 102.608 53.214 102.927 53.2292ZM86.578 53.4919C86.7322 53.5562 87.48 53.6002 87.412 53.541C87.3935 53.5249 87.1623 53.4925 86.8981 53.4685C86.6084 53.4421 86.4813 53.4515 86.578 53.4919ZM54.6616 55.549C54.8054 55.5666 55.0214 55.5663 55.1419 55.5481C55.262 55.5299 55.1443 55.5154 54.8803 55.5157C54.6161 55.5163 54.5175 55.5311 54.6616 55.549ZM33.7457 55.7493C33.7239 55.8057 33.716 57.0947 33.7284 58.6131L33.7506 61.3744L33.7694 58.5527L33.7885 55.7311H34.8278H35.8672L35.8902 58.2323L35.913 60.7339L35.9112 58.2123L35.9097 55.691L34.8473 55.6686C34.0394 55.6516 33.7758 55.671 33.7457 55.7493ZM39.4506 55.7098L40.5901 55.7353L40.6128 58.4948L40.6353 61.2542L40.6338 58.4726L40.6322 55.691L39.4715 55.6874L38.3108 55.684L39.4506 55.7098ZM72.6342 55.7107C73.0216 55.7253 73.6338 55.7253 73.9948 55.7104C74.3558 55.6959 74.0391 55.6837 73.2907 55.6837C72.5423 55.6837 72.2468 55.6959 72.6342 55.7107ZM52.5344 56.309C52.521 56.8435 52.5359 56.9203 52.6457 56.8781C52.7219 56.849 52.7395 56.8089 52.69 56.7786C52.6445 56.7504 52.5945 56.4943 52.5787 56.2092L52.5499 55.691L52.5344 56.309ZM105.939 56.6515C105.939 57.136 105.952 57.3238 105.968 57.0689C105.984 56.8141 105.984 56.4179 105.968 56.1885C105.952 55.9589 105.939 56.1673 105.939 56.6515ZM17.5393 56.4115C17.3449 56.6096 17.2038 56.7716 17.2257 56.7716C17.2478 56.7716 17.4247 56.6096 17.6191 56.4115C17.8136 56.2134 17.9547 56.0511 17.9328 56.0511C17.9107 56.0511 17.7335 56.2134 17.5393 56.4115ZM72.8854 57.7521L72.6503 58.0124L72.9103 57.7773C73.0535 57.6481 73.1706 57.531 73.1706 57.517C73.1706 57.4554 73.1044 57.5097 72.8854 57.7521ZM55.1185 60.8541L55.1203 63.4555L56.2209 63.4588L57.3219 63.4625L56.2422 63.4367L55.1625 63.4109L55.1397 60.8316L55.117 58.2524L55.1185 60.8541ZM52.5544 61.054C52.5544 62.3749 52.5653 62.9264 52.5787 62.2796C52.592 61.6331 52.5923 60.5525 52.5787 59.8784C52.5653 59.2043 52.5544 59.7334 52.5544 61.054ZM22.366 59.6533C22.366 59.8954 22.3808 59.9943 22.3993 59.8733C22.4175 59.7522 22.4175 59.5541 22.3993 59.4331C22.3808 59.312 22.366 59.4112 22.366 59.6533ZM69.2665 61.1942L69.2847 62.8952L69.3084 61.2742C69.3235 60.2222 69.3608 59.6533 69.4148 59.6533C69.4603 59.6533 69.4755 59.6172 69.4485 59.5732C69.2859 59.3102 69.2498 59.6312 69.2665 61.1942ZM16.432 60.7339C16.4308 60.8219 16.4609 60.966 16.4985 61.054C16.5862 61.2582 16.5862 61.0476 16.4985 60.774C16.4472 60.6129 16.4342 60.6053 16.432 60.7339ZM19.1402 61.1192C19.1402 61.1329 19.257 61.25 19.4002 61.3792L19.6605 61.6143L19.4254 61.3543C19.2061 61.1116 19.1402 61.0573 19.1402 61.1192ZM36.0295 61.1993C36.0295 61.213 36.1466 61.3301 36.2898 61.4593L36.5498 61.6944L36.3147 61.4344C36.0956 61.1917 36.0295 61.1374 36.0295 61.1993ZM22.2143 62.067C22.1797 62.1231 22.1921 62.1376 22.2461 62.1043C22.3083 62.066 22.3435 62.2511 22.3623 62.7122L22.3893 63.3754L22.4057 62.6749C22.4209 62.026 22.3596 61.8318 22.2143 62.067ZM40.0285 62.5548C39.8799 62.742 39.8213 62.8442 39.8987 62.782C40.0443 62.6652 40.3874 62.2147 40.331 62.2147C40.3131 62.2147 40.1772 62.3679 40.0285 62.5548ZM21.6579 62.795L21.3415 63.1351L21.6816 62.8187C21.8688 62.6449 22.0216 62.4917 22.0216 62.4786C22.0216 62.418 21.9519 62.4786 21.6579 62.795ZM50.9414 63.4749C51.2402 63.4904 51.7086 63.4901 51.9819 63.4746C52.2553 63.4591 52.0105 63.4464 51.4383 63.4464C50.8658 63.4467 50.6423 63.4594 50.9414 63.4749ZM72.7143 63.4752C73.1017 63.4898 73.7139 63.4898 74.0749 63.4749C74.4359 63.46 74.1189 63.4482 73.3705 63.4482C72.6221 63.4482 72.3269 63.4603 72.7143 63.4752ZM86.5547 63.4746C86.8499 63.4901 87.3541 63.4901 87.6753 63.4749C87.9963 63.4597 87.7548 63.447 87.1384 63.447C86.5219 63.447 86.2592 63.4594 86.5547 63.4746ZM102.964 63.4746C103.259 63.4901 103.763 63.4901 104.084 63.4749C104.406 63.4597 104.164 63.447 103.548 63.447C102.931 63.447 102.669 63.4594 102.964 63.4746ZM36.9715 63.7137C37.1156 63.7312 37.3316 63.7309 37.4517 63.7127C37.5721 63.6945 37.4544 63.68 37.1902 63.6803C36.9263 63.6809 36.8277 63.6958 36.9715 63.7137Z" fill="white"/>
</svg>
