<svg width="49" height="49" viewBox="0 0 49 49" fill="none" xmlns="http://www.w3.org/2000/svg">
<path d="M22.1682 7.77961C18.6011 8.19044 15.2492 9.71641 12.7125 12.0901C11.0105 13.6813 9.97358 15.0573 8.98236 17.0397C6.65429 21.6893 6.65429 27.3106 8.98888 31.9668C10.6909 35.3708 13.3777 38.025 16.7948 39.6683C18.3794 40.4313 20.0293 40.9334 21.7183 41.1747C22.853 41.3378 25.2789 41.3378 26.4136 41.1747C29.9937 40.6661 33.3521 38.9901 35.9476 36.4077C39.8277 32.5537 41.5623 27.1085 40.6559 21.6307C40.2124 18.957 38.9408 16.1398 37.2192 14.0008C35.5889 11.9793 33.6651 10.4533 31.3371 9.33165C28.9829 8.19696 26.6092 7.66875 24.0007 7.68179C23.4073 7.68831 22.5856 7.72744 22.1682 7.77961ZM25.8919 8.55563C29.1525 8.93386 31.937 10.1468 34.4672 12.2727C37.0431 14.4378 38.8756 17.418 39.6777 20.7177C40.0494 22.2632 40.2059 24.4413 40.0494 26.0325C39.5277 31.4125 36.3845 36.1208 31.611 38.6771C28.3112 40.4443 24.3985 40.9791 20.6358 40.1835C15.0014 38.9966 10.2866 34.6209 8.67586 29.0974C6.88253 22.9284 8.83889 16.3224 13.6646 12.2792C16.2274 10.1272 19.1815 8.85561 22.3704 8.52954C23.2703 8.43825 25.018 8.45129 25.8919 8.55563Z" fill="#252525"/>
<path d="M22.2402 8.98587C20.9164 9.13585 19.2796 9.57277 17.9558 10.1271C15.2038 11.2748 12.7388 13.3159 11.0824 15.8136C9.77818 17.7765 9.00868 19.7393 8.60437 22.0935C8.40221 23.2608 8.38917 25.6215 8.56524 26.7822C8.96955 29.3907 9.88904 31.6471 11.3889 33.7273C13.88 37.1901 17.558 39.4008 21.9142 40.0659C22.951 40.2225 25.1813 40.2225 26.2182 40.0659C30.5091 39.4138 34.1284 37.2618 36.6586 33.8578C38.178 31.8101 39.1562 29.4364 39.5671 26.7822C39.7301 25.7258 39.7301 23.3325 39.5605 22.2826C39.3193 20.7175 38.8497 19.185 38.2107 17.8612C37.3303 16.0223 36.4043 14.7245 34.9174 13.2703C32.4981 10.9031 29.2179 9.35757 25.8138 8.98587C25.0835 8.90109 22.9575 8.90761 22.2402 8.98587ZM25.0835 10.1662C25.1291 10.1988 25.416 10.6944 25.7356 11.2618C26.0486 11.8356 26.316 12.2986 26.329 12.2856C26.3421 12.2726 26.3942 11.9269 26.4464 11.5161C26.5051 11.1053 26.5638 10.6749 26.5833 10.551L26.6159 10.3358L26.942 10.3618C27.1181 10.3814 27.2811 10.4075 27.2942 10.4271C27.3202 10.4531 27.1572 11.8487 26.9681 13.2638C26.929 13.5311 26.9159 13.5442 26.7072 13.5442C26.2638 13.5442 26.2051 13.479 25.5921 12.3769C25.2791 11.803 25.0052 11.3465 24.9922 11.3596C24.9791 11.3726 24.9074 11.803 24.8422 12.3117C24.7704 12.8203 24.7052 13.2507 24.6922 13.2703C24.627 13.329 24.0009 13.2051 24.0009 13.1334C24.0009 13.0877 24.0922 12.3769 24.1966 11.5552C24.3009 10.727 24.3922 10.0488 24.3922 10.0423C24.3922 10.0032 25.0182 10.114 25.0835 10.1662ZM23.088 11.6204C23.264 12.566 23.3488 13.179 23.3097 13.2116C23.2771 13.2442 23.1206 13.2899 22.9575 13.3094L22.6641 13.3486L21.7837 12.5269C21.1838 11.9661 20.8968 11.7378 20.8838 11.803C20.8708 11.8617 20.9425 12.2921 21.0338 12.7682C21.1316 13.2377 21.1968 13.629 21.1838 13.642C21.1707 13.6551 21.0077 13.6877 20.8251 13.7137C20.5056 13.7529 20.486 13.7463 20.4534 13.6029C20.3947 13.3616 19.8926 10.7009 19.8926 10.6553C19.8926 10.6357 20.0556 10.5966 20.2512 10.577L20.6099 10.5314L21.4968 11.3596C21.9794 11.8161 22.3967 12.1747 22.4098 12.1552C22.4293 12.1356 22.3706 11.7378 22.2793 11.2683C22.188 10.7988 22.1098 10.3749 22.1098 10.3227C22.1098 10.2379 22.4424 10.114 22.6967 10.0945C22.775 10.0879 22.8597 10.401 23.088 11.6204ZM29.87 11.327C30.3917 11.5487 30.8417 11.7574 30.8743 11.79C30.9265 11.8356 30.7439 12.3704 30.6721 12.3704C30.6591 12.3704 30.3396 12.24 29.9744 12.0769C29.6027 11.9139 29.2701 11.7835 29.244 11.7835C29.2114 11.7835 29.1397 11.9008 29.081 12.0378L28.9766 12.2856L29.6483 12.5725C30.02 12.729 30.3265 12.8986 30.3265 12.9442C30.3265 13.0095 30.1635 13.3877 30.0983 13.4659C30.0918 13.4725 29.7853 13.3486 29.4135 13.1855C29.0484 13.0225 28.7353 12.8921 28.7288 12.9051C28.6636 12.9834 28.5006 13.3616 28.5006 13.4333C28.5006 13.492 28.7614 13.642 29.1592 13.8116C29.5244 13.9681 29.8309 14.1311 29.8505 14.1702C29.8766 14.2354 29.694 14.718 29.6418 14.718C29.6353 14.718 29.1657 14.5159 28.5919 14.2615C27.9984 14.0007 27.555 13.7724 27.5615 13.7268C27.5811 13.5246 28.794 10.8705 28.8527 10.8901C28.8918 10.9096 29.3483 11.1053 29.87 11.327ZM19.2144 12.5986C19.547 13.3551 19.8274 14.0072 19.8274 14.0528C19.8274 14.1311 19.2535 14.4246 19.2013 14.3724C19.1622 14.3333 17.9362 11.5617 17.9362 11.5096C17.9362 11.4509 18.4644 11.2031 18.5492 11.2226C18.5818 11.2292 18.8818 11.8487 19.2144 12.5986ZM17.2645 12.8073C17.9101 13.7007 18.0666 14.0072 18.0666 14.3854C18.0601 15.1875 17.2189 15.9114 16.4233 15.8071C15.9277 15.7418 15.719 15.5658 15.0538 14.6789C14.7017 14.2159 14.4213 13.805 14.4148 13.7724C14.4148 13.7203 14.7734 13.4399 14.943 13.3616C14.9691 13.3486 15.2625 13.7137 15.5886 14.1637C15.9212 14.6137 16.2472 15.0115 16.3124 15.0441C16.3776 15.0832 16.5342 15.1093 16.6646 15.1093C16.8537 15.1093 16.958 15.0571 17.1276 14.8876C17.4863 14.5289 17.4471 14.3463 16.8211 13.4659C16.5276 13.0616 16.2472 12.6769 16.1885 12.6117C16.0972 12.5073 16.0972 12.4878 16.2146 12.4095C16.2798 12.3573 16.3972 12.2726 16.4689 12.2139C16.5407 12.1617 16.632 12.1095 16.6776 12.1095C16.7167 12.1095 16.9841 12.4225 17.2645 12.8073ZM32.6676 12.9573C32.8241 13.029 33.1698 13.3094 33.4437 13.5768C33.9262 14.0659 33.9327 14.0724 33.8088 14.2028C33.5349 14.5093 33.4697 14.4963 33.0393 14.0789C32.6155 13.6551 32.322 13.4659 32.1785 13.5246C32.022 13.5833 32.0807 13.8246 32.3872 14.3593C32.8176 15.1093 32.8893 15.331 32.7785 15.5919C32.7328 15.7027 32.5959 15.8788 32.485 15.9766C32.1003 16.2961 31.4416 16.1788 30.8808 15.6897C30.5808 15.4223 30.1309 14.868 30.1309 14.7571C30.1309 14.7115 30.2222 14.6071 30.3396 14.5224L30.5417 14.3724L30.6656 14.5289C31.1547 15.1484 31.7025 15.5592 31.9242 15.4745C32.1264 15.3962 32.0938 15.2332 31.7351 14.6071C31.2982 13.8442 31.2395 13.6094 31.409 13.2964C31.6568 12.8399 32.1264 12.716 32.6676 12.9573ZM25.6247 14.555C27.6985 14.8941 29.544 15.8005 31.0373 17.2287C32.6546 18.7807 33.6654 20.6719 34.0501 22.8891C34.1675 23.5608 34.1805 23.8673 34.1545 24.8259C34.1153 26.4497 33.8741 27.48 33.2285 28.8429C31.8525 31.7579 29.4201 33.7078 26.2247 34.4577C25.5269 34.6207 25.3639 34.6338 24.0662 34.6338C22.7684 34.6338 22.6054 34.6207 21.9076 34.4577C18.784 33.7208 16.3842 31.8362 15.0017 29.0321C14.2583 27.5257 14.0235 26.541 13.9778 24.8259C13.9518 23.8738 13.9648 23.5542 14.0757 22.9021C14.4539 20.698 15.4712 18.7807 17.1015 17.2287C18.5688 15.8266 20.2839 14.9593 22.338 14.5876C23.1793 14.4311 24.777 14.418 25.6247 14.555ZM13.5931 15.1028L13.7757 15.2919L13.4431 15.7092C12.9605 16.3027 12.8692 16.6874 13.1301 17.0722C13.3583 17.4113 13.6648 17.5873 14.0365 17.5873C14.33 17.5873 14.3822 17.5613 14.6756 17.2613C14.8582 17.0852 15.0017 16.9026 15.0017 16.8504C15.0017 16.7983 14.8256 16.6287 14.6169 16.4787L14.2256 16.1918L14.4278 15.9179C14.5387 15.7614 14.6626 15.6505 14.7017 15.6766C14.9365 15.8136 15.8494 16.5635 15.8494 16.6222C15.8494 16.7852 15.4125 17.483 15.1517 17.7439C14.4408 18.4547 13.5214 18.4873 12.8105 17.8351C12.654 17.6917 12.4845 17.4504 12.4193 17.2939C12.2758 16.9157 12.3149 16.2831 12.5106 15.8918C12.6736 15.5527 13.2149 14.9136 13.3322 14.9136C13.3779 14.9136 13.4953 14.9984 13.5931 15.1028ZM35.2565 15.5071C35.6087 15.7875 36.2608 16.7461 36.2608 16.9874C36.2608 17.0526 35.7522 17.3004 35.713 17.2548C35.7065 17.2417 35.6022 17.0526 35.4848 16.8374C35.2631 16.407 34.937 16.0223 34.8001 16.0223C34.5718 16.0223 34.5653 16.1853 34.7675 17.0135C34.9631 17.796 34.9696 17.8351 34.8653 18.0569C34.7479 18.3047 34.3501 18.5655 34.1023 18.5655C33.5871 18.559 32.935 17.946 32.6089 17.1569C32.4981 16.8831 32.4133 16.6548 32.4263 16.6418C32.4655 16.6026 32.9546 16.4135 32.9676 16.4266C32.9741 16.4396 33.0719 16.6483 33.1893 16.9026C33.411 17.3852 33.8023 17.8482 33.9849 17.8482C34.2327 17.8482 34.2523 17.6917 34.0893 17.0852C33.998 16.7722 33.9067 16.4005 33.8871 16.2701C33.7501 15.5071 34.637 15.0115 35.2565 15.5071ZM12.7845 22.9543V23.3064L11.9237 23.5216C11.4476 23.639 11.0433 23.7434 11.0368 23.7564C11.0237 23.7629 11.3172 23.8673 11.6889 23.9781C12.9214 24.3498 12.791 24.2781 12.7714 24.5846L12.7519 24.8454L11.9041 25.1324C11.4411 25.2889 11.0563 25.4258 11.0433 25.4389C11.0303 25.4454 11.415 25.5367 11.8911 25.641C12.3606 25.7454 12.7649 25.8497 12.7845 25.8758C12.8432 25.9606 12.8105 26.554 12.7453 26.5475C12.7127 26.541 11.9889 26.3779 11.1411 26.1888L9.58907 25.8497V25.5628C9.58907 25.2367 9.51734 25.2758 10.6846 24.8846C11.1216 24.7346 11.4737 24.6042 11.4607 24.5846C11.4411 24.5716 11.0237 24.4346 10.5281 24.2781L9.62167 23.9977L9.60211 23.6977C9.58255 23.4173 9.59559 23.3912 9.76514 23.3521C9.86296 23.326 10.5216 23.1499 11.2194 22.9673C11.9171 22.7782 12.5562 22.6217 12.641 22.6152C12.7714 22.6087 12.7845 22.6348 12.7845 22.9543ZM37.9237 22.7652C38.0476 22.8174 38.2237 22.9739 38.3215 23.1304C38.4715 23.3586 38.5041 23.489 38.5302 23.939C38.5563 24.4411 38.4715 25.0802 38.3606 25.2693C38.3215 25.328 38.2367 25.3345 38.0476 25.2954C37.852 25.2498 37.7998 25.2106 37.8063 25.1128C37.8194 25.0476 37.8585 24.7802 37.8911 24.5324C37.9759 23.9912 37.9107 23.6064 37.715 23.476C37.5194 23.3456 37.4281 23.4629 37.1738 24.1998C36.8934 25.015 36.7173 25.2237 36.2869 25.2628C35.8826 25.3019 35.5891 25.1715 35.4326 24.8715C35.3087 24.6302 35.2435 23.776 35.3152 23.2217L35.3609 22.8565L35.6478 22.8891C35.8109 22.9021 35.9543 22.9282 35.9674 22.9478C35.9804 22.9608 35.9674 23.176 35.9348 23.4238C35.8695 23.9846 35.9282 24.4281 36.0782 24.5259C36.2478 24.6302 36.3456 24.4933 36.5869 23.8151C36.8803 22.9999 36.9586 22.876 37.1933 22.7717C37.4607 22.6543 37.6498 22.6543 37.9237 22.7652ZM37.2977 26.0584C37.8063 26.3192 38.0802 26.854 38.0868 27.5844C38.0868 27.9495 37.9302 28.9082 37.8585 28.9864C37.8259 29.019 34.9174 28.3408 34.8261 28.2821C34.7283 28.2234 34.9044 27.4735 35.1326 26.9648C35.3218 26.541 35.8239 26.0258 36.1108 25.9671C36.2086 25.941 36.326 25.9084 36.3586 25.8954C36.5021 25.8432 37.0499 25.9345 37.2977 26.0584ZM12.3475 27.004C13.0518 27.2583 13.4627 27.8256 13.4627 28.543C13.4627 30.0559 11.6041 30.7406 10.6194 29.5864C10.0912 28.9799 10.1238 28.0017 10.6846 27.4148C11.102 26.9714 11.7802 26.8018 12.3475 27.004ZM35.4065 29.2929C35.6739 29.4299 35.9217 29.7494 35.9739 30.0233L36.0195 30.2515L36.3847 30.2124C36.5869 30.1863 36.9195 30.1472 37.1281 30.1276L37.5064 30.0885L37.2912 30.4798L37.076 30.8776L36.3912 30.9558C36.013 30.9949 35.6869 31.0471 35.6674 31.0732C35.6478 31.0993 35.563 31.2297 35.4848 31.3601L35.3413 31.6014L35.8369 31.8688C36.1043 32.0188 36.326 32.1557 36.326 32.1818C36.326 32.2535 35.9934 32.7818 35.9478 32.7818C35.9217 32.7818 35.7326 32.6774 35.5304 32.5535C35.3218 32.4296 34.7218 32.0905 34.1936 31.7971C33.6654 31.5036 33.2219 31.2623 33.2089 31.2493C33.2024 31.2428 33.385 30.8841 33.6262 30.4602C34.0762 29.6581 34.311 29.3516 34.5327 29.2603C34.7414 29.169 35.2109 29.1886 35.4065 29.2929ZM14.6039 30.6428C14.8908 31.0471 15.1582 31.4906 15.1973 31.6275C15.2886 31.947 15.2234 32.2861 15.0212 32.5274C14.7604 32.8339 14.5126 32.9317 14.0822 32.8926L13.704 32.86L13.4953 33.486C13.3844 33.8382 13.267 34.1382 13.2475 34.1708C13.2214 34.1969 13.091 34.0599 12.954 33.8643L12.7062 33.5056L12.9084 32.8991C13.0192 32.5666 13.1105 32.2535 13.1105 32.2079C13.1105 32.1166 12.8366 31.6732 12.7845 31.6732C12.7584 31.6732 12.5627 31.8036 12.341 31.9666C12.1193 32.1296 11.9106 32.2601 11.8715 32.2601C11.8389 32.2601 11.728 32.1427 11.6302 31.9992C11.4802 31.771 11.4737 31.7188 11.552 31.6405C11.728 31.4645 13.9257 29.9189 14.0039 29.9189C14.0496 29.9124 14.3169 30.245 14.6039 30.6428ZM33.6067 32.2927C34.4023 32.6252 34.8001 33.6295 34.4675 34.4642C34.2262 35.0511 33.398 35.5272 32.7785 35.4294C32.1198 35.3185 31.5721 34.849 31.3895 34.2229C31.0112 32.9122 32.335 31.7579 33.6067 32.2927ZM16.4494 32.8339L16.6255 32.9904L15.8038 33.9621C15.0017 34.9207 14.9886 34.9338 15.1191 35.0511C15.1908 35.1098 15.4451 35.3185 15.6799 35.5141C15.9146 35.7098 16.1103 35.9054 16.1103 35.9445C16.1103 35.9837 16.0255 36.1011 15.9212 36.1989C15.732 36.3815 15.7255 36.3815 15.5755 36.2641C15.1517 35.9315 14.0235 34.9794 14.0235 34.9533C14.0235 34.9272 15.2169 33.486 15.706 32.9252C16.0907 32.4818 16.0646 32.4883 16.4494 32.8339ZM30.6917 34.1316C30.7439 34.4838 30.7374 34.5034 30.4243 34.5947C30.2678 34.6338 30.007 34.7968 29.8374 34.9533C29.5766 35.1881 29.5244 35.2729 29.4983 35.5337C29.4527 35.9185 29.557 36.1793 29.8505 36.4336C30.0331 36.5967 30.1244 36.6293 30.3982 36.6293C30.7504 36.6293 31.1612 36.4597 31.4416 36.1924L31.6112 36.0358L31.8199 36.2771L32.0285 36.5119L31.846 36.7075C31.5982 36.9684 30.9526 37.2749 30.5548 37.3205C29.3157 37.4705 28.3832 36.1663 28.9179 35.0316C29.0549 34.7381 29.231 34.536 29.557 34.2882C29.7135 34.1708 30.3982 33.8969 30.5352 33.8904C30.62 33.8904 30.6591 33.9621 30.6917 34.1316ZM18.5296 34.3468C19.6252 34.9012 20.1208 35.6641 19.8991 36.4728C19.6839 37.2684 18.9209 37.6987 18.0079 37.5357C17.6297 37.464 16.632 37.0271 16.632 36.9292C16.632 36.8575 17.9493 34.0925 17.9884 34.086C17.9949 34.086 18.2427 34.2034 18.5296 34.3468ZM28.0897 35.4294C28.168 35.775 28.2202 35.7489 27.2615 35.9772C26.9224 36.0619 26.6355 36.1337 26.6225 36.1402C26.5833 36.1728 26.7464 36.6945 26.792 36.6945C26.8181 36.6945 27.1181 36.6228 27.4572 36.5315C27.7963 36.4402 28.1093 36.3684 28.1484 36.3684C28.2397 36.3684 28.3962 36.8901 28.3245 36.9553C28.2984 36.9814 27.9919 37.0727 27.6528 37.151C27.3137 37.2292 27.0072 37.3205 26.9811 37.3466C26.9224 37.3988 26.9746 37.79 27.0594 37.9205C27.092 37.9726 27.3137 37.94 27.8485 37.8031C28.3832 37.6661 28.6049 37.6335 28.6375 37.6857C28.6962 37.777 28.781 38.2009 28.7484 38.227C28.7158 38.2531 26.629 38.7813 26.5573 38.7813C26.466 38.7813 25.7291 35.788 25.8008 35.7163C25.853 35.6641 27.7572 35.149 27.9528 35.1359C27.9919 35.1294 28.0506 35.2663 28.0897 35.4294ZM24.3727 35.8206C24.79 35.8859 25.1748 36.3619 25.1748 36.8249C25.1748 37.0923 24.9661 37.4966 24.7509 37.6335L24.5813 37.7444L25.0117 38.3574L25.4421 38.9769H24.9922H24.5422L24.1314 38.39L23.7205 37.8031H23.4075H23.088V38.3509C23.088 38.9639 23.0815 38.9704 22.5663 38.9247L22.338 38.8987L22.3576 37.3923C22.3706 36.5575 22.3902 35.8402 22.4032 35.7946C22.4293 35.7293 22.625 35.7228 23.2967 35.7489C23.7727 35.7685 24.2553 35.8011 24.3727 35.8206Z" fill="#800000"/>
<path d="M18.223 24.1543C18.236 24.2195 18.2882 24.4478 18.3273 24.663C18.3664 24.8782 18.4186 25.1065 18.4317 25.1652C18.4643 25.276 18.7903 25.2825 24.0664 25.2825H29.6751L29.7077 25.1325C29.8969 24.2717 29.936 24.0956 29.936 24.0695C29.936 24.0565 27.2947 24.0434 24.0599 24.0434C18.4969 24.0434 18.1903 24.0499 18.223 24.1543Z" fill="#800000"/>
<path d="M19.0446 25.8433C19.0446 25.9346 19.0772 26.0651 19.1098 26.1368C19.1751 26.2607 19.299 26.2607 24.0664 26.2607C28.8337 26.2607 28.9577 26.2607 29.0229 26.1368C29.0555 26.0651 29.0881 25.9346 29.0881 25.8433V25.6738H24.0664H19.0446V25.8433Z" fill="#800000"/>
<path d="M23.7203 26.7624C23.6942 26.7819 23.6747 28.1776 23.6747 29.8537C23.6747 33.2645 23.629 32.9711 24.1442 32.9254L24.3921 32.8993V29.808V26.7167H24.079C23.9029 26.7167 23.7399 26.7363 23.7203 26.7624Z" fill="#800000"/>
<path d="M22.3053 26.9054L22.077 26.9445L22.0574 29.8208L22.0444 32.6971L22.3509 32.7624C22.5205 32.8015 22.6836 32.8211 22.7096 32.808C22.7423 32.7885 22.7618 31.4383 22.7618 29.8078C22.7618 26.501 22.814 26.8141 22.3053 26.9054Z" fill="#800000"/>
<path d="M25.3702 29.8404V32.8537L25.6181 32.8145C26.1398 32.7232 26.0877 33.0428 26.0877 29.8469C26.0877 28.275 26.0681 26.9706 26.042 26.9575C26.0094 26.938 25.8529 26.9054 25.6833 26.8793L25.3702 26.8336V29.8404Z" fill="#800000"/>
<path d="M20.8576 27.3946L20.5445 27.5251L20.538 29.697C20.5315 30.8905 20.5249 31.9211 20.5184 31.9798C20.5119 32.058 20.6162 32.1493 20.8315 32.2472C21.0011 32.332 21.1576 32.3841 21.1706 32.3711C21.1837 32.3581 21.1902 31.2036 21.1837 29.8078L21.1641 27.2642L20.8576 27.3946Z" fill="#800000"/>
<path d="M26.9353 29.8405V32.4428L27.2614 32.3059C27.5092 32.2015 27.5875 32.1363 27.6005 32.0058C27.6136 31.9145 27.6136 30.8644 27.6005 29.6709L27.581 27.5055L27.281 27.3685C27.1179 27.2968 26.9744 27.2381 26.9614 27.2381C26.9483 27.2381 26.9353 28.4121 26.9353 29.8405Z" fill="#800000"/>
<path d="M36.0845 26.7826C35.8693 26.913 35.6411 27.2781 35.602 27.565C35.5759 27.7215 35.602 27.7281 36.4561 27.9302C36.9386 28.041 37.3559 28.1193 37.3885 28.1062C37.4146 28.0932 37.4342 27.8976 37.4342 27.6759C37.4342 27.3825 37.3951 27.2129 37.3038 27.0565C37.069 26.6718 36.4822 26.5413 36.0845 26.7826Z" fill="#800000"/>
<path d="M11.5259 27.7208C11.1149 27.8708 10.8279 28.2166 10.8279 28.5493C10.8279 28.7907 11.0758 29.2213 11.278 29.3452C11.6825 29.5866 12.361 29.4105 12.6807 28.9799C12.8438 28.7581 12.8503 28.2949 12.6937 28.0535C12.4588 27.6947 11.9696 27.5577 11.5259 27.7208Z" fill="#800000"/>
<path d="M34.617 30.0241C34.4932 30.1675 34.1086 30.8127 34.1086 30.8779C34.1086 30.904 34.2716 31.0083 34.4801 31.1126C34.8842 31.3081 34.8517 31.3277 35.1189 30.8127C35.2101 30.6433 35.2818 30.4152 35.2818 30.3109C35.2818 29.9719 34.8321 29.7829 34.617 30.0241Z" fill="#800000"/>
<path d="M13.6191 31.0601C13.4429 31.1905 13.306 31.3145 13.306 31.3406C13.306 31.4188 13.6908 31.9537 13.8408 32.0776C14.1017 32.3059 14.5453 32.1298 14.5453 31.7906C14.5453 31.6536 14.0496 30.8253 13.9648 30.8253C13.9452 30.8253 13.7887 30.9361 13.6191 31.0601Z" fill="#800000"/>
<path d="M32.5046 32.9116C32.2371 33.0225 32.0218 33.3552 32.0218 33.6749C32.0218 34.6535 33.3005 35.1232 33.7833 34.3273C34.1421 33.7402 33.6071 32.8399 32.9025 32.8529C32.759 32.8529 32.5829 32.879 32.5046 32.9116Z" fill="#800000"/>
<path d="M17.9688 35.7943C17.7601 36.2379 17.5774 36.6163 17.5643 36.6489C17.5187 36.7337 17.9949 36.8968 18.3015 36.9033C18.6212 36.9099 18.8365 36.7859 19.0713 36.4793C19.241 36.2444 19.241 35.7682 19.0648 35.5333C18.9474 35.3768 18.4777 35.0049 18.3863 34.9984C18.3668 34.9984 18.1776 35.3572 17.9688 35.7943Z" fill="#800000"/>
<path d="M23.1204 36.7275C23.1008 36.9231 23.0943 37.1121 23.1204 37.1512C23.1399 37.1838 23.3876 37.2164 23.6679 37.2164C24.248 37.2164 24.3914 37.1251 24.3914 36.7731C24.3914 36.4733 24.1958 36.369 23.6353 36.369H23.166L23.1204 36.7275Z" fill="#800000"/>
<g clip-path="url(#clip0_184_1615)">
<path d="M24.0666 16.8622L24.6728 18.7281H26.6347L25.0475 19.8813L25.6537 21.7471L24.0666 20.594L22.4794 21.7471L23.0856 19.8813L21.4984 18.7281H23.4603L24.0666 16.8622Z" fill="#C4932C" stroke="#C4932C" stroke-width="0.0733636" stroke-linecap="round" stroke-linejoin="round"/>
</g>
<defs>
<clipPath id="clip0_184_1615">
<rect width="6.16304" height="6.16304" fill="white" transform="translate(20.9847 16.3485)"/>
</clipPath>
</defs>
</svg>
