<svg width="80" height="81" viewBox="0 0 80 81" fill="none" xmlns="http://www.w3.org/2000/svg">
<path fill-rule="evenodd" clip-rule="evenodd" d="M54.6667 18.881C43.8199 20.6925 34.9315 22.1884 34.9143 22.2055C34.8856 22.2343 34.9682 23.5358 35.2202 27.0307C35.2766 27.8137 35.3391 28.7669 35.359 29.149C35.3788 29.531 35.4268 30.2654 35.4657 30.7811C35.5044 31.2968 35.5633 32.2187 35.5964 32.83C35.6293 33.441 35.6886 34.3476 35.7281 34.8441C35.7678 35.3407 35.833 36.247 35.8731 36.8581C35.9134 37.4694 35.9785 38.3757 36.0176 38.8723C36.0569 39.3688 36.1195 40.244 36.1568 40.817C36.3342 43.5354 36.5694 46.7406 36.6829 47.9867L36.7224 48.4196L40.393 48.4382L44.0636 48.4567L44.2416 48.1824C44.3394 48.0314 44.4178 47.8596 44.4158 47.8003C44.414 47.7411 44.3637 47.8099 44.3042 47.9532L44.1961 48.2135H43.3658C42.3324 48.2135 41.3197 47.8716 42.0754 47.7776C42.2997 47.7499 42.2995 47.7497 42.0431 47.7385C41.901 47.7325 41.6708 47.6731 41.5314 47.6066L41.278 47.4857L41.3105 46.977C41.3339 46.6139 41.3831 46.4148 41.4825 46.2817L41.6217 46.0954H43.3606C45.3919 46.0954 45.2066 46.1644 45.7081 45.2198C46.0852 44.51 46.3396 44.2538 46.6645 44.257C46.8992 44.2594 47.128 44.3913 47.128 44.5241C47.128 44.5682 47.2343 44.655 47.3644 44.7171C47.75 44.901 47.8326 45.1996 47.6425 45.7219C47.4051 46.3737 47.4023 46.4042 47.5655 46.5674C47.9188 46.9207 47.7105 48.1804 47.2874 48.2486C46.655 48.3506 46.7276 48.3891 47.6142 48.422L48.5518 48.4567L48.6635 48.1433C48.8088 47.7357 49.0424 47.2787 49.2906 46.9162C49.3999 46.7566 49.4895 46.6043 49.4895 46.5778C49.4895 46.4613 50.164 45.4355 50.6881 44.755C52.1562 42.8487 53.8456 41.4865 54.2049 41.9194C54.2486 41.9721 54.3629 42.015 54.4589 42.015C54.6915 42.015 54.9063 42.2197 54.9077 42.4425C54.9085 42.5792 54.9243 42.5984 54.9728 42.5217C55.0831 42.3472 55.3811 42.5644 55.4665 42.8816C55.5407 43.157 55.4919 43.7423 55.3895 43.8055C55.3582 43.8247 55.2976 44.0102 55.2545 44.2177C55.2114 44.4252 55.0218 44.9084 54.8331 45.2914C54.6444 45.6747 54.49 46.0032 54.49 46.0216C54.49 46.0537 53.4017 47.8369 53.1415 48.2311L53.0155 48.422H61.8773H70.7391L70.7711 48.2658C70.7886 48.1798 70.8217 47.9063 70.8445 47.6579C70.8672 47.4097 70.962 46.5658 71.0552 45.7828C71.2217 44.3827 71.374 43.0774 71.7887 39.4973C71.9038 38.5042 72.0279 37.4416 72.0642 37.136C72.241 35.6561 72.2759 35.3531 72.3403 34.74C72.3786 34.3771 72.4561 33.7207 72.5125 33.2814C72.5688 32.8421 72.708 31.6701 72.8217 30.677C73.054 28.647 73.3835 25.8307 73.5896 24.1138C73.6652 23.4835 73.8522 21.874 74.0048 20.5369C74.1576 19.2 74.3453 17.5998 74.4221 16.9812C74.5859 15.6609 74.5893 15.5685 74.4748 15.5793C74.4271 15.5837 65.5134 17.0696 54.6667 18.881ZM27.9419 29.3716C28.0279 29.3882 28.1686 29.3882 28.2544 29.3716C28.3404 29.3551 28.2701 29.3415 28.0982 29.3415C27.9262 29.3415 27.856 29.3551 27.9419 29.3716ZM31.8685 42.7615C31.8689 42.9527 31.8825 43.0225 31.8985 42.917C31.9144 42.8114 31.914 42.655 31.8975 42.5696C31.8809 42.4842 31.8679 42.5706 31.8685 42.7615ZM30.0742 43.925L29.7997 44.2201L30.0776 43.9661C30.2304 43.8265 30.418 43.6972 30.4942 43.679C30.6304 43.6465 30.6304 43.6457 30.491 43.6378C30.4064 43.633 30.2378 43.7491 30.0742 43.925ZM17.281 43.8879C17.3861 43.9037 17.5579 43.9037 17.663 43.8879C17.768 43.872 17.682 43.859 17.4719 43.859C17.2618 43.859 17.1759 43.872 17.281 43.8879ZM52.79 44.3416C52.3409 44.8958 52.1927 45.0965 52.3152 44.9842C52.3567 44.9459 52.5428 44.727 52.7286 44.4978C53.2174 43.8945 53.2601 43.8381 53.2275 43.8381C53.2114 43.8381 53.0145 44.0647 52.79 44.3416ZM31.4107 44.3599C31.3472 44.493 31.3095 44.6021 31.3271 44.6021C31.3746 44.6021 31.5854 44.1768 31.5535 44.1451C31.5386 44.1299 31.4743 44.2267 31.4107 44.3599ZM53.4596 44.2925C53.343 44.5479 53.3654 44.6023 53.4911 44.3703C53.5499 44.2618 53.585 44.16 53.5691 44.1443C53.5531 44.1283 53.5038 44.1952 53.4596 44.2925ZM23.514 44.3763C23.605 44.5006 23.6902 44.6021 23.7035 44.6021C23.7562 44.6021 23.584 44.3416 23.4701 44.2492C23.3951 44.1882 23.4119 44.2367 23.514 44.3763ZM20.389 44.5674C20.4844 44.6219 20.5939 44.6666 20.632 44.6666C20.6703 44.6666 20.6234 44.6219 20.5279 44.5674C20.4323 44.5128 20.323 44.4681 20.2849 44.4681C20.2466 44.4681 20.2935 44.5128 20.389 44.5674ZM29.2718 44.8972C28.9217 45.3525 28.9123 45.366 28.9494 45.366C28.9686 45.366 29.1142 45.1943 29.2728 44.9842C29.4314 44.7739 29.5471 44.6021 29.53 44.6021C29.5128 44.6021 29.3967 44.735 29.2718 44.8972ZM53.1705 44.8798C53.0925 45.0327 53.0442 45.1578 53.0633 45.1578C53.0825 45.1578 53.1619 45.0327 53.2399 44.8798C53.3177 44.727 53.366 44.6021 53.3468 44.6021C53.3277 44.6021 53.2483 44.727 53.1705 44.8798ZM31.1653 44.8481C31.049 45.1035 31.0711 45.158 31.197 44.9259C31.2557 44.8174 31.2908 44.7157 31.275 44.6999C31.2591 44.6839 31.2098 44.7508 31.1653 44.8481ZM54.0846 45.1955C53.9681 45.4508 53.9904 45.5053 54.1161 45.2731C54.175 45.1647 54.2101 45.063 54.1941 45.047C54.1784 45.0313 54.1289 45.0979 54.0846 45.1955ZM52.7282 45.5919C52.4205 46.0344 52.069 46.517 51.6656 47.0512C51.4135 47.385 51.1186 47.9907 51.1789 48.0511C51.2575 48.1297 52.1885 46.7464 52.8108 45.6266C53.0869 45.1296 53.058 45.1175 52.7282 45.5919ZM30.8551 45.5406C30.7916 45.6739 30.7539 45.7828 30.7715 45.7828C30.819 45.7828 31.0298 45.3575 30.9979 45.3257C30.9829 45.3108 30.9187 45.4073 30.8551 45.5406ZM51.8508 45.5745C51.7692 45.689 51.7181 45.7828 51.7371 45.7828C51.7562 45.7828 51.8386 45.689 51.9202 45.5745C52.0018 45.4598 52.0531 45.366 52.0339 45.366C52.0148 45.366 51.9324 45.4598 51.8508 45.5745ZM51.2952 46.3384C51.2136 46.4529 51.1625 46.5467 51.1814 46.5467C51.2006 46.5467 51.283 46.4529 51.3646 46.3384C51.4462 46.2239 51.4975 46.1301 51.4783 46.1301C51.4592 46.1301 51.3768 46.2239 51.2952 46.3384ZM28.1676 46.4078C28.086 46.5225 28.0349 46.6163 28.0541 46.6163C28.073 46.6163 28.1554 46.5225 28.237 46.4078C28.3186 46.2933 28.3699 46.1995 28.3507 46.1995C28.3316 46.1995 28.2492 46.2933 28.1676 46.4078ZM47.1513 46.7552C47.1513 47.0416 47.1637 47.1588 47.1787 47.0155C47.1936 46.8723 47.1936 46.6379 47.1787 46.4946C47.1637 46.3514 47.1513 46.4687 47.1513 46.7552ZM23.4147 46.74C23.1697 47.0335 23.1649 47.0458 23.3684 46.8593C23.5613 46.6825 23.7728 46.4026 23.7077 46.4102C23.697 46.4114 23.5649 46.5598 23.4147 46.74ZM22.5097 47.4576C22.1448 47.7319 22.1107 47.7774 22.3904 47.6168C22.5875 47.5035 22.8974 47.2318 22.8132 47.2461C22.7978 47.2487 22.6612 47.3439 22.5097 47.4576ZM52.6486 47.6405C52.5819 47.7457 52.4455 47.9254 52.3453 48.0399L52.1634 48.2484L52.3723 48.0605C52.5646 47.8875 52.8714 47.4496 52.8004 47.4496C52.7834 47.4496 52.7152 47.5356 52.6486 47.6405ZM27.3454 47.9735C27.2291 48.2289 27.2513 48.2833 27.3772 48.0511C27.4358 47.9428 27.4709 47.841 27.4552 47.8253C27.4392 47.8093 27.3899 47.876 27.3454 47.9735ZM29.1715 48.1614L28.897 48.4567L29.192 48.1822C29.4665 47.9268 29.5192 47.8664 29.4665 47.8664C29.4552 47.8664 29.3225 47.9992 29.1715 48.1614ZM50.6709 48.6476C50.4265 48.9245 50.314 49.0732 50.4205 48.9776C50.6254 48.7943 51.1882 48.1441 51.1421 48.1441C51.1274 48.1441 50.9153 48.3707 50.6709 48.6476ZM27.1336 48.4992C27.0907 48.6219 27.0679 48.7344 27.0827 48.7494C27.0977 48.7641 27.1447 48.676 27.1876 48.5531C27.2303 48.4304 27.2533 48.3179 27.2383 48.3029C27.2235 48.2881 27.1763 48.3763 27.1336 48.4992ZM27.4045 48.8561C27.1601 49.133 27.0474 49.2814 27.1541 49.1859C27.359 49.0027 27.9218 48.3526 27.8757 48.3526C27.8608 48.3526 27.6487 48.5792 27.4045 48.8561ZM28.63 48.8561C28.411 49.1611 28.4038 49.1811 28.5853 48.9776C28.7896 48.7488 28.9636 48.4914 28.9141 48.4914C28.9017 48.4914 28.7741 48.6554 28.63 48.8561ZM16.9259 48.8561C16.9181 49.0127 16.9444 49.0456 17.0727 49.0391C17.1834 49.0333 17.1948 49.0219 17.1116 48.9999C17.0472 48.983 16.9812 48.9006 16.9648 48.817C16.9405 48.6919 16.9337 48.6989 16.9259 48.8561ZM26.9287 49.0153C26.8124 49.2707 26.8345 49.3251 26.9604 49.0929C27.0193 48.9846 27.0542 48.8828 27.0384 48.8669C27.0224 48.8511 26.9732 48.9178 26.9287 49.0153ZM51.4031 49.2206C51.2622 49.3926 51.1725 49.532 51.2038 49.5304C51.2603 49.5278 51.742 48.9082 51.6878 48.9082C51.672 48.9082 51.5439 49.0488 51.4031 49.2206ZM19.2778 49.1859C19.1441 49.2591 19.0659 49.319 19.104 49.319C19.1423 49.319 19.283 49.2591 19.4167 49.1859C19.5503 49.1127 19.6285 49.0528 19.5902 49.0528C19.5521 49.0528 19.4115 49.1127 19.2778 49.1859ZM50.0812 49.3231C50.013 49.3988 49.93 49.4438 49.8969 49.4233C49.8637 49.4027 49.8366 49.4191 49.8366 49.4596C49.8366 49.5813 49.9417 49.5434 50.1145 49.3596C50.2043 49.2641 50.2613 49.1859 50.2416 49.1859C50.2216 49.1859 50.1496 49.2477 50.0812 49.3231ZM17.854 49.7788C17.6804 49.8624 17.6746 49.872 17.8193 49.8367C18.016 49.7886 18.2372 49.6759 18.1319 49.6773C18.0936 49.6779 17.9685 49.7235 17.854 49.7788ZM27.7813 49.8979L27.5773 50.1235L27.8029 49.9196C28.0134 49.7293 28.0607 49.6721 28.007 49.6721C27.995 49.6721 27.8935 49.7736 27.7813 49.8979ZM63.2585 50.193C63.2593 50.3458 63.2734 50.4 63.29 50.3137C63.3067 50.2273 63.3061 50.1024 63.2886 50.036C63.2712 49.9695 63.2577 50.0401 63.2585 50.193ZM50.5616 50.245L50.3575 50.4709L50.5833 50.2668C50.7074 50.1547 50.809 50.0531 50.809 50.0411C50.809 49.9875 50.7517 50.0348 50.5616 50.245ZM27.2962 50.4535L27.0216 50.7486L27.3169 50.4741C27.5914 50.2187 27.6439 50.1583 27.5914 50.1583C27.5801 50.1583 27.4472 50.2911 27.2962 50.4535ZM17.8887 50.818C18.0962 51.0281 18.2815 51.2 18.3007 51.2C18.3198 51.2 18.1656 51.0281 17.9581 50.818C17.7506 50.6079 17.5653 50.4362 17.5461 50.4362C17.5272 50.4362 17.6812 50.6079 17.8887 50.818ZM45.362 50.6147C45.3365 50.7165 45.3289 50.8132 45.3452 50.8296C45.3616 50.8459 45.3959 50.7759 45.4214 50.6742C45.447 50.5724 45.4546 50.4757 45.4382 50.4593C45.4218 50.4429 45.3875 50.513 45.362 50.6147ZM49.7325 51.1665C49.4268 51.5192 49.1671 51.8664 49.1553 51.938C49.1423 52.0158 49.1775 51.9881 49.2425 51.8688C49.3021 51.759 49.5739 51.4221 49.8464 51.1198C50.1187 50.8178 50.3296 50.5604 50.3148 50.5479C50.3 50.5355 50.0381 50.814 49.7325 51.1665ZM26.7394 51.0785C26.3296 51.5159 26.1253 51.7557 26.162 51.7557C26.18 51.7557 26.3904 51.5368 26.6298 51.2695C27.1062 50.7374 27.181 50.6069 26.7394 51.0785ZM60.7238 51.4953C60.6338 51.5811 60.6093 51.614 60.6693 51.5683C60.7292 51.5226 60.8557 51.4542 60.9504 51.4165C61.0649 51.3708 61.0833 51.3463 61.0049 51.3433C60.9402 51.3409 60.8138 51.4093 60.7238 51.4953ZM42.4401 52.2879C41.9625 52.737 41.9613 52.7388 42.3781 52.3911C42.7659 52.0673 43.0169 51.8211 42.952 51.8279C42.9379 51.8293 42.7074 52.0364 42.4401 52.2879ZM55.851 52.6029L55.1497 53.3112L55.8605 52.6293C56.4034 52.1082 56.6043 51.956 56.7114 51.9839C56.7884 52.004 56.8341 51.9923 56.8126 51.9576C56.7158 51.8009 56.5043 51.943 55.851 52.6029ZM67.0432 52.2071C67.1224 52.3216 67.2906 52.5092 67.4171 52.6239C67.587 52.7777 67.5677 52.7414 67.3432 52.4848C66.9333 52.0166 66.8732 51.9609 67.0432 52.2071ZM39.3606 52.4184C39.2443 52.6738 39.2664 52.7282 39.3923 52.4962C39.4512 52.3877 39.4863 52.2859 39.4703 52.2702C39.4544 52.2542 39.4051 52.321 39.3606 52.4184ZM16.396 52.4493C16.3723 52.4878 16.3982 52.501 16.4551 52.4791C16.5109 52.4577 16.6532 52.49 16.7713 52.5511C16.8892 52.6121 16.9857 52.6464 16.9857 52.6275C16.9857 52.4994 16.4626 52.3416 16.396 52.4493ZM52.948 52.4906C53.0274 52.6418 53.2309 52.837 53.2603 52.7901C53.2696 52.7749 53.1862 52.669 53.0747 52.5545C52.9371 52.4128 52.8966 52.3923 52.948 52.4906ZM64.63 52.4998C64.6873 52.5209 64.7966 52.5672 64.873 52.6023C65.0097 52.6652 65.0099 52.6644 64.8772 52.5583C64.803 52.4988 64.6937 52.4527 64.634 52.4557C64.5404 52.4605 64.5401 52.4665 64.63 52.4998ZM41.4615 53.1621C41.1244 53.5115 40.658 54.0641 40.9193 53.8045C41.211 53.5147 41.936 52.728 41.9112 52.728C41.8943 52.728 41.692 52.9233 41.4615 53.1621ZM58.1702 53.8913L57.0945 54.9852L58.1883 53.9095C59.2046 52.9102 59.3135 52.7975 59.264 52.7975C59.2539 52.7975 58.7617 53.2896 58.1702 53.8913ZM63.1691 53.3357L62.7894 53.7351L63.1888 53.3555C63.5599 53.0027 63.6199 52.9363 63.5685 52.9363C63.5577 52.9363 63.378 53.1161 63.1691 53.3357ZM32.3982 53.1468L32.2306 53.2938L32.4593 53.1677C32.6596 53.0574 32.6967 53.0546 32.7597 53.1454C32.8231 53.237 32.8281 53.2368 32.803 53.1448C32.7593 52.9838 32.5829 52.9848 32.3982 53.1468ZM36.1199 53.4778C35.8526 53.7361 35.5555 54.0026 35.4602 54.0701C35.2936 54.1876 35.2956 54.1876 35.5106 54.0713C35.7065 53.9653 36.7258 53.0039 36.639 53.0069C36.6208 53.0075 36.3872 53.2196 36.1199 53.4778ZM31.8833 53.537C31.6742 53.7239 31.6585 53.7499 31.8201 53.6419C32.012 53.5135 32.2534 53.2794 32.1869 53.2862C32.1728 53.2876 32.0361 53.4005 31.8833 53.537ZM44.7842 53.5266C44.785 53.6794 44.7992 53.7339 44.8158 53.6475C44.8323 53.5609 44.8317 53.4361 44.8144 53.3696C44.797 53.3032 44.7834 53.3738 44.7842 53.5266ZM50.7443 53.6513L50.4367 54.0128L50.7982 53.6665L51.1597 53.3203L51.3373 53.5276L51.515 53.7351L51.3656 53.5093C51.1683 53.211 51.1074 53.225 50.7443 53.6513ZM46.9544 53.6783C46.6759 53.9296 46.783 53.8762 47.1507 53.5805C47.2587 53.4935 47.3213 53.4237 47.2896 53.4251C47.2581 53.4265 47.1072 53.5406 46.9544 53.6783ZM39.4189 53.7088C39.1769 53.921 39.1767 53.9212 39.3993 53.7732C39.5224 53.6914 39.6415 53.5947 39.664 53.5582C39.7309 53.4498 39.6754 53.4839 39.4189 53.7088ZM27.4775 53.8686L27.2387 54.1519L27.5086 53.8937C27.6573 53.7517 27.7646 53.6242 27.7474 53.6104C27.7303 53.5967 27.6088 53.713 27.4775 53.8686ZM48.8172 53.9781C48.8172 54.2265 48.8297 54.328 48.8451 54.2039C48.8604 54.0797 48.8604 53.8766 48.8451 53.7525C48.8297 53.6282 48.8172 53.7299 48.8172 53.9781ZM47.2164 54.117C47.2164 54.2889 47.2299 54.3593 47.2465 54.2734C47.263 54.1874 47.263 54.0467 47.2465 53.9607C47.2299 53.8748 47.2164 53.9452 47.2164 54.117ZM26.0804 54.1692L25.841 54.4296L26.1013 54.1902C26.3437 53.9675 26.3938 53.9087 26.3408 53.9087C26.3292 53.9087 26.2119 54.026 26.0804 54.1692ZM54.1947 54.0178C53.9352 54.1586 53.9509 54.2173 54.2121 54.0822C54.3268 54.023 54.4205 53.9598 54.4205 53.9416C54.4205 53.8969 54.413 53.8995 54.1947 54.0178ZM62.4379 54.1343L62.2338 54.3601L62.4597 54.1561C62.5837 54.0439 62.6853 53.9424 62.6853 53.9304C62.6853 53.8768 62.628 53.924 62.4379 54.1343ZM30.8068 54.1866C30.6731 54.2596 30.5887 54.3208 30.6193 54.3224C30.6929 54.3264 31.0847 54.1227 31.0847 54.0804C31.0847 54.0352 31.0805 54.0366 30.8068 54.1866ZM39.4384 54.8052C38.9883 55.1454 38.4796 55.5751 38.3078 55.76L37.9954 56.0964L38.3773 55.7389C38.6999 55.4369 39.0522 55.1605 40.2177 54.2957C40.2939 54.2391 40.334 54.1914 40.3066 54.1896C40.2791 54.188 39.8885 54.4649 39.4384 54.8052ZM45.7391 54.6151C45.5569 54.7803 45.5134 54.8403 45.6349 54.7586C45.8266 54.6295 46.145 54.3214 46.0796 54.3284C46.0642 54.33 45.9108 54.4591 45.7391 54.6151ZM29.5402 54.4439C29.6265 54.4605 29.7514 54.4599 29.8179 54.4425C29.8843 54.4252 29.8137 54.4116 29.6609 54.4124C29.508 54.4132 29.4538 54.4274 29.5402 54.4439ZM52.5983 54.4439C52.6847 54.4605 52.8096 54.4599 52.876 54.4425C52.9424 54.4252 52.8718 54.4116 52.719 54.4124C52.5662 54.4132 52.5117 54.4274 52.5983 54.4439ZM61.8145 54.829L61.4699 55.1935L61.8346 54.8489C62.0351 54.6594 62.1991 54.4952 62.1991 54.4842C62.1991 54.4324 62.1349 54.49 61.8145 54.829ZM26.8481 54.7422C26.7665 54.8567 26.7152 54.9505 26.7344 54.9505C26.7535 54.9505 26.8359 54.8567 26.9175 54.7422C26.9991 54.6275 27.0502 54.5337 27.031 54.5337C27.0121 54.5337 26.9297 54.6275 26.8481 54.7422ZM34.5919 54.7855C34.467 54.8918 34.4415 54.9341 34.5283 54.891C34.6556 54.8278 34.8944 54.5991 34.8261 54.6057C34.812 54.6071 34.7064 54.6879 34.5919 54.7855ZM45.1443 55.1761L44.9403 55.4019L45.1661 55.1979C45.2902 55.0857 45.3917 54.9842 45.3917 54.9722C45.3917 54.9185 45.3345 54.9658 45.1443 55.1761ZM26.1861 55.5234L25.7716 55.9576L26.2057 55.543C26.4443 55.315 26.6396 55.1196 26.6396 55.1089C26.6396 55.0576 26.5712 55.1202 26.1861 55.5234ZM33.4981 55.1384C33.584 55.155 33.7247 55.155 33.8107 55.1384C33.8965 55.1218 33.8262 55.1083 33.6543 55.1083C33.4825 55.1083 33.4121 55.1218 33.4981 55.1384ZM15.6281 55.7078C15.5918 55.7421 15.4995 55.7854 15.4232 55.8037C15.2914 55.8355 15.2918 55.8377 15.432 55.8452C15.5132 55.8496 15.6188 55.8065 15.6662 55.7491C15.7606 55.6356 15.7341 55.6068 15.6281 55.7078ZM48.8295 55.8967C48.7048 56.003 48.6793 56.0453 48.7659 56.0022C48.8932 55.939 49.132 55.7104 49.0639 55.717C49.0496 55.7183 48.9442 55.7991 48.8295 55.8967ZM44.0722 55.9228C43.9292 55.9685 43.923 55.9795 44.0375 55.9843C44.1139 55.9875 44.2232 55.9598 44.2805 55.9228C44.4022 55.8442 44.3178 55.8442 44.0722 55.9228ZM37.7129 56.357L37.5088 56.5826L37.7347 56.3787C37.8588 56.2664 37.9603 56.1648 37.9603 56.1529C37.9603 56.0992 37.903 56.1465 37.7129 56.357ZM37.7067 57.5723C37.1723 58.3823 37.2401 58.8366 37.8955 58.8388C38.07 58.8394 38.3824 58.8699 38.5901 58.9066C38.7976 58.9431 39.2461 58.9906 39.5868 59.0119C39.9276 59.0331 40.8964 59.127 41.7399 59.2206C42.5833 59.3142 44.6017 59.5338 46.2252 59.7086C47.8486 59.8835 50.5989 60.1822 52.337 60.3723C55.4442 60.7121 56.0174 60.7743 59.9767 61.2018C61.0653 61.3195 63.3468 61.5685 65.0468 61.7553C69.0869 62.1993 69.1443 62.2043 69.1443 62.1241C69.1443 62.087 69.1753 61.8095 69.213 61.5073C69.2509 61.2052 69.3762 60.1455 69.4915 59.1524C69.607 58.1592 69.7123 57.2763 69.7257 57.1903L69.7502 57.0341H53.906H38.062L37.7067 57.5723ZM36.2935 58.3188C36.1752 58.4908 36.0942 58.6315 36.1131 58.6315C36.1323 58.6315 36.2448 58.4908 36.3629 58.3188C36.4812 58.1471 36.5624 58.0064 36.5432 58.0064C36.5241 58.0064 36.4118 58.1471 36.2935 58.3188ZM35.8627 58.9265C35.661 59.1955 35.5808 59.3259 35.6178 59.3259C35.6327 59.3259 35.7458 59.1853 35.8693 59.0135C36.1255 58.6568 36.1199 58.584 35.8627 58.9265ZM34.9091 60.11C34.5005 60.5563 34.4445 60.6341 34.7236 60.3677C35.0783 60.0292 35.5803 59.4604 35.518 59.4676C35.5052 59.469 35.2313 59.7581 34.9091 60.11ZM34.0363 60.8972C33.9114 61.0035 33.8859 61.0458 33.9727 61.0027C34.1 60.9395 34.3388 60.7109 34.2705 60.7175C34.2564 60.7188 34.1508 60.7998 34.0363 60.8972Z" fill="white"/>
<path fill-rule="evenodd" clip-rule="evenodd" d="M21.8388 48.6221C20.3253 49.4325 19.4252 49.8584 18.4443 50.2285C17.6233 50.5379 17.8426 50.882 19.6596 52.1361C20.0417 52.3999 20.3886 52.6486 20.4307 52.6891C20.6164 52.8679 22.1049 53.9025 22.9935 54.4703C23.5281 54.812 24.0377 55.1727 24.1254 55.2719L24.285 55.4524L24.2296 55.08C24.1991 54.8751 24.1741 54.4356 24.1741 54.1032C24.1741 53.7214 24.1498 53.5232 24.1081 53.5649C23.9684 53.7046 23.8559 53.6156 23.6456 53.1991L23.4276 52.7671L23.8455 52.3829C24.3467 51.9224 24.3786 51.864 24.6007 51.0045C24.7946 50.2544 24.9402 49.7958 25.2081 49.0909C25.4844 48.3639 25.5986 48.422 23.8922 48.422C22.9117 48.422 22.4097 48.3981 22.4379 48.3526C22.4614 48.3143 22.471 48.2871 22.4592 48.2921C22.4474 48.2971 22.1681 48.4457 21.8388 48.6221ZM29.8108 48.515C29.7406 48.5852 29.4928 48.8978 29.2604 49.2094C28.8283 49.789 28.4243 50.2678 27.4318 51.377C26.6952 52.2002 26.6707 52.242 26.5041 52.9565C26.2338 54.1164 26.4038 53.9813 27.2291 52.3807C27.9132 51.054 28.3676 50.5862 28.9809 50.5772C29.1589 50.5746 29.4176 50.8242 29.4176 50.9984C29.4176 51.0808 29.4579 51.1071 29.5477 51.0835C29.7302 51.0359 29.9365 51.3503 30.0762 51.8895C30.2384 52.5152 30.3902 52.8669 30.4983 52.8669C30.8183 52.8669 31.3532 52.6903 31.5359 52.5241C31.6506 52.42 31.9475 52.1914 32.1959 52.016C32.4441 51.8407 32.9442 51.4087 33.3071 51.0564C33.9918 50.3917 34.3611 50.1624 34.7513 50.1599C34.9949 50.1583 35.3657 50.4465 35.2861 50.5756C35.2626 50.6135 35.3079 50.6444 35.3865 50.6444C35.8715 50.6444 35.9054 51.1185 35.5048 52.2935C35.2736 52.9718 35.3119 53.1783 35.599 52.8005C35.6181 52.7753 35.7057 52.7055 35.7939 52.6452C35.8819 52.5852 36.2256 52.2865 36.5578 51.9819C36.8899 51.6771 37.412 51.2124 37.7181 50.9493C38.2825 50.4641 38.7267 50.0691 38.9193 49.8812C39.2235 49.5847 40.3196 49.7545 40.2332 50.0848C40.2118 50.166 40.2535 50.2033 40.377 50.2135C40.8905 50.256 40.7491 51.0792 39.9052 52.9595C39.6131 53.6102 39.8254 53.4562 41.2678 51.9705C41.7725 51.4504 42.2856 50.9004 42.4077 50.748C42.962 50.0569 43.5309 49.2358 43.9593 48.5094C44.0554 48.3464 29.9738 48.352 29.8108 48.515ZM6.49672 48.5202C5.49662 48.7406 4.68166 49.5328 4.41872 50.5403C4.32316 50.907 4.32316 54.5491 4.41872 54.9158C4.7068 56.0194 5.60116 56.8001 6.76625 56.9646C7.47268 57.0646 24.2473 57.0311 24.2352 56.9299C24.2306 56.8916 23.6836 56.6249 23.0196 56.3372C21.7713 55.796 21.1652 55.4816 20.8718 55.223C20.6515 55.0291 20.1657 54.7137 20.0764 54.7065C20.0383 54.7035 20.0155 54.6612 20.0261 54.6123C20.0365 54.5634 20.0137 54.5429 19.9754 54.5664C19.8739 54.6293 19.6125 54.4711 19.6684 54.3807C19.6963 54.3354 19.6842 54.3234 19.6387 54.3516C19.5463 54.4088 18.9422 54.1042 18.6968 53.8768C18.6009 53.7878 18.2938 53.5633 18.0145 53.3782C17.7352 53.1931 17.4837 53.0101 17.4557 52.9716C17.4276 52.9331 17.4041 52.9259 17.4037 52.9555C17.4031 52.9852 17.3085 52.9609 17.1936 52.9014C16.9157 52.7576 16.7645 53.236 16.3585 55.5408C16.2208 56.3221 16.1504 56.3793 15.5982 56.1583C15.3424 56.0561 15.2848 55.9899 15.3125 55.8309C15.3179 55.7994 15.2913 55.7928 15.2532 55.8163C15.1706 55.8674 14.8247 55.6984 14.697 55.5446C14.5173 55.3281 14.6047 54.1122 14.8991 52.728C15.0721 51.9155 15.0136 51.6559 14.555 51.2001C13.9688 50.6175 14.0069 50.3414 14.7369 49.8804C15.2181 49.5763 15.268 49.4682 15.2329 48.804L15.2145 48.4567L11.0475 48.4461C7.99498 48.4386 6.77782 48.4583 6.49672 48.5202ZM17.6602 48.5609C17.6149 48.7338 17.7117 48.7338 18.0275 48.5609L18.2707 48.4278L17.9836 48.4248C17.7536 48.4226 17.6893 48.4495 17.6602 48.5609ZM46.4502 49.3836C45.917 51.0991 45.7324 51.7794 45.5627 52.6544C45.3663 53.6655 45.354 53.6192 45.7438 53.3371C47.1178 52.3432 47.3975 52.0136 47.6474 51.0959C47.8725 50.2692 48.0117 49.8349 48.3012 49.0564C48.4199 48.737 48.5171 48.4623 48.5171 48.4461C48.5171 48.43 48.1183 48.4208 47.6311 48.426L46.7449 48.4354L46.4502 49.3836ZM52.7583 48.6831C52.638 48.826 52.3271 49.2158 52.0674 49.5494C51.8076 49.8831 51.1916 50.6119 50.6984 51.1691C50.067 51.8826 49.7751 52.268 49.7115 52.4725C49.6051 52.8128 49.4086 53.7816 49.4394 53.8123C49.4821 53.8552 49.9319 53.1091 50.3381 52.3217C50.9721 51.0923 51.1609 50.8659 51.7061 50.68C52.1562 50.5267 52.2549 50.5459 52.4155 50.818C52.4945 50.9517 52.6116 51.0612 52.6761 51.0612C52.8662 51.0612 53.3853 52.2891 53.3995 52.7723C53.4021 52.8565 53.6245 52.8555 54.1452 52.7691C54.3932 52.7278 54.4935 52.668 54.6168 52.4882C54.9213 52.0439 57.6534 49.3944 57.8072 49.3944C57.8428 49.3944 57.9722 49.3443 58.0949 49.283C58.6168 49.0227 59.1433 49.1464 59.1433 49.5294C59.1433 49.6218 59.1804 49.6493 59.2726 49.6252C59.5533 49.552 59.7187 49.9209 59.678 50.5293L59.6417 51.0738L59.8154 50.9112C59.9112 50.8218 60.2617 50.483 60.5947 50.1583C62.0249 48.7639 62.9993 48.3256 63.2079 48.983C63.2295 49.0508 63.3532 49.1689 63.4829 49.2455C63.9092 49.4971 63.9974 51.0564 63.6101 51.4957C63.5407 51.5743 63.6871 51.4762 63.9355 51.2775C65.0268 50.404 65.6311 50.2927 66.1817 50.8641C66.3716 51.0612 66.5031 51.1783 66.4738 51.1244C66.4445 51.0706 66.5588 51.1671 66.7275 51.3389C66.9937 51.6098 67.2947 52.0745 67.5732 52.6444C67.6371 52.7751 67.6897 52.7969 67.8659 52.7649C68.0634 52.729 68.0905 52.7484 68.2084 53.0095C68.306 53.226 68.3671 53.285 68.4662 53.2591C68.562 53.2342 68.6258 53.2872 68.7082 53.4598C68.7696 53.5889 68.8395 53.6824 68.863 53.6677C68.8867 53.6531 68.9105 53.6934 68.9159 53.7575C68.9213 53.8215 68.9358 53.9322 68.9482 54.0034C68.9829 54.2026 68.1907 54.6037 67.7667 54.6018C67.4384 54.6002 66.6715 54.276 66.7234 54.1605C66.7371 54.1301 66.6436 54.0611 66.5155 54.0074C66.3876 53.9536 66.0594 53.6944 65.7863 53.4313C64.9187 52.5956 64.799 52.652 62.716 54.8811C61.7177 55.9492 61.17 56.175 60.9883 55.5929C60.9534 55.481 60.8859 55.4367 60.7499 55.4367C60.3052 55.4367 60.2862 55.0766 60.6697 53.9131C60.9254 53.1372 61.1232 52.2538 61.0559 52.1868C60.9845 52.1154 60.3866 52.6594 59.039 54.0218C58.0969 54.9746 57.5128 55.5133 57.3891 55.5438C57.0599 55.6248 56.7194 55.523 56.6707 55.3293C56.6406 55.2096 56.5799 55.1588 56.4668 55.1588C56.2573 55.1588 56.0873 54.9848 56.0873 54.7705C56.0873 54.5866 56.5298 53.1288 56.6547 52.9016C56.7507 52.7268 55.7478 53.6723 55.5866 53.9083C55.0404 54.7087 53.0156 55.141 52.4063 54.5874C52.3108 54.5006 52.1438 54.3837 52.0351 54.3274C51.9263 54.2712 51.7671 54.1419 51.6814 54.04L51.5253 53.8544L51.25 54.1768C51.0984 54.354 50.8514 54.6865 50.7008 54.9156C50.3305 55.479 49.5427 56.2983 49.2277 56.4479C48.8297 56.6367 47.9062 56.3893 48.0628 56.1357C48.078 56.1112 48.0073 56.0842 47.9058 56.0759C47.596 56.0503 47.4825 55.8604 47.3416 55.1332C47.2692 54.7594 47.1966 54.4402 47.18 54.4238C47.122 54.3657 46.5482 54.832 45.8374 55.5149C45.107 56.2165 44.8018 56.409 44.4193 56.409C44.1632 56.409 43.7248 56.2363 43.7248 56.1353C43.7248 56.0954 43.6103 56.0078 43.4705 55.9408C42.9237 55.6783 42.724 54.4854 43.0523 53.4438C43.175 53.055 43.2606 52.5892 43.2095 52.5892C43.1383 52.5892 41.9455 53.6575 41.6596 53.9775C41.4978 54.1585 41.1228 54.4721 40.8263 54.674C40.309 55.0265 39.5611 55.5701 39.4882 55.6463C39.4691 55.6665 39.273 55.8353 39.0521 56.0214C38.8313 56.2075 38.5243 56.511 38.3696 56.6957L38.0885 57.0313L56.2382 57.0153L74.388 56.9994L74.8612 56.7993C75.5285 56.517 76.0259 56.0421 76.3513 55.3764L76.6104 54.8463V52.728V50.6097L76.3611 50.0888C75.9527 49.236 75.2153 48.6682 74.288 48.4922C74.052 48.4475 70.1675 48.4226 63.4487 48.4228L52.9769 48.4232L52.7583 48.6831ZM36.8816 53.7782C36.6537 54.0118 36.2555 54.342 35.9968 54.5116C35.7017 54.7053 35.5443 54.8509 35.5738 54.9026C35.6 54.9481 35.5958 54.9623 35.5647 54.9341C35.5337 54.906 35.3753 55.0055 35.2127 55.1554C34.7014 55.6266 33.81 55.7227 33.4831 55.3419C33.3965 55.2414 33.28 55.1588 33.2243 55.1588C32.9705 55.1588 32.8319 54.8651 32.8085 54.2784L32.7862 53.7106L32.5777 53.8806C31.0438 55.1316 29.8699 55.2005 28.7118 54.107L28.4437 53.8538L28.1428 54.2111C27.9772 54.4076 27.7141 54.759 27.5579 54.9918C26.5993 56.4216 25.6363 56.906 25.034 56.2612L24.847 56.0611L24.8848 56.4769C24.9117 56.7749 24.8951 56.9263 24.8261 57.0113C24.7702 57.0802 24.7647 57.1093 24.8127 57.0804C24.8582 57.053 27.2341 57.0317 30.0921 57.0331L35.2885 57.0357L35.7442 56.566C36.3251 55.9673 37.0671 54.4976 37.2873 53.5093C37.3326 53.3064 37.3584 53.2892 36.8816 53.7782Z" fill="white"/>
<path fill-rule="evenodd" clip-rule="evenodd" d="M31.915 42.7396C31.9132 42.9046 31.8642 43.1645 31.8055 43.3172C31.7471 43.47 31.6722 43.7222 31.6395 43.8776C31.6066 44.0328 31.4715 44.3765 31.3393 44.6415C31.207 44.9064 31.0528 45.2342 30.9965 45.3702C30.8102 45.8209 29.5519 47.799 29.1673 48.2456C29.0342 48.3999 28.719 48.7919 28.4667 49.1165C28.2141 49.4413 27.692 50.0623 27.3064 50.4966C26.0461 51.9155 26.1237 51.7926 25.9573 52.6357C25.7706 53.5813 25.7056 54.1437 25.7648 54.2983C25.8284 54.4641 26.3619 53.951 26.3619 53.7238C26.3619 52.907 26.6725 52.2257 27.4318 51.377C28.4579 50.2301 28.8363 49.7814 29.2355 49.2386C29.453 48.9427 29.688 48.6458 29.7578 48.5788C30.003 48.343 31.5707 45.8546 31.5707 45.701C31.5707 45.6657 31.6958 45.3862 31.8486 45.08C32.0014 44.7737 32.1265 44.4777 32.1265 44.422C32.1265 44.3663 32.1889 44.1429 32.2654 43.9256C32.5147 43.216 32.4331 42.6032 32.074 42.4892C31.929 42.4432 31.9178 42.4609 31.915 42.7396ZM54.9584 42.8833C54.9381 43.1219 54.8714 43.4109 54.8104 43.5256C54.7491 43.6402 54.6991 43.8039 54.6989 43.8893C54.6977 44.3171 52.9393 47.4672 52.3432 48.1094C52.2013 48.2622 51.9011 48.6373 51.6758 48.9429C51.4506 49.2485 51.1827 49.5923 51.0805 49.7068C50.9784 49.8215 50.5199 50.345 50.0617 50.8705L49.2285 51.8257L49.0729 52.4332C48.9259 53.0065 48.7956 54.3949 48.8888 54.3949C49.0765 54.3949 49.4183 53.8363 49.4905 53.4117C49.6653 52.3857 49.7315 52.2626 50.6985 51.1695C51.1916 50.6121 51.8083 49.8832 52.0686 49.5494C52.3292 49.2158 52.6873 48.7709 52.8647 48.5609C53.1733 48.1954 54.3611 46.3334 54.4922 46.0096C54.5269 45.9244 54.6949 45.5713 54.8655 45.2252C55.0362 44.8791 55.2112 44.4258 55.2543 44.2181C55.2976 44.0104 55.359 43.8243 55.3909 43.8045C55.5998 43.6755 55.5116 42.728 55.274 42.5477C55.051 42.3785 54.9963 42.4366 54.9584 42.8833ZM53.191 43.9522C53.0173 44.1377 52.5622 44.7115 52.1796 45.2272C51.7969 45.7429 51.3429 46.348 51.1703 46.572C50.9979 46.7961 50.8172 47.0931 50.7689 47.232C50.7206 47.3708 50.5064 47.9189 50.2929 48.4501C50.0792 48.9812 49.9156 49.4269 49.929 49.4405C50.004 49.5153 51.1346 48.0964 51.2429 47.7918C51.3095 47.6041 51.5001 47.2705 51.6661 47.0506C52.6508 45.7467 53.0037 45.219 53.3423 44.5437C53.8021 43.6264 53.7365 43.3692 53.191 43.9522ZM30.0549 44.0066C29.8991 44.1758 29.4528 44.7462 29.0632 45.2743C28.6737 45.8022 28.2035 46.4358 28.0182 46.682C27.833 46.9283 27.6814 47.1689 27.6814 47.2166C27.6814 47.3128 27.0302 48.9676 26.8692 49.2805C26.7003 49.6088 26.8688 49.4654 27.4987 48.7446C27.8997 48.2857 28.1211 47.9695 28.171 47.7846C28.2368 47.54 28.7045 46.8346 29.2676 46.1301C30.3829 44.7348 31.0554 42.9214 30.0549 44.0066ZM16.7192 44.0021C16.2406 44.1754 16.0623 44.4888 16.1349 45.0299C16.1913 45.4502 16.5712 45.3862 16.6737 44.9393C16.8696 44.0848 19.4314 44.1746 21.2437 45.0991C21.5819 45.2717 21.6561 45.2224 21.3465 45.0311C20.0565 44.2339 17.5926 43.6858 16.7192 44.0021ZM23.673 44.5154C23.9875 44.9798 24.0022 45.9869 23.7014 46.4589C23.4288 46.8864 22.478 47.6056 21.6391 48.0186C21.2381 48.2161 20.8631 48.4166 20.8058 48.4643C20.6237 48.6157 19.2728 49.2621 18.4186 49.6064C17.2704 50.0695 17.2477 50.1247 17.9338 50.7833C18.2602 51.0967 18.2981 51.1195 18.1449 50.9096C17.8616 50.5214 17.9222 50.4192 18.5832 50.1726C19.2046 49.9408 20.3597 49.4197 20.8605 49.1452C21.1168 49.0047 21.6399 48.7298 22.023 48.5343C24.6382 47.1995 25.1619 45.8231 23.6359 44.2969C23.4318 44.093 23.447 44.1814 23.673 44.5154ZM47.1974 44.8577C47.1974 44.9601 47.1304 45.2521 47.0482 45.5071L46.899 45.9705L47.0574 46.1287C47.2042 46.2756 47.2132 46.331 47.1815 46.89C47.1382 47.6489 47.0755 47.7704 46.6949 47.8335C46.3208 47.8953 46.1558 47.9815 46.1558 48.1148C46.1558 48.1724 46.0335 48.6012 45.8839 49.0674C45.0606 51.6368 44.6322 53.8419 44.9576 53.8377C45.2619 53.8339 45.3788 53.622 45.5322 52.7975C45.6878 51.9596 45.9898 50.837 46.4419 49.4147C46.5901 48.9483 46.7114 48.5192 46.7114 48.4609C46.7114 48.356 46.7811 48.3302 47.2874 48.2486C47.7105 48.1804 47.9188 46.9208 47.5655 46.5674C47.4023 46.4042 47.4051 46.3737 47.6425 45.722C47.8215 45.2306 47.7478 44.8936 47.4296 44.7486C47.2004 44.6442 47.1974 44.6456 47.1974 44.8577ZM17.6804 45.6007C17.6804 45.6914 17.5743 46.1838 17.4448 46.6945C17.1631 47.8053 16.952 48.8974 17.0083 48.9537C17.1681 49.1137 17.6804 48.7302 17.6804 48.4507C17.6804 48.352 17.7919 47.8349 17.9282 47.3018C18.2328 46.1104 18.2378 45.9937 17.9998 45.6817C17.7812 45.3948 17.6804 45.3692 17.6804 45.6007ZM42.9784 47.7794C42.3575 47.791 41.8498 47.8269 41.8498 47.8596C41.8498 48.2161 44.1121 48.3819 44.2693 48.0368C44.3803 47.7936 44.3707 47.7247 44.2284 47.7429C44.1616 47.7515 43.599 47.7678 42.9784 47.7794ZM63.3103 49.7355C63.3103 50.3911 63.1631 51.2158 62.9666 51.6599C62.6805 52.3065 62.8415 52.3448 63.3666 51.7549L63.7355 51.3405L63.8097 50.6867C63.8971 49.9187 63.8492 49.5795 63.6216 49.3519C63.3546 49.0849 63.3103 49.1396 63.3103 49.7355ZM59.2092 49.62C59.2074 49.6296 59.1908 49.8157 59.1725 50.0336C59.1541 50.2514 59.0775 50.6706 59.0023 50.9648C58.8022 51.7475 58.8387 51.7898 59.3401 51.3561C59.7257 51.0227 59.8494 50.1545 59.5627 49.7936C59.4412 49.6406 59.2264 49.535 59.2092 49.62ZM40.2269 50.2169C40.2127 50.2421 40.163 50.3875 40.1165 50.5403C39.9615 51.0502 39.6866 51.7814 39.281 52.7628C38.6699 54.2415 38.6723 54.2828 39.3379 53.7525C39.7399 53.4321 39.772 53.3708 40.3631 51.7904C40.719 50.8388 40.8008 50.4332 40.6592 50.3219C40.5367 50.2257 40.2598 50.1585 40.2269 50.2169ZM35.2517 50.8298C35.2517 50.9317 35.111 51.4454 34.9393 51.9715C34.5157 53.2671 34.5285 53.5109 35.0043 53.2168C35.4719 52.9279 35.9739 51.0887 35.6684 50.7833C35.4618 50.5768 35.2517 50.6002 35.2517 50.8298ZM29.4871 51.148C29.4865 51.3469 29.7997 52.2921 29.93 52.4848C30.1939 52.8753 30.4405 52.9349 30.2887 52.5718C30.2368 52.4475 30.1423 52.1441 30.0782 51.8973C29.9224 51.296 29.4881 50.7454 29.4871 51.148ZM52.5469 51.1133C52.563 51.6912 53.123 52.7975 53.3993 52.7975C53.4554 52.7975 53.0344 51.4694 52.9137 51.2651C52.8072 51.0847 52.5429 50.9754 52.5469 51.1133ZM66.6867 51.5314C66.8329 51.8091 67.0901 52.1934 67.2581 52.3855C67.5779 52.7512 67.7303 52.8066 67.4943 52.4715C67.4187 52.3643 67.2858 52.1363 67.199 51.9648C67.112 51.7934 66.9016 51.5121 66.7308 51.3397L66.4206 51.0265L66.6867 51.5314ZM43.2577 51.5751C43.0632 51.7802 42.6123 52.1986 42.2554 52.505C41.8985 52.8112 41.4187 53.2601 41.1888 53.5025C40.9592 53.7451 40.5528 54.0886 40.2861 54.2662C38.736 55.2978 37.7907 56.2063 36.905 57.5165C35.0979 60.1888 34.2157 61.0945 33.1553 61.3654C32.5528 61.5195 32.665 61.8566 33.3137 61.8419C34.486 61.8151 35.4061 60.922 37.6736 57.6086C38.4274 56.5074 39.2244 55.7654 40.824 54.6758C41.1192 54.4745 41.4903 54.1648 41.6483 53.9877C41.8065 53.8105 42.2368 53.4055 42.6047 53.0875C43.2575 52.5234 43.2754 52.4996 43.358 52.0988C43.4045 51.873 43.4927 51.5911 43.5541 51.4724C43.7263 51.1394 43.6435 51.1681 43.2577 51.5751ZM60.3853 51.8079C60.1032 52.0276 59.2152 52.8715 58.4118 53.6831C57.3836 54.7221 56.9056 55.1588 56.797 55.1588C56.4475 55.1588 56.6671 55.5039 57.0494 55.5552C57.4554 55.6096 57.6144 55.4853 59.0941 53.9554C59.7895 53.2362 60.4892 52.5565 60.6486 52.4449C61.1051 52.1259 61.1573 52.0509 61.1573 51.716C61.1573 51.2936 61.0251 51.3094 60.3853 51.8079ZM55.8528 52.6413C55.467 53.0137 55.1382 53.3497 55.1218 53.3878C54.9293 53.8391 53.7263 54.3981 52.9101 54.4156C52.1907 54.4312 52.1788 54.4382 52.4938 54.652C53.1547 55.1009 55.0119 54.6826 55.5244 53.9693C55.5777 53.8951 55.8785 53.5777 56.1927 53.2639C56.6843 52.7731 56.7705 52.6514 56.8094 52.3939C56.9042 51.7633 56.7102 51.8133 55.8528 52.6413ZM16.3543 52.6409C16.3144 52.7458 16.1544 53.4726 15.999 54.2556C15.6972 55.7752 15.6688 55.8534 15.4169 55.8534C15.1715 55.8534 15.2792 56.0308 15.6036 56.1605C16.1498 56.3791 16.2213 56.3205 16.3585 55.5408C16.7679 53.2166 16.9147 52.7572 17.2012 52.9054C17.5515 53.0863 17.356 52.8829 16.9634 52.6578C16.5189 52.4029 16.4455 52.4007 16.3543 52.6409ZM64.1656 52.5858C63.8761 52.7167 63.2621 53.2998 61.9884 54.6532C61.5855 55.0818 61.2517 55.3758 61.1356 55.4049C60.7623 55.4985 61.0099 55.8504 61.4502 55.8522C61.7486 55.8534 61.9559 55.6944 62.716 54.8811C64.2334 53.2573 64.795 52.7997 65.137 52.9082C65.3439 52.9738 65.1731 52.7602 64.9129 52.6281C64.5834 52.4607 64.4581 52.4535 64.1656 52.5858ZM36.9881 52.7767C36.8543 52.8791 36.4792 53.2148 36.1546 53.5227C35.8298 53.8305 35.436 54.1437 35.2792 54.2187C35.1224 54.2937 34.9271 54.4571 34.8455 54.5818C34.6558 54.8713 34.2247 55.0907 33.7496 55.1398C33.3267 55.1835 33.3281 55.1821 33.5124 55.38C33.8616 55.7547 34.7402 55.5999 35.3149 55.0622C35.5284 54.8623 35.8594 54.6006 36.0505 54.4805C36.7338 54.0507 37.3325 53.3625 37.3814 52.9503C37.432 52.5228 37.3608 52.4914 36.9881 52.7767ZM32.3001 53.2856C31.04 54.2185 30.6396 54.3999 29.8041 54.4164L29.1326 54.4296L29.3109 54.5834C30.2376 55.3826 33.1685 54.2008 32.7787 53.1851C32.719 53.0293 32.6173 53.0508 32.3001 53.2856ZM68.4327 53.2619C68.3346 53.2876 68.3256 53.3202 68.3861 53.4331C68.571 53.7788 67.7798 54.2243 67.0803 54.168C66.5812 54.1279 66.5848 54.1642 67.1057 54.4246C67.6687 54.7059 68.5006 54.5696 68.9586 54.121C69.0055 54.0753 68.6253 53.1953 68.5704 53.2222C68.5614 53.2266 68.4994 53.2445 68.4327 53.2619ZM27.6786 53.7102C27.4745 53.9448 27.192 54.3157 27.0506 54.5343C26.4385 55.4814 25.5926 56.1892 25.1731 56.1052C24.9239 56.0553 24.8966 56.2179 25.1292 56.3671C25.8221 56.8122 26.6528 56.3418 27.5579 54.9918C27.7141 54.759 27.9811 54.4033 28.1512 54.2012L28.4607 53.8341L28.2699 53.5588C28.0387 53.225 28.1183 53.2046 27.6786 53.7102ZM50.7988 53.6831C50.6241 53.8644 50.3777 54.1692 50.2512 54.3602C49.4835 55.5191 48.6711 56.2239 48.2348 56.1098C48.0631 56.0649 48.0116 56.1479 48.1199 56.2949C48.5979 56.9433 49.7882 56.3071 50.7001 54.9156C50.8503 54.6865 51.0925 54.3618 51.2383 54.1942C51.5483 53.8375 51.5503 53.8273 51.3516 53.5586C51.1581 53.297 51.1737 53.2934 50.7988 53.6831ZM47.1649 53.5582C47.1424 53.5945 46.8828 53.7944 46.5877 54.0025C46.2929 54.2105 45.7233 54.6917 45.3223 55.0718C44.5205 55.8315 44.2721 55.9923 43.8995 55.9923C43.5863 55.9923 43.6577 56.2089 44.0116 56.3322C44.6017 56.5379 44.9213 56.3911 45.8839 55.4718C46.308 55.0668 46.7733 54.6572 46.9177 54.5615C47.1464 54.4102 47.1851 54.3452 47.2154 54.0613C47.2345 53.882 47.2728 53.6805 47.3008 53.6136C47.3534 53.4865 47.2381 53.4395 47.1649 53.5582ZM18.7569 53.9352C18.8714 54.0326 18.9877 54.1132 19.0153 54.1146C19.0428 54.116 19.3058 54.2592 19.5994 54.4328C19.8933 54.6065 20.0956 54.7027 20.0491 54.6468C19.9613 54.5411 19.215 54.0844 18.7916 53.8774L18.5484 53.7585L18.7569 53.9352ZM21.1182 55.4077C21.5571 55.6844 22.0944 55.9466 23.0015 56.3266C23.4644 56.5208 24.0361 56.7775 24.2719 56.8974C24.7821 57.1566 24.904 57.1109 24.9024 56.661C24.901 56.2383 24.8483 56.1072 24.6288 55.9813C24.5066 55.9111 24.4134 55.786 24.3841 55.6523C24.3581 55.5336 24.3124 55.4367 24.2829 55.4367C24.2534 55.4367 24.2727 55.6007 24.3258 55.8014C24.5463 56.6337 24.345 56.7949 23.5585 56.4162C23.2477 56.2666 22.6809 56.0124 22.2989 55.8514C21.917 55.6906 21.457 55.4845 21.2768 55.3936C20.8501 55.1781 20.7659 55.1857 21.1182 55.4077Z" fill="white"/>
<path fill-rule="evenodd" clip-rule="evenodd" d="M3.57183 29.2166C3.54789 29.2405 3.60036 29.4696 3.68854 29.7255C4.1865 31.1717 5.49602 34.9997 5.6652 35.5039C5.77413 35.8285 6.22779 37.1568 6.67328 38.4555C7.11876 39.7543 7.91477 42.0826 8.44226 43.6298C8.96954 45.1769 9.53253 46.8176 9.69333 47.2761C9.85413 47.7343 10.0016 48.179 10.0209 48.264L10.0562 48.4188L12.6471 48.4378L15.2381 48.4567L15.2812 47.6928C15.3051 47.2665 15.2899 46.6217 15.2466 46.2343C15.0946 44.8721 15.1022 43.5705 15.2644 43.1937C15.7139 42.1491 17.3137 41.6336 18.802 42.0539C19.0062 42.1118 19.3109 42.1808 19.4785 42.2075C19.7885 42.257 20.9582 42.6805 21.7779 43.04C22.229 43.238 23.0228 43.7718 23.2674 44.0421C23.3386 44.1209 23.4342 44.1854 23.4797 44.1854C23.6231 44.1854 24.1558 44.8296 24.3339 45.2186C24.789 46.2127 24.3543 47.0891 22.9478 48.0122L22.3766 48.3873L23.8914 48.406L25.4062 48.4248L25.3669 48.649C25.3189 48.9239 25.3737 48.8024 25.6289 48.0687C25.7296 47.779 25.9235 47.3726 26.0598 47.1659C26.1961 46.9591 26.3858 46.6351 26.4818 46.4461C27.5407 44.3574 30.5757 41.3944 31.1094 41.9282C31.1666 41.9855 31.3111 42.0324 31.4302 42.0324C31.598 42.0324 31.6732 42.0791 31.7649 42.2402C31.83 42.3546 31.9367 42.4483 32.0022 42.4487C32.3804 42.4501 32.5546 43.1085 32.3441 43.7425C32.2695 43.9669 32.1887 44.2395 32.1645 44.3482C32.1402 44.4567 31.9812 44.8378 31.8108 45.1949C31.6407 45.552 31.5012 45.8634 31.5012 45.8867C31.5012 45.9328 30.7694 47.1266 30.2777 47.8829C30.1103 48.1403 29.9734 48.3669 29.9734 48.3865C29.9734 48.406 31.4918 48.422 33.348 48.422H36.7225L36.6831 47.9879C36.5689 46.7354 36.3339 43.534 36.1568 40.817C36.1195 40.244 36.0568 39.3688 36.0175 38.8723C35.9784 38.3757 35.9134 37.4694 35.8731 36.8581C35.833 36.247 35.7677 35.3407 35.728 34.8441C35.6885 34.3476 35.6293 33.441 35.5966 32.83C35.5076 31.1787 35.4076 29.8361 35.356 29.6006L35.3101 29.3922L33.18 29.392C32.0083 29.3918 27.3775 29.362 22.8891 29.3257C5.46251 29.1849 3.61413 29.1743 3.57183 29.2166ZM17.3663 44.3889C17.0483 44.4651 16.7958 44.6578 16.7168 44.8844C16.6396 45.1059 16.6727 45.1246 16.9528 45.0181C17.116 44.9561 17.1654 44.9762 17.3809 45.1919C17.515 45.3259 17.6658 45.4355 17.7159 45.4355C17.8226 45.4355 18.1384 45.7936 18.1985 45.9827C18.2424 46.1205 18.223 46.2217 17.9377 47.3455C17.6365 48.5331 17.6327 48.4212 17.9742 48.4274L18.2707 48.433L17.9234 48.6001C17.7324 48.6921 17.6159 48.7679 17.6644 48.7683C17.7131 48.7689 18.0032 48.6434 18.3092 48.4896C18.615 48.3358 19.0284 48.1459 19.2279 48.0677C19.4272 47.9895 19.6528 47.8696 19.7292 47.8013C19.8054 47.7331 20.1763 47.4951 20.5532 47.2725C21.5369 46.6909 21.917 46.2825 21.917 45.8063C21.917 45.5987 21.7101 45.222 21.6069 45.2415C21.5672 45.2491 21.4412 45.2054 21.3264 45.1444C20.3174 44.6065 18.1679 44.1966 17.3663 44.3889ZM29.0358 46.4565C28.6537 46.9732 28.2882 47.537 28.2234 47.7094L28.1055 48.0224L28.2801 47.8586C28.5705 47.5857 29.8218 45.6078 29.7496 45.536C29.739 45.5254 29.4176 45.9396 29.0358 46.4565ZM74.707 48.5932C75.1567 48.7586 75.416 48.9201 75.8076 49.2791L76.1937 49.6326L75.8465 49.2673C75.5132 48.9168 74.799 48.486 74.5679 48.4964C74.5071 48.499 74.5697 48.5425 74.707 48.5932ZM5.69832 48.7621C5.33383 48.9712 4.83408 49.4644 4.69862 49.7489C4.62081 49.9121 4.62161 49.9119 4.74291 49.7415C5.03398 49.3325 5.41203 48.9846 5.7855 48.7819C6.00575 48.6624 6.15478 48.564 6.11647 48.5634C6.07837 48.5626 5.89024 48.6522 5.69832 48.7621ZM43.6658 48.9822C43.4232 49.3726 43.3671 49.5478 43.5898 49.2206C43.7647 48.9634 43.9459 48.6303 43.9106 48.6303C43.8962 48.6303 43.7861 48.7887 43.6658 48.9822ZM62.3032 48.7993C62.1887 48.8511 62.0325 48.9463 61.9561 49.0109C61.8701 49.0837 61.9146 49.0722 62.073 48.9808C62.2138 48.8994 62.4638 48.8064 62.6286 48.7739C62.8716 48.7262 62.8889 48.7141 62.72 48.7101C62.6054 48.7075 62.4179 48.7476 62.3032 48.7993ZM63.107 48.8735C63.107 48.9116 63.1517 49.0209 63.2061 49.1165C63.2608 49.212 63.3055 49.2589 63.3055 49.2206C63.3055 49.1825 63.2608 49.0732 63.2061 48.9776C63.1517 48.882 63.107 48.8352 63.107 48.8735ZM25.1888 49.1242C25.1461 49.2469 25.1232 49.3595 25.1381 49.3744C25.1529 49.3892 25.2002 49.301 25.2429 49.1783C25.2857 49.0554 25.3085 48.9429 25.2937 48.9281C25.2788 48.9132 25.2317 49.0015 25.1888 49.1242ZM58.5354 49.1643C58.6024 49.1819 58.7118 49.1819 58.7786 49.1643C58.8454 49.147 58.7908 49.1326 58.6571 49.1326C58.5234 49.1326 58.4686 49.147 58.5354 49.1643ZM58.1189 49.2575C57.8862 49.3511 57.9297 49.3986 58.1709 49.3144C58.2854 49.2745 58.3792 49.2292 58.3792 49.2138C58.3792 49.1727 58.2946 49.1869 58.1189 49.2575ZM15.1856 49.4835C15.1824 49.5516 15.0707 49.6719 14.937 49.7507C14.6461 49.9222 14.6122 49.9957 14.8899 49.852C15.1387 49.7233 15.2728 49.5631 15.2269 49.4486C15.2047 49.3936 15.189 49.4067 15.1856 49.4835ZM57.2315 49.8979L56.7471 50.4014L57.2662 49.9153C57.5515 49.6477 57.7991 49.4213 57.816 49.4117C57.833 49.4021 57.8172 49.3944 57.7813 49.3944C57.7452 49.3944 57.4978 49.6208 57.2315 49.8979ZM61.1303 49.6407C60.9817 49.7746 60.8744 49.8983 60.8917 49.9157C60.9091 49.9332 61.0447 49.8229 61.1934 49.6709C61.5261 49.3299 61.493 49.3142 61.1303 49.6407ZM43.2586 49.62C42.9576 50.0136 42.7988 50.2484 42.8582 50.2125C42.9402 50.163 43.4015 49.5332 43.3558 49.5332C43.3388 49.5332 43.2953 49.5723 43.2586 49.62ZM76.2767 49.9143C76.3403 50.0475 76.4045 50.1443 76.4197 50.1291C76.4514 50.0974 76.2405 49.6721 76.1931 49.6721C76.1755 49.6721 76.2132 49.7812 76.2767 49.9143ZM39.0368 49.8143C38.94 49.8582 38.9821 49.8644 39.1758 49.8349C39.3284 49.8117 39.4665 49.7812 39.4825 49.767C39.5421 49.7146 39.1702 49.7539 39.0368 49.8143ZM39.9587 49.8137C40.0456 49.8486 40.1452 49.9482 40.1801 50.0352C40.225 50.1469 40.2447 50.1591 40.2479 50.0765C40.2503 50.0122 40.2031 49.9107 40.1432 49.8506C40.0832 49.7908 39.9814 49.7435 39.9174 49.7459C39.8348 49.7491 39.8467 49.7688 39.9587 49.8137ZM38.6017 50.1602C38.477 50.2738 38.4008 50.3665 38.4325 50.3665C38.464 50.3665 38.5797 50.273 38.6896 50.1583C38.9448 49.8919 38.8955 49.8929 38.6017 50.1602ZM47.8623 50.2674C47.8368 50.3691 47.8292 50.4659 47.8455 50.4822C47.8619 50.4986 47.8962 50.4288 47.9218 50.327C47.9473 50.2251 47.9549 50.1285 47.9385 50.1122C47.9221 50.0958 47.8878 50.1656 47.8623 50.2674ZM34.61 50.2073C34.6964 50.2241 34.8215 50.2233 34.8879 50.2059C34.9544 50.1886 34.8836 50.175 34.7307 50.1758C34.5779 50.1766 34.5237 50.1908 34.61 50.2073ZM60.392 50.3336C60.3437 50.3919 60.318 50.4533 60.3351 50.4705C60.3521 50.4874 60.4187 50.4398 60.4831 50.3645C60.5476 50.2893 60.5733 50.2277 60.54 50.2277C60.5069 50.2277 60.4403 50.2754 60.392 50.3336ZM34.0143 50.407C33.8128 50.5483 33.5068 50.8537 33.5706 50.8499C33.6223 50.8469 34.2479 50.2971 34.1997 50.2971C34.1841 50.2971 34.1007 50.3466 34.0143 50.407ZM42.5015 50.6239C42.3543 50.8034 42.2701 50.9281 42.3146 50.9006C42.4089 50.8423 42.8488 50.2971 42.8014 50.2971C42.7838 50.2971 42.6487 50.4441 42.5015 50.6239ZM37.752 50.9325L37.3005 51.3549L37.735 50.9926C38.1183 50.6728 38.2922 50.5006 38.2248 50.5078C38.213 50.5092 38.0004 50.7003 37.752 50.9325ZM56.2727 50.7566C56.1264 50.8924 56.0191 51.0161 56.0343 51.0313C56.0492 51.0462 56.1831 50.9341 56.3317 50.7821C56.6663 50.4394 56.6306 50.424 56.2727 50.7566ZM65.7759 50.5493C65.814 50.5828 65.9702 50.7194 66.123 50.8529L66.4007 51.0959L66.1925 50.8641C66.078 50.7368 65.9217 50.6001 65.8453 50.5604C65.7689 50.5209 65.7376 50.516 65.7759 50.5493ZM28.7231 50.6454C28.6491 50.6939 28.6842 50.7013 28.8446 50.6704C29.0898 50.6233 29.2548 50.7159 29.3516 50.9545C29.3913 51.0524 29.4102 51.0626 29.4132 50.9874C29.425 50.7013 28.9769 50.4791 28.7231 50.6454ZM52.0648 50.6237C52.1825 50.6418 52.2952 50.7396 52.3932 50.9084C52.475 51.0496 52.5426 51.134 52.5434 51.0959C52.5474 50.8884 52.2617 50.5754 52.0776 50.5854L51.8854 50.5958L52.0648 50.6237ZM64.6473 50.7855C64.4468 50.9004 64.2826 51.0097 64.2826 51.0285C64.2826 51.0558 65.004 50.6801 65.1104 50.5976C65.242 50.495 64.94 50.6175 64.6473 50.7855ZM51.5208 50.748C51.3967 50.8018 51.2951 50.8617 51.2951 50.8806C51.2951 50.914 51.7863 50.7274 51.8449 50.6718C51.9056 50.6143 51.7374 50.6538 51.5208 50.748ZM4.3066 52.728C4.3066 53.8167 4.31617 54.262 4.32794 53.7178C4.33971 53.1733 4.33971 52.2825 4.32794 51.7383C4.31617 51.1941 4.3066 51.6394 4.3066 52.728ZM28.051 51.0091C27.9738 51.0949 27.8856 51.2122 27.8551 51.2695C27.7965 51.38 27.8126 51.3648 28.0939 51.0438C28.1859 50.9387 28.2455 50.8527 28.2266 50.8527C28.2074 50.8527 28.1284 50.9231 28.051 51.0091ZM41.9505 51.2868L41.676 51.5821L41.9712 51.3076C42.2457 51.0522 42.2982 50.9918 42.2457 50.9918C42.2344 50.9918 42.1015 51.1244 41.9505 51.2868ZM33.0254 51.3215L32.7862 51.5821L33.0465 51.3427C33.2889 51.1199 33.339 51.0612 33.2859 51.0612C33.2744 51.0612 33.1571 51.1783 33.0254 51.3215ZM55.7348 51.2465L55.5664 51.4321L55.7552 51.2986C55.8591 51.2254 55.9451 51.1418 55.9463 51.1133C55.9499 51.0277 55.9118 51.0518 55.7348 51.2465ZM14.5837 51.2218C14.6523 51.2721 14.7704 51.3892 14.846 51.4823C14.9219 51.5753 14.9608 51.6046 14.9326 51.5474C14.8524 51.384 14.6074 51.1306 14.5296 51.1306C14.4907 51.1306 14.5151 51.1717 14.5837 51.2218ZM47.5844 51.3092C47.5589 51.4109 47.5513 51.5077 47.5676 51.524C47.584 51.5404 47.6183 51.4706 47.6438 51.3686C47.6694 51.2669 47.677 51.1703 47.6606 51.154C47.6442 51.1376 47.6099 51.2074 47.5844 51.3092ZM18.4442 51.2948C18.4442 51.314 18.538 51.3964 18.6527 51.478C18.7672 51.5595 18.861 51.6106 18.861 51.5915C18.861 51.5723 18.7672 51.4899 18.6527 51.4083C18.538 51.3267 18.4442 51.2757 18.4442 51.2948ZM36.8249 51.7277C36.6017 51.9394 36.4315 52.1251 36.4468 52.1407C36.4624 52.1561 36.6597 51.9821 36.8855 51.7539C37.4011 51.233 37.3639 51.217 36.8249 51.7277ZM50.7048 51.6168C50.6455 51.7313 50.6126 51.8251 50.6318 51.8251C50.6509 51.8251 50.715 51.7313 50.7742 51.6168C50.8335 51.5021 50.8664 51.4083 50.8472 51.4083C50.8281 51.4083 50.764 51.5021 50.7048 51.6168ZM24.3477 51.8253C24.2992 51.9424 24.1813 52.0996 24.0859 52.1748C23.9904 52.2498 23.9423 52.3113 23.979 52.3113C24.1155 52.3113 24.5458 51.7223 24.4668 51.6433C24.4498 51.6262 24.3962 51.7082 24.3477 51.8253ZM27.5078 51.8251C27.4485 51.9398 27.4156 52.0336 27.4348 52.0336C27.4539 52.0336 27.518 51.9398 27.5772 51.8251C27.6365 51.7106 27.6694 51.6168 27.6502 51.6168C27.6311 51.6168 27.567 51.7106 27.5078 51.8251ZM41.1186 52.1203L40.6342 52.6239L41.1377 52.1395C41.6053 51.6896 41.673 51.6168 41.6221 51.6168C41.6115 51.6168 41.3849 51.8434 41.1186 52.1203ZM47.4753 51.7018C47.4753 51.7614 47.3288 51.9775 47.1497 52.1822L46.8241 52.5545L47.1495 52.2448C47.4651 51.9448 47.6008 51.7191 47.5164 51.6348C47.4938 51.612 47.4753 51.6423 47.4753 51.7018ZM55.0455 51.9783C54.5857 52.5104 54.4245 52.7472 54.7954 52.346C55.1142 52.0012 55.4226 51.6168 55.3801 51.6168C55.3679 51.6168 55.2175 51.7796 55.0455 51.9783ZM14.9915 52.0683C14.9921 52.2592 15.0054 52.329 15.0216 52.2235C15.0376 52.118 15.037 51.9617 15.0206 51.8762C15.0041 51.7908 14.9911 51.8772 14.9915 52.0683ZM19.2083 51.8504C19.2083 51.8696 19.3021 51.952 19.4166 52.0336C19.5311 52.1152 19.6249 52.1662 19.6249 52.1471C19.6249 52.1279 19.5311 52.0455 19.4166 51.9639C19.3021 51.8823 19.2083 51.8313 19.2083 51.8504ZM19.7292 52.2201C19.9243 52.4068 20.3888 52.7322 20.388 52.6817C20.3876 52.6498 20.2709 52.5457 20.1286 52.4501C19.7811 52.2169 19.6419 52.1367 19.7292 52.2201ZM31.6317 52.4555L31.3276 52.7386L31.6576 52.4755C31.839 52.3308 31.9874 52.2033 31.9874 52.1924C31.9874 52.1389 31.9116 52.195 31.6317 52.4555ZM36.2152 52.2881C36.1628 52.3518 35.998 52.4924 35.8489 52.6007C35.6999 52.7089 35.6109 52.7975 35.6512 52.7975C35.7296 52.7975 36.4273 52.1798 36.3541 52.1752C36.3301 52.1736 36.2675 52.2245 36.2152 52.2881ZM23.6263 52.581L23.4346 52.7811L23.649 53.206C23.8529 53.6096 24.0041 53.7241 24.1093 53.554C24.1424 53.5005 24.1747 53.5057 24.2164 53.5713C24.2563 53.6344 24.2765 53.6382 24.2773 53.5829C24.2787 53.469 24.1586 53.4045 24.1053 53.4909C24.0097 53.6453 23.8815 53.543 23.6957 53.1641L23.5008 52.7669L23.7171 52.5738C23.836 52.4677 23.9072 52.3807 23.8757 52.3807C23.8439 52.3807 23.7318 52.4709 23.6263 52.581ZM46.3988 52.8407L46.0514 53.1588L46.4161 52.8675C46.7319 52.6153 46.8319 52.5154 46.7634 52.5211C46.7539 52.5219 46.5897 52.6656 46.3988 52.8407ZM40.4253 52.8515C40.3102 52.9555 40.0915 53.1454 39.9391 53.2735C39.7867 53.4015 39.7244 53.4732 39.8009 53.4329C39.9497 53.3541 40.7269 52.6652 40.6689 52.6636C40.6499 52.663 40.5402 52.7476 40.4253 52.8515ZM20.4584 52.746C20.4584 52.7787 21.2004 53.3475 21.6911 53.6908C22.1344 54.001 21.9074 53.78 21.4134 53.4203C21.1363 53.2188 20.8083 52.9768 20.684 52.8826C20.56 52.7885 20.4584 52.727 20.4584 52.746ZM67.7901 52.8034C67.6744 52.8581 67.6825 52.8629 67.84 52.8324C68.0033 52.8008 68.0476 52.8314 68.1669 53.057C68.3353 53.3764 68.3559 53.3132 68.1939 52.9734C68.0716 52.7171 68.0193 52.6949 67.7901 52.8034ZM43.1637 53.0231C43.1431 53.1723 43.1537 53.2575 43.1886 53.2226C43.2221 53.1891 43.2383 53.072 43.2247 52.9622C43.2018 52.7785 43.197 52.7835 43.1637 53.0231ZM56.616 52.9437C56.5993 52.997 56.5516 53.1472 56.5099 53.2775C56.3924 53.6441 56.474 53.611 56.6003 53.2409C56.6617 53.0604 56.6972 52.898 56.6791 52.8798C56.6611 52.8619 56.6326 52.8906 56.616 52.9437ZM26.8133 53.1448C26.7541 53.2593 26.7212 53.3531 26.7403 53.3531C26.7593 53.3531 26.8235 53.2593 26.8828 53.1448C26.942 53.0301 26.9749 52.9363 26.9558 52.9363C26.9366 52.9363 26.8726 53.0301 26.8133 53.1448ZM45.7123 53.3527C45.3492 53.6276 45.3107 53.6791 45.5874 53.5201C45.7897 53.4039 46.0869 53.1414 46.0101 53.1466C45.9948 53.1478 45.8607 53.2404 45.7123 53.3527ZM49.6883 53.4746C49.4874 53.7976 49.4436 53.9193 49.5946 53.7351C49.7262 53.5741 49.9237 53.2142 49.8801 53.2142C49.8637 53.2142 49.7775 53.3313 49.6883 53.4746ZM65.9148 53.5613C66.064 53.7142 66.2016 53.8393 66.2208 53.8393C66.24 53.8393 66.1334 53.7142 65.9842 53.5613C65.835 53.4087 65.6973 53.2836 65.6782 53.2836C65.6592 53.2836 65.7655 53.4087 65.9148 53.5613ZM26.5378 53.6022C26.4732 53.701 26.4321 53.7938 26.4466 53.8083C26.4614 53.8231 26.528 53.7421 26.5951 53.6288C26.7449 53.3754 26.7 53.3547 26.5378 53.6022ZM43.0054 53.5761C42.9819 53.6635 42.9657 53.8131 42.9693 53.9087C42.9733 54.011 43.0009 53.9558 43.0366 53.7742C43.1004 53.4488 43.0779 53.3056 43.0054 53.5761ZM32.7563 53.9145C32.7591 54.0068 32.7896 54.1449 32.8241 54.2213C32.868 54.3181 32.8742 54.276 32.8446 54.0822C32.7956 53.7598 32.7493 53.6719 32.7563 53.9145ZM22.0905 53.9428C22.2457 54.0717 22.6856 54.3095 22.5767 54.2055C22.5384 54.169 22.3822 54.0691 22.2294 53.9833C22.0766 53.8975 22.0141 53.8791 22.0905 53.9428ZM51.573 53.8849C51.573 53.9228 51.6588 54.0298 51.764 54.1223L51.9549 54.2907L51.7813 54.0822C51.6857 53.9677 51.5998 53.861 51.5904 53.845C51.5808 53.8291 51.573 53.847 51.573 53.8849ZM28.5149 53.9304C28.5149 53.9424 28.6164 54.0439 28.7405 54.1561L28.9663 54.3601L28.7623 54.1343C28.5721 53.924 28.5149 53.8768 28.5149 53.9304ZM14.6406 54.1866C14.6406 54.3202 14.6547 54.3749 14.6723 54.3081C14.6898 54.2412 14.6898 54.1317 14.6723 54.0649C14.6547 53.9981 14.6406 54.0527 14.6406 54.1866ZM42.9129 54.7769C42.9133 55.0059 42.9262 55.0913 42.9418 54.9666C42.9572 54.8417 42.957 54.6542 42.941 54.5499C42.9252 54.4455 42.9125 54.5477 42.9129 54.7769ZM23.9309 55.1651C24.0646 55.2954 24.1869 55.3944 24.2027 55.385C24.2487 55.3577 23.9796 55.0829 23.8276 55.0023C23.7508 54.9616 23.7973 55.0349 23.9309 55.1651ZM33.0204 55.0373C33.0729 55.1041 33.1822 55.1552 33.2634 55.1508C33.4039 55.1432 33.4042 55.141 33.2724 55.1085C33.196 55.0897 33.0864 55.0387 33.0292 54.9952C32.9386 54.9261 32.9374 54.9315 33.0204 55.0373ZM60.3978 55.1677C60.3918 55.3207 60.5667 55.4554 60.72 55.4157C60.8167 55.3906 60.8091 55.3814 60.6862 55.3752C60.5917 55.3704 60.5025 55.3042 60.465 55.2108C60.4225 55.1051 60.4007 55.0911 60.3978 55.1677ZM36.5007 55.439C36.3319 55.7698 36.1967 56.1122 36.2599 56.0491C36.3259 55.9829 36.7092 55.1587 36.6739 55.1587C36.6573 55.1587 36.5793 55.2848 36.5007 55.439ZM14.6424 55.3995C14.6601 55.5354 15.0621 55.8562 15.2077 55.8502C15.2498 55.8486 15.1654 55.7846 15.0202 55.708C14.875 55.6314 14.7265 55.4999 14.6904 55.4157C14.634 55.2848 14.627 55.2824 14.6424 55.3995ZM42.9635 55.3792C42.9604 55.5167 43.2859 55.9228 43.3993 55.9228C43.4426 55.9228 43.4052 55.872 43.3165 55.8097C43.2277 55.7475 43.1126 55.5991 43.0607 55.4797C43.0088 55.3606 42.9651 55.3154 42.9635 55.3792ZM76.2322 55.6176C76.141 55.7894 75.8918 56.0898 75.6786 56.2849C75.4653 56.4802 75.3546 56.6059 75.4326 56.5644C75.7446 56.3985 76.5216 55.4289 76.4225 55.3297C76.4089 55.3162 76.3233 55.4456 76.2322 55.6176ZM4.73113 55.7491C4.88196 56.0144 5.15547 56.3113 5.42201 56.499C5.53652 56.5796 5.45652 56.4753 5.24405 56.2668C5.03158 56.0585 4.80256 55.8099 4.73512 55.7144C4.61622 55.5458 4.61622 55.5468 4.73113 55.7491ZM47.4753 55.7756C47.4753 55.8432 47.7454 56.096 47.7743 56.0555C47.7857 56.0397 47.7229 55.9578 47.6351 55.8732C47.5471 55.7886 47.4753 55.7447 47.4753 55.7756ZM35.737 56.5834L35.2887 57.0357L30.1063 57.0331C27.2558 57.0317 24.8722 57.0504 24.8093 57.0746C24.7465 57.0987 24.6428 57.0983 24.5791 57.074C24.471 57.0325 13.0934 57.0139 13.0521 57.0552C13.042 57.0656 13.1244 57.3385 13.2357 57.6617C13.3468 57.9849 13.7789 59.2495 14.1959 60.4719C14.6128 61.6942 15.0848 63.0694 15.2446 63.5278C15.4046 63.9863 15.6299 64.6534 15.7452 65.0107L15.9551 65.6603L16.2447 65.6212C16.4039 65.5997 16.7062 65.5655 16.9163 65.545C17.3883 65.4991 19.5355 65.2683 20.8405 65.1232C21.3751 65.0638 22.0939 64.987 22.4379 64.9525C22.7816 64.9182 23.9535 64.7937 25.0422 64.676C26.1308 64.5585 27.3029 64.4326 27.6466 64.3963C29.1944 64.2327 30.9606 64.0403 31.5012 63.9765C31.826 63.938 32.4042 63.8778 32.7862 63.8424C33.168 63.8071 33.9339 63.7281 34.4877 63.6669C35.0416 63.6056 36.0261 63.4965 36.6755 63.4245C37.3248 63.3525 38.2555 63.2537 38.7437 63.2052C39.8902 63.0909 39.7929 63.2449 39.6636 61.7501C39.603 61.047 39.5275 60.1666 39.4962 59.7934C39.4649 59.4201 39.4164 59.0921 39.3887 59.0644C39.325 59.0007 38.2996 58.8467 37.914 58.8427C37.4749 58.8384 37.4046 58.7907 37.4046 58.4966C37.4046 58.0667 37.3464 58.1144 36.6222 59.1386C35.4575 60.7857 34.5147 61.61 33.5475 61.8269C33.0731 61.9332 32.8249 61.8642 32.7744 61.6116C32.7447 61.4624 32.6942 61.4095 32.5823 61.4095C31.9792 61.4095 32.2352 60.3971 32.9881 59.8047C33.087 59.7269 33.168 59.6306 33.168 59.5907C33.168 59.551 33.2486 59.4361 33.347 59.3353C33.4455 59.2348 33.682 58.9493 33.8727 58.7009C34.3467 58.0834 34.5227 57.8881 35.4511 56.9473C35.8942 56.4984 36.2406 56.1311 36.221 56.1311C36.2013 56.1311 35.9836 56.3346 35.737 56.5834ZM74.9436 56.7562C74.7908 56.827 74.6902 56.8872 74.7202 56.89C74.8023 56.8978 75.256 56.6993 75.256 56.6556C75.256 56.6085 75.2774 56.6017 74.9436 56.7562ZM6.65473 57.0125C6.72156 57.0299 6.83108 57.0299 6.89792 57.0125C6.96475 56.995 6.91009 56.9806 6.77622 56.9806C6.64256 56.9806 6.58789 56.995 6.65473 57.0125ZM74.0233 57.0125C74.0901 57.0299 74.1996 57.0299 74.2665 57.0125C74.3333 56.995 74.2787 56.9806 74.1448 56.9806C74.0111 56.9806 73.9565 56.995 74.0233 57.0125Z" fill="white"/>
</svg>
